<?xml version="1.0" encoding="UTF-8"?>
<svg id="Layer_1" data-name="Layer 1" xmlns="http://www.w3.org/2000/svg" viewBox="0 0 512 240">
  <defs>
    <style>
      .cls-1 {
        fill: #314f5e;
      }

      .cls-2 {
        fill: #fff;
      }

      .cls-3 {
        fill: #659ebb;
      }

      .cls-4 {
        fill: red;
      }

      .cls-5 {
        fill: #ffe35e;
      }
    </style>
  </defs>
  <rect class="cls-3" width="512" height="240"/>
  <g>
    <rect class="cls-1" x="273.64" y="2" width="232.44" height="236" rx="34.7" ry="34.7"/>
    <circle class="cls-2" cx="425.87" cy="82.76" r="35.57"/>
    <path class="cls-2" d="M377.22,84.44c0-7.73,2.16-14.96,5.91-21.11l-56.95.21c-3.42.01-6.2,2.76-6.25,6.18l-1.62,107.93c-.09,5.66,6.78,8.54,10.75,4.49l64.22-65.35c-9.75-7.42-16.05-19.15-16.05-32.35Z"/>
    <path class="cls-2" d="M429.85,192.81h-48.16v-29.53c0-17.6,14.27-31.87,31.87-31.87h25.95c4.53,0,8.21,3.68,8.21,8.21v35.33c0,9.87-8,17.87-17.87,17.87Z"/>
  </g>
  <g>
    <rect class="cls-1" x="7.51" y="7.1" width="224.71" height="228.15" rx="33.55" ry="33.55"/>
    <path class="cls-4" d="M198.67,239.17H41.06c-20.66,0-37.47-16.81-37.47-37.47V40.65C3.59,19.98,20.4,3.17,41.06,3.17h157.61c20.66,0,37.47,16.81,37.47,37.47v161.05c0,20.66-16.81,37.47-37.47,37.47ZM41.06,11.03c-16.33,0-29.62,13.29-29.62,29.62v161.05c0,16.33,13.29,29.62,29.62,29.62h157.61c16.33,0,29.62-13.29,29.62-29.62V40.65c0-16.33-13.29-29.62-29.62-29.62H41.06Z"/>
    <path class="cls-5" d="M194.69,133.77c-1.19-14.32-2.37-28.65-3.56-42.97-.64-2.59-2.95-10.53-10.6-16.68-2.85-2.29-9.45-6.75-18.66-6.75-.31,0-.62,0-.94.02-2.45.08-12.17.56-19.59,8.51-2.7,2.89-4.36,5.98-5.39,8.69-6.46-1.55-12.09-1.92-16.25-1.92s-10.14.4-16.85,2.07c-1.03-2.75-2.7-5.9-5.45-8.84-7.42-7.95-17.14-8.43-19.59-8.51-.32-.01-.63-.02-.94-.02-9.21,0-15.81,4.46-18.66,6.75-7.65,6.15-9.96,14.09-10.6,16.68-1.29,15.57-2.58,31.15-3.87,46.72-.5,2.24-.78,4.57-.78,6.96,0,.6.02,1.2.05,1.8-.01.18-.03.35-.04.53-.14,4.39,1.17,8.58,3.58,12.28,5.27,10.05,15.79,16.91,27.93,16.91,17.41,0,31.52-14.11,31.52-31.52,0-3.83-.68-7.5-1.93-10.89.04-5.02.09-10.04.13-15.06h30.34c.05,5.81.1,11.62.16,17.43-.76,2.71-1.18,5.57-1.18,8.53,0,17.41,14.11,31.52,31.52,31.52s31.52-14.11,31.52-31.52c0-3.76-.66-7.37-1.87-10.71ZM57.74,92.55c.76-2.67,2.6-7,6.88-10.44,2.09-1.68,6.45-4.49,12.25-4.49.2,0,.4,0,.6,0,2.9.09,8.37.9,12.44,5.26,2.93,3.14,3.94,6.8,4.28,9.01l-.25,27.8c-5.36-4.22-12.12-6.74-19.47-6.74s-13.68,2.36-18.95,6.34l2.22-26.75ZM74.57,167.25c-12.7,0-23-10.3-23-23s10.3-23,23-23,23,10.3,23,23-10.3,23-23,23ZM133.79,111.87h-28.18v-20.95c4.62-1.06,9.34-1.59,14.09-1.59s9.47.53,14.09,1.59v20.95ZM148.83,82.88c4.07-4.36,9.54-5.17,12.44-5.26.2,0,.4,0,.6,0,5.79,0,10.16,2.81,12.25,4.49,4.28,3.44,6.12,7.78,6.88,10.44l2.17,26.15c-5.13-3.61-11.38-5.74-18.12-5.74-7.71,0-14.76,2.77-20.24,7.36l-.25-28.43c.34-2.21,1.35-5.87,4.28-9.01ZM164.81,167.25c-12.7,0-23-10.3-23-23s10.3-23,23-23,23,10.3,23,23-10.3,23-23,23Z"/>
  </g>
</svg>