<?xml version="1.0" encoding="UTF-8"?>
<svg id="Layer_1" data-name="Layer 1" xmlns="http://www.w3.org/2000/svg" viewBox="0 0 512 512">
  <defs>
    <style>
      .cls-1 {
        fill: #fff;
      }
    </style>
  </defs>
  <rect width="512" height="512"/>
  <path class="cls-1" d="M445.95,286.64c-3.01-36.31-6.01-72.62-9.02-108.93-1.62-6.58-7.48-26.7-26.87-42.29-7.22-5.8-23.95-17.11-47.31-17.11-.79,0-1.58.01-2.38.04-6.2.2-30.84,1.41-49.67,21.57-6.84,7.32-11.04,15.16-13.66,22.03-16.38-3.92-30.66-4.87-41.19-4.87s-25.7,1.01-42.72,5.25c-2.61-6.96-6.85-14.96-13.81-22.41-18.82-20.16-43.46-21.37-49.67-21.57-.8-.03-1.59-.04-2.38-.04-23.36,0-40.09,11.31-47.31,17.11-19.39,15.58-25.25,35.71-26.87,42.29-3.27,39.48-6.54,78.97-9.81,118.45-1.28,5.68-1.98,11.57-1.98,17.64,0,1.53.05,3.05.14,4.57-.04.45-.07.9-.11,1.35-.36,11.13,2.97,21.76,9.08,31.13,13.36,25.47,40.04,42.86,70.8,42.86,44.13,0,79.91-35.77,79.91-79.91,0-9.71-1.73-19.01-4.9-27.61.11-12.73.23-25.46.34-38.19h76.92l.39,44.19c-1.93,6.88-2.98,14.12-2.98,21.61,0,44.13,35.77,79.91,79.91,79.91s79.91-35.77,79.91-79.91c0-9.53-1.68-18.67-4.74-27.15ZM98.78,182.13c1.94-6.76,6.59-17.75,17.45-26.47,5.29-4.25,16.36-11.38,31.04-11.38.51,0,1.02,0,1.53.03,7.35.24,21.23,2.29,31.54,13.34,7.44,7.97,9.98,17.24,10.85,22.84l-.63,70.49c-13.59-10.69-30.72-17.08-49.35-17.08s-34.67,5.98-48.05,16.06l5.62-67.81ZM141.44,371.51c-32.21,0-58.32-26.11-58.32-58.32s26.11-58.32,58.32-58.32,58.32,26.11,58.32,58.32-26.11,58.32-58.32,58.32ZM291.57,231.11h-71.44v-53.11c11.7-2.68,23.67-4.04,35.72-4.04s24.02,1.36,35.72,4.04v53.11ZM329.69,157.63c10.31-11.04,24.18-13.1,31.53-13.34.51-.02,1.02-.03,1.53-.03,14.68,0,25.75,7.13,31.04,11.38,10.86,8.73,15.51,19.72,17.45,26.47l5.49,66.3c-13-9.16-28.84-14.55-45.95-14.55-19.54,0-37.43,7.02-51.31,18.66l-.64-72.07c.87-5.61,3.41-14.88,10.85-22.84ZM370.2,371.51c-32.21,0-58.32-26.11-58.32-58.32s26.11-58.32,58.32-58.32,58.32,26.11,58.32,58.32-26.11,58.32-58.32,58.32Z"/>
</svg>