<?xml version="1.0" encoding="UTF-8"?>
<svg id="Layer_1" data-name="Layer 1" xmlns="http://www.w3.org/2000/svg" viewBox="0 0 481.36 488.73">
  <defs>
    <style>
      .cls-1 {
        fill: #314f5e;
      }

      .cls-2 {
        fill: #fff;
      }
    </style>
  </defs>
  <rect class="cls-1" x="0" y="0" width="481.36" height="488.73" rx="71.86" ry="71.86"/>
  <g>
    <circle class="cls-2" cx="315.24" cy="167.24" r="73.65"/>
    <path class="cls-2" d="M214.5,170.73c0-16.01,4.47-30.97,12.23-43.71l-117.94.43c-7.08.03-12.84,5.72-12.95,12.8l-3.36,223.51c-.18,11.73,14.05,17.68,22.27,9.31l132.99-135.34c-20.19-15.38-33.24-39.66-33.24-67Z"/>
    <path class="cls-2" d="M323.48,395.13h-99.73v-61.16c0-36.45,29.55-66,66-66h53.73c9.39,0,17,7.61,17,17v73.16c0,20.43-16.57,37-37,37Z"/>
  </g>
</svg>