<?xml version="1.0" encoding="UTF-8"?>
<svg id="Layer_1" data-name="Layer 1" xmlns="http://www.w3.org/2000/svg" xmlns:xlink="http://www.w3.org/1999/xlink" viewBox="0 0 512 512">
  <defs>
    <style>
      .cls-1 {
        fill: #fff;
      }

      .cls-2 {
        fill: #1f3264;
      }

      .cls-3 {
        filter: url(#drop-shadow-1);
      }

      .cls-4 {
        fill: #f32c2d;
      }
    </style>
    <filter id="drop-shadow-1" x="25" y="25" width="484" height="484" filterUnits="userSpaceOnUse">
      <feOffset dx="11" dy="11"/>
      <feGaussianBlur result="blur" stdDeviation="5"/>
      <feFlood flood-color="#000" flood-opacity=".75"/>
      <feComposite in2="blur" operator="in"/>
      <feComposite in="SourceGraphic"/>
    </filter>
  </defs>
  <rect class="cls-2" width="512" height="512"/>
  <g class="cls-3">
    <path class="cls-1" d="M256,49.27655029c27.9163208,0,54.98687744,5.4630127,80.45999146,16.23712158,24.61401367,10.41088867,46.72399902,25.31921387,65.71557617,44.3107605,18.99154663,18.99157715,33.89987183,41.1015625,44.3107605,65.71557617,10.77410889,25.47311401,16.23712158,52.54367065,16.23712158,80.45999146,0,27.91633606-5.4630127,54.9868927-16.23712158,80.46000671-10.41088867,24.61399841-25.31921387,46.72399902-44.3107605,65.71554565-18.99157715,18.99156189-41.1015625,33.89989471-65.71557617,44.31078339-25.47311401,10.77410889-52.54367065,16.23711014-80.45999146,16.23711014-27.91633606,0-54.9868927-5.46300125-80.46000671-16.23711014-24.61399841-10.41088867-46.72399902-25.3192215-65.71554565-44.31078339-18.99156189-18.99154663-33.89989471-41.10154724-44.31078339-65.71554565-10.77410889-25.47311401-16.23711014-52.54367065-16.23711014-80.46000671,0-27.9163208,5.46300125-54.98687744,16.23711014-80.45999146,10.41088867-24.61401367,25.3192215-46.72399902,44.31078339-65.71557617,18.99154663-18.99154663,41.10154724-33.89987183,65.71554565-44.3107605,25.47311401-10.77410889,52.54367065-16.23712158,80.46000671-16.23712158M256,29.27655029c-125.21588135,0-226.72344398,101.50756836-226.72344398,226.72344971s101.50756264,226.72344398,226.72344398,226.72344398,226.72344971-101.50756264,226.72344971-226.72344398S381.21588135,29.27655029,256,29.27655029h0Z"/>
    <path class="cls-4" d="M256,107.72816776l-111.20387418,296.54366447,105.96616424-86.33871551,116.44158412,86.33871551-111.20387418-296.54366447Z"/>
  </g>
</svg>