<?xml version="1.0" encoding="UTF-8"?>
<svg id="Layer_1" data-name="Layer 1" xmlns="http://www.w3.org/2000/svg" viewBox="0 0 512 512">
  <defs>
    <style>
      .cls-1 {
        fill: #fff;
      }
    </style>
  </defs>
  <rect width="512" height="512"/>
  <g>
    <path class="cls-1" d="M246.28,183.93c14.37,0,26.06,11.69,26.06,26.06s-11.69,26.06-26.06,26.06-26.06-11.69-26.06-26.06,11.69-26.06,26.06-26.06M246.28,163.97c-25.41,0-46.02,20.6-46.02,46.02s20.6,46.02,46.02,46.02,46.02-20.6,46.02-46.02-20.6-46.02-46.02-46.02h0Z"/>
    <path class="cls-1" d="M266.2,400.98c-7,8.57-13.57,16.47-19.38,23.37-24.59-30.86-49.13-62.3-73.16-93.73-8.86-11.59-23.69-30.98-38.53-58.95l-.08-.14-.25-.47-.27-.46c-3.24-5.47-6.09-11.23-8.47-17.11l-.12-.3c-6.21-15.41-9.36-31.71-9.36-48.47,0-34.65,13.49-67.22,37.99-91.72,24.5-24.5,57.07-37.99,91.72-37.99s67.22,13.49,91.72,37.99c24.5,24.5,37.99,57.07,37.99,91.72,0,16.5-3.06,32.57-9.08,47.78l-.16.41c-2.24,5.6-4.89,11.08-7.88,16.27l-.27.47-.24.46-.05.09v.02c-2.06,3.99-4.11,7.82-6.18,11.54,6.17,4.12,12.34,8.24,18.51,12.36,2.5-4.47,4.98-9.08,7.44-13.88,0,0,0,0,0-.01,3.5-6.1,6.59-12.47,9.23-19.07.01-.03.03-.07.04-.1h0c6.96-17.42,10.8-36.43,10.8-56.33,0-83.89-68-151.89-151.89-151.89S94.39,120.84,94.39,204.72c0,20.15,3.93,39.38,11.06,56.98h0s.04.09.06.14c2.82,6.95,6.15,13.65,9.93,20.05.03.05.05.1.08.16,15.38,29,30.48,48.91,40.52,62.05,25.02,32.72,55.24,71.55,90.24,115.08,5.21-6.03,19.31-22.43,36.68-43.67-5.59-4.84-11.18-9.68-16.77-14.52Z"/>
    <path class="cls-1" d="M407.84,365.32h-43.45v-43.45c0-5.39-4.37-9.76-9.76-9.76s-9.76,4.37-9.76,9.76v43.45h-43.45c-5.39,0-9.76,4.37-9.76,9.76h0c0,5.39,4.37,9.76,9.76,9.76h43.45v43.45c0,5.39,4.37,9.76,9.76,9.76s9.76-4.37,9.76-9.76v-43.45h43.45c5.39,0,9.76-4.37,9.76-9.76h0c0-5.39-4.37-9.76-9.76-9.76Z"/>
  </g>
</svg>