<?xml version="1.0" encoding="UTF-8"?>
<svg id="Layer_1" data-name="Layer 1" xmlns="http://www.w3.org/2000/svg" viewBox="0 0 512 327">
  <defs>
    <style>
      .cls-1 {
        fill: #42b3de;
      }

      .cls-2 {
        fill: #fff;
      }

      .cls-3 {
        fill: #2c829e;
      }

      .cls-4 {
        fill: #fe3264;
      }
    </style>
  </defs>
  <rect class="cls-2" width="512" height="327"/>
  <g>
    <rect width="246.62" height="246.62"/>
    <g>
      <path class="cls-1" d="M89.06,113.24l68.27-14.57-41.18,55.06c-2.19-8.38-4.39-16.75-6.58-25.13-6.83-5.12-13.67-10.24-20.5-15.37Z"/>
      <path class="cls-2" d="M157.33,98.66l-41.18,55.07c-2.19-8.38-4.39-16.75-6.58-25.13-6.83-5.12-13.67-10.24-20.5-15.37l68.27-14.57M166.92,92.53l-10.42,2.22-68.27,14.57-8.6,1.84,7.04,5.28,13.67,10.24,5.72,4.29,4.04,15.4,2.19,8.38,2.1,8.03,4.97-6.64,41.18-55.07,6.38-8.53h0Z"/>
    </g>
    <g>
      <path d="M25.82,293.42v-.43h.6c.67,0,1.15-.21,1.43-.64.17-.26.26-.84.26-1.73v-10.27c0-.99-.11-1.61-.33-1.86-.3-.34-.76-.52-1.36-.52h-.6v-.43h6.47c2.38,0,4.18.27,5.42.81s2.23,1.44,2.99,2.7,1.13,2.71,1.13,4.36c0,2.21-.67,4.06-2.02,5.54-1.51,1.66-3.8,2.48-6.89,2.48h-7.1ZM30.35,292.28c.99.22,1.82.33,2.5.33,1.81,0,3.32-.64,4.51-1.91s1.79-3,1.79-5.18-.6-3.93-1.79-5.19-2.73-1.9-4.61-1.9c-.7,0-1.5.11-2.4.34v13.51Z"/>
      <path d="M45.29,286.73c0,1.59.38,2.84,1.16,3.75s1.7,1.36,2.75,1.36c.7,0,1.31-.19,1.83-.58s.96-1.05,1.31-1.99l.36.23c-.16,1.07-.64,2.04-1.43,2.92s-1.78,1.32-2.96,1.32c-1.29,0-2.39-.5-3.31-1.51s-1.38-2.35-1.38-4.05c0-1.84.47-3.27,1.41-4.29s2.12-1.54,3.54-1.54c1.2,0,2.19.4,2.96,1.19s1.16,1.85,1.16,3.18h-7.42ZM45.29,286.05h4.97c-.04-.69-.12-1.17-.25-1.45-.2-.44-.49-.78-.87-1.03s-.79-.38-1.21-.38c-.65,0-1.23.25-1.74.76s-.81,1.21-.9,2.1Z"/>
      <path d="M58.34,283.53v7.05c0,1,.11,1.63.33,1.9.29.34.68.52,1.16.52h.97v.42h-6.41v-.42h.48c.31,0,.6-.08.86-.23s.44-.37.53-.63.15-.78.15-1.55v-7.05h-2.09v-.84h2.09v-.7c0-1.07.17-1.98.52-2.72s.87-1.34,1.58-1.8,1.5-.69,2.38-.69c.82,0,1.57.27,2.26.8.45.35.68.75.68,1.18,0,.23-.1.46-.3.66s-.42.31-.66.31c-.18,0-.37-.06-.57-.19s-.44-.41-.73-.83-.55-.71-.8-.86-.51-.22-.81-.22c-.36,0-.66.1-.91.29s-.43.49-.54.89-.16,1.44-.16,3.11v.77h2.77v.84h-2.77Z"/>
      <path d="M68.22,291.88c-1.1.85-1.79,1.34-2.07,1.48-.42.2-.87.29-1.35.29-.74,0-1.35-.25-1.83-.76s-.72-1.18-.72-2c0-.52.12-.98.35-1.36.32-.53.88-1.03,1.67-1.5s2.11-1.04,3.96-1.71v-.42c0-1.07-.17-1.8-.51-2.2s-.83-.6-1.48-.6c-.49,0-.88.13-1.17.4-.3.27-.45.57-.45.91l.02.68c0,.36-.09.64-.28.83s-.42.29-.72.29-.53-.1-.71-.3-.28-.48-.28-.83c0-.67.34-1.29,1.03-1.85s1.65-.84,2.89-.84c.95,0,1.73.16,2.34.48.46.24.8.62,1.02,1.14.14.34.21,1.02.21,2.06v3.64c0,1.02.02,1.65.06,1.88s.1.38.19.46.19.12.31.12c.12,0,.23-.03.33-.08.16-.1.48-.39.95-.86v.66c-.88,1.17-1.71,1.76-2.51,1.76-.38,0-.69-.13-.91-.4s-.34-.72-.35-1.36ZM68.22,291.12v-4.09c-1.18.47-1.94.8-2.29,1-.62.34-1.06.7-1.32,1.08s-.4.79-.4,1.23c0,.56.17,1.03.5,1.4s.72.56,1.16.56c.59,0,1.38-.39,2.34-1.17Z"/>
      <path d="M82.2,282.69v6.5c0,1.24.03,2,.09,2.28s.15.47.28.58.28.16.45.16c.24,0,.52-.07.82-.2l.16.41-3.21,1.32h-.53v-2.27c-.92,1-1.62,1.63-2.11,1.89s-1,.39-1.54.39c-.6,0-1.12-.17-1.56-.52s-.75-.79-.92-1.34-.26-1.32-.26-2.32v-4.79c0-.51-.05-.86-.16-1.05s-.27-.35-.49-.45-.6-.15-1.17-.15v-.43h3.76v7.18c0,1,.17,1.66.52,1.97s.77.47,1.26.47c.34,0,.72-.11,1.14-.32s.93-.61,1.52-1.21v-6.08c0-.61-.11-1.02-.33-1.24s-.69-.33-1.39-.35v-.43h3.66Z"/>
      <path d="M88.48,276.76v14.24c0,.67.05,1.12.15,1.34s.25.38.45.5.58.17,1.14.17v.42h-5.26v-.42c.49,0,.83-.05,1.01-.15s.32-.27.42-.5.15-.68.15-1.35v-9.75c0-1.21-.03-1.96-.08-2.23s-.14-.47-.26-.57-.28-.15-.46-.15c-.2,0-.46.06-.77.19l-.2-.41,3.2-1.31h.53Z"/>
      <path d="M94.57,279.16v3.53h2.51v.82h-2.51v6.96c0,.7.1,1.16.3,1.41s.46.36.77.36c.26,0,.51-.08.75-.24s.43-.4.56-.71h.46c-.27.77-.66,1.34-1.16,1.73s-1.02.58-1.55.58c-.36,0-.71-.1-1.05-.3s-.6-.48-.76-.86-.25-.94-.25-1.72v-7.22h-1.7v-.39c.43-.17.87-.46,1.32-.87s.85-.9,1.2-1.46c.18-.3.43-.84.75-1.63h.36Z"/>
      <path d="M114.38,277.17v5.5h-.43c-.14-1.05-.39-1.89-.76-2.52s-.88-1.12-1.55-1.49-1.37-.55-2.09-.55c-.81,0-1.48.25-2.02.74s-.8,1.06-.8,1.69c0,.48.17.93.5,1.32.48.59,1.64,1.37,3.46,2.34,1.48.8,2.5,1.41,3.04,1.83s.96.93,1.25,1.51.44,1.18.44,1.82c0,1.2-.47,2.24-1.4,3.11s-2.13,1.31-3.6,1.31c-.46,0-.89-.04-1.3-.11-.24-.04-.74-.18-1.51-.43s-1.24-.37-1.45-.37-.35.06-.46.18-.2.36-.25.73h-.43v-5.45h.43c.2,1.14.48,1.99.82,2.56s.87,1.04,1.58,1.41,1.48.56,2.33.56c.98,0,1.75-.26,2.31-.77s.85-1.12.85-1.83c0-.39-.11-.79-.32-1.18s-.55-.77-1-1.11c-.3-.23-1.14-.73-2.5-1.49s-2.33-1.37-2.9-1.82-1.01-.95-1.31-1.5-.45-1.15-.45-1.8c0-1.14.44-2.12,1.31-2.95s1.99-1.24,3.34-1.24c.84,0,1.74.21,2.68.62.44.2.75.29.93.29.2,0,.37-.06.5-.18s.23-.37.31-.73h.43Z"/>
      <path d="M119.27,286.73c0,1.59.38,2.84,1.16,3.75s1.7,1.36,2.75,1.36c.7,0,1.31-.19,1.83-.58s.96-1.05,1.31-1.99l.36.23c-.16,1.07-.64,2.04-1.43,2.92s-1.78,1.32-2.96,1.32c-1.29,0-2.39-.5-3.31-1.51s-1.38-2.35-1.38-4.05c0-1.84.47-3.27,1.41-4.29s2.12-1.54,3.54-1.54c1.2,0,2.19.4,2.96,1.19s1.16,1.85,1.16,3.18h-7.42ZM119.27,286.05h4.97c-.04-.69-.12-1.17-.25-1.45-.2-.44-.49-.78-.87-1.03s-.79-.38-1.21-.38c-.65,0-1.23.25-1.74.76s-.81,1.21-.9,2.1Z"/>
      <path d="M131.81,276.76v14.24c0,.67.05,1.12.15,1.34s.25.38.45.5.58.17,1.14.17v.42h-5.26v-.42c.49,0,.83-.05,1.01-.15s.32-.27.42-.5.15-.68.15-1.35v-9.75c0-1.21-.03-1.96-.08-2.23s-.14-.47-.26-.57-.28-.15-.46-.15c-.2,0-.46.06-.77.19l-.2-.41,3.2-1.31h.53Z"/>
      <path d="M138.98,283.53v7.05c0,1,.11,1.63.33,1.9.29.34.68.52,1.16.52h.97v.42h-6.41v-.42h.48c.31,0,.6-.08.86-.23s.44-.37.53-.63.15-.78.15-1.55v-7.05h-2.09v-.84h2.09v-.7c0-1.07.17-1.98.52-2.72s.87-1.34,1.58-1.8,1.5-.69,2.38-.69c.82,0,1.57.27,2.26.8.45.35.68.75.68,1.18,0,.23-.1.46-.3.66s-.42.31-.66.31c-.18,0-.37-.06-.57-.19s-.44-.41-.73-.83-.55-.71-.8-.86-.51-.22-.81-.22c-.36,0-.66.1-.91.29s-.43.49-.54.89-.16,1.44-.16,3.11v.77h2.77v.84h-2.77Z"/>
      <path d="M143,287.16h6.06v1.77h-6.06v-1.77Z"/>
      <path d="M159.84,293.42l-6.14-13.37v10.62c0,.98.11,1.59.32,1.83.29.33.75.49,1.37.49h.56v.43h-5.53v-.43h.56c.67,0,1.15-.2,1.43-.61.17-.25.26-.82.26-1.71v-10.38c0-.7-.08-1.21-.23-1.52-.11-.23-.31-.42-.6-.57s-.76-.23-1.41-.23v-.43h4.5l5.77,12.43,5.67-12.43h4.5v.43h-.55c-.68,0-1.16.2-1.44.61-.17.25-.26.82-.26,1.71v10.38c0,.98.11,1.59.33,1.83.29.33.75.49,1.37.49h.55v.43h-6.75v-.43h.56c.68,0,1.16-.2,1.43-.61.17-.25.26-.82.26-1.71v-10.62l-6.13,13.37h-.39Z"/>
      <path d="M178.2,291.88c-1.1.85-1.79,1.34-2.07,1.48-.42.2-.87.29-1.35.29-.74,0-1.35-.25-1.83-.76s-.72-1.18-.72-2c0-.52.12-.98.35-1.36.32-.53.88-1.03,1.67-1.5s2.11-1.04,3.96-1.71v-.42c0-1.07-.17-1.8-.51-2.2s-.83-.6-1.48-.6c-.49,0-.88.13-1.17.4-.3.27-.45.57-.45.91l.02.68c0,.36-.09.64-.28.83s-.42.29-.72.29-.53-.1-.71-.3-.28-.48-.28-.83c0-.67.34-1.29,1.03-1.85s1.65-.84,2.89-.84c.95,0,1.73.16,2.34.48.46.24.8.62,1.02,1.14.14.34.21,1.02.21,2.06v3.64c0,1.02.02,1.65.06,1.88s.1.38.19.46.19.12.31.12c.12,0,.23-.03.33-.08.16-.1.48-.39.95-.86v.66c-.88,1.17-1.71,1.76-2.51,1.76-.38,0-.69-.13-.91-.4s-.34-.72-.35-1.36ZM178.2,291.12v-4.09c-1.18.47-1.94.8-2.29,1-.62.34-1.06.7-1.32,1.08s-.4.79-.4,1.23c0,.56.17,1.03.5,1.4s.72.56,1.16.56c.59,0,1.38-.39,2.34-1.17Z"/>
      <path d="M185.91,282.37v2.41c.9-1.61,1.82-2.41,2.77-2.41.43,0,.79.13,1.07.39s.42.56.42.91c0,.3-.1.56-.3.77s-.45.32-.73.32-.58-.13-.92-.4-.59-.4-.76-.4c-.14,0-.29.08-.46.23-.35.32-.71.85-1.09,1.58v5.14c0,.59.07,1.04.22,1.35.1.21.28.39.54.53s.63.21,1.11.21v.42h-5.5v-.42c.55,0,.95-.09,1.22-.26.2-.12.33-.32.41-.6.04-.13.06-.51.06-1.14v-4.16c0-1.25-.03-1.99-.08-2.23s-.14-.41-.28-.52-.31-.16-.51-.16c-.24,0-.52.06-.82.18l-.12-.42,3.25-1.31h.49Z"/>
      <path d="M193.93,276.76v10.68l2.73-2.48c.58-.53.91-.87,1.01-1.01.06-.09.09-.19.09-.28,0-.16-.06-.29-.19-.4s-.34-.18-.64-.19v-.38h4.66v.38c-.64.02-1.17.11-1.6.29s-.89.5-1.4.96l-2.75,2.54,2.75,3.48c.77.96,1.28,1.57,1.55,1.83.38.37.7.61.98.71.2.08.54.12,1.02.12v.42h-5.21v-.42c.3,0,.5-.05.6-.13s.16-.2.16-.35c0-.18-.16-.47-.47-.87l-3.29-4.21v3.56c0,.7.05,1.15.15,1.37s.24.38.42.47.57.14,1.17.15v.42h-5.46v-.42c.55,0,.96-.07,1.23-.2.16-.09.29-.22.38-.4.12-.26.18-.7.18-1.34v-9.77c0-1.24-.03-2-.08-2.28s-.14-.47-.27-.57-.29-.16-.49-.16c-.16,0-.41.07-.74.2l-.2-.41,3.19-1.31h.54Z"/>
      <path d="M204.56,286.73c0,1.59.38,2.84,1.16,3.75s1.7,1.36,2.75,1.36c.7,0,1.31-.19,1.83-.58s.96-1.05,1.31-1.99l.36.23c-.16,1.07-.64,2.04-1.43,2.92s-1.78,1.32-2.96,1.32c-1.29,0-2.39-.5-3.31-1.51s-1.38-2.35-1.38-4.05c0-1.84.47-3.27,1.41-4.29s2.12-1.54,3.54-1.54c1.2,0,2.19.4,2.96,1.19s1.16,1.85,1.16,3.18h-7.42ZM204.56,286.05h4.97c-.04-.69-.12-1.17-.25-1.45-.2-.44-.49-.78-.87-1.03s-.79-.38-1.21-.38c-.65,0-1.23.25-1.74.76s-.81,1.21-.9,2.1Z"/>
      <path d="M216.55,282.37v2.41c.9-1.61,1.82-2.41,2.77-2.41.43,0,.79.13,1.07.39s.42.56.42.91c0,.3-.1.56-.3.77s-.45.32-.73.32-.58-.13-.92-.4-.59-.4-.76-.4c-.14,0-.29.08-.46.23-.35.32-.71.85-1.09,1.58v5.14c0,.59.07,1.04.22,1.35.1.21.28.39.54.53s.63.21,1.11.21v.42h-5.5v-.42c.55,0,.95-.09,1.22-.26.2-.12.33-.32.41-.6.04-.13.06-.51.06-1.14v-4.16c0-1.25-.03-1.99-.08-2.23s-.14-.41-.28-.52-.31-.16-.51-.16c-.24,0-.52.06-.82.18l-.12-.42,3.25-1.31h.49Z"/>
    </g>
  </g>
  <g>
    <rect x="265.38" width="246.62" height="246.62"/>
    <g>
      <path class="cls-4" d="M356.29,102.67l69.32,8.2-56.73,38.86c.62-8.64,1.24-17.27,1.86-25.91-4.82-7.05-9.64-14.1-14.46-21.15Z"/>
      <path class="cls-3" d="M356.29,102.67l69.32,8.2-56.73,38.86c.62-8.64,1.24-17.27,1.86-25.91-4.82-7.05-9.64-14.1-14.46-21.15M348.03,97.66l4.96,7.26,9.16,13.41,4.5,6.59-1.76,24.52-.6,8.28,6.85-4.69,56.73-38.86,8.79-6.02-10.58-1.25-69.32-8.2-8.74-1.03h0Z"/>
    </g>
    <g>
      <path d="M336.73,264.04l.36,5.4h-.36c-.48-1.62-1.18-2.78-2.07-3.49s-1.98-1.07-3.23-1.07c-1.05,0-2.01.27-2.86.8s-1.52,1.39-2.01,2.56-.73,2.63-.73,4.37c0,1.44.23,2.68.69,3.74s1.15,1.86,2.08,2.43,1.98.84,3.17.84c1.03,0,1.94-.22,2.73-.66s1.66-1.32,2.6-2.63l.36.23c-.8,1.41-1.73,2.45-2.79,3.11s-2.32.98-3.79.98c-2.63,0-4.67-.98-6.12-2.93-1.08-1.45-1.62-3.16-1.62-5.13,0-1.59.36-3.04,1.07-4.37s1.69-2.36,2.94-3.09,2.61-1.1,4.08-1.1c1.15,0,2.28.28,3.4.84.33.17.56.26.7.26.21,0,.39-.07.55-.22.2-.21.35-.5.43-.88h.41Z"/>
      <path d="M348.44,269.56v6.5c0,1.24.03,2,.09,2.28s.15.47.28.58.28.16.45.16c.24,0,.52-.07.82-.2l.16.41-3.21,1.32h-.53v-2.27c-.92,1-1.62,1.63-2.11,1.89s-1,.39-1.54.39c-.6,0-1.12-.17-1.56-.52s-.75-.79-.92-1.34-.26-1.32-.26-2.32v-4.79c0-.51-.05-.86-.16-1.05s-.27-.35-.49-.45-.6-.15-1.17-.15v-.43h3.76v7.18c0,1,.17,1.66.52,1.97s.77.47,1.26.47c.34,0,.72-.11,1.14-.32s.93-.61,1.52-1.21v-6.08c0-.61-.11-1.02-.33-1.24s-.69-.33-1.39-.35v-.43h3.66Z"/>
      <path d="M357.97,269.24v3.66h-.39c-.3-1.15-.68-1.93-1.14-2.34s-1.06-.62-1.78-.62c-.55,0-.99.14-1.32.43s-.5.61-.5.96c0,.44.12.81.38,1.12.24.32.73.66,1.48,1.02l1.71.83c1.59.77,2.38,1.79,2.38,3.06,0,.98-.37,1.76-1.11,2.36s-1.56.9-2.48.9c-.66,0-1.41-.12-2.25-.35-.26-.08-.47-.12-.63-.12-.18,0-.32.1-.42.3h-.39v-3.83h.39c.22,1.09.64,1.92,1.25,2.47s1.31.83,2.07.83c.54,0,.98-.16,1.32-.47s.51-.7.51-1.14c0-.54-.19-.99-.57-1.36s-1.13-.83-2.27-1.39-1.88-1.07-2.23-1.52c-.35-.45-.53-1.01-.53-1.69,0-.88.3-1.62.91-2.21s1.39-.89,2.35-.89c.42,0,.93.09,1.54.27.4.12.66.18.8.18.12,0,.22-.03.29-.08s.15-.18.25-.36h.39Z"/>
      <path d="M363.49,266.03v3.53h2.51v.82h-2.51v6.96c0,.7.1,1.16.3,1.41s.46.36.77.36c.26,0,.51-.08.75-.24s.43-.4.56-.71h.46c-.27.77-.66,1.34-1.16,1.73s-1.02.58-1.55.58c-.36,0-.71-.1-1.05-.3s-.6-.48-.76-.86-.25-.94-.25-1.72v-7.22h-1.7v-.39c.43-.17.87-.46,1.32-.87s.85-.9,1.2-1.46c.18-.3.43-.84.75-1.63h.36Z"/>
      <path d="M372.29,269.24c1.62,0,2.93.62,3.91,1.85.84,1.05,1.25,2.27,1.25,3.63,0,.96-.23,1.93-.69,2.92s-1.1,1.73-1.9,2.23-1.71.75-2.7.75c-1.62,0-2.9-.64-3.86-1.93-.8-1.09-1.21-2.3-1.21-3.66,0-.98.24-1.96.73-2.94s1.13-1.69,1.93-2.16,1.64-.7,2.53-.7ZM371.93,270c-.41,0-.83.12-1.25.37s-.76.68-1.01,1.29-.39,1.41-.39,2.38c0,1.56.31,2.91.93,4.04s1.44,1.7,2.46,1.7c.76,0,1.38-.31,1.88-.94s.74-1.7.74-3.22c0-1.91-.41-3.41-1.23-4.5-.55-.75-1.26-1.12-2.12-1.12Z"/>
      <path d="M382.23,271.52c.78-.78,1.24-1.23,1.38-1.35.35-.3.73-.53,1.14-.69s.81-.25,1.21-.25c.67,0,1.25.2,1.73.59s.81.96.97,1.7c.8-.94,1.48-1.55,2.04-1.85s1.12-.44,1.71-.44,1.08.15,1.52.44.79.77,1.05,1.44c.17.45.26,1.16.26,2.13v4.62c0,.67.05,1.13.15,1.38.08.17.22.32.43.44s.55.18,1.03.18v.42h-5.3v-.42h.22c.46,0,.82-.09,1.08-.27.18-.12.31-.32.39-.6.03-.13.05-.51.05-1.14v-4.62c0-.88-.11-1.49-.32-1.85-.3-.5-.79-.75-1.46-.75-.41,0-.83.1-1.25.31s-.92.59-1.52,1.15l-.02.13.02.5v5.12c0,.73.04,1.19.12,1.37s.24.33.46.45.61.18,1.16.18v.42h-5.43v-.42c.59,0,1-.07,1.22-.21s.38-.35.46-.63c.04-.13.06-.52.06-1.16v-4.62c0-.88-.13-1.5-.39-1.89-.34-.5-.82-.75-1.44-.75-.42,0-.84.11-1.25.34-.65.34-1.15.73-1.5,1.16v5.75c0,.7.05,1.16.15,1.37s.24.37.43.47.58.16,1.17.16v.42h-5.31v-.42c.49,0,.84-.05,1.03-.16s.34-.27.45-.5.15-.68.15-1.34v-4.1c0-1.18-.04-1.94-.11-2.29-.05-.26-.14-.44-.26-.53s-.28-.15-.48-.15c-.22,0-.48.06-.79.18l-.18-.42,3.23-1.31h.5v2.29Z"/>
      <path d="M413.96,264.04v5.5h-.43c-.14-1.05-.39-1.89-.76-2.52s-.88-1.12-1.55-1.49-1.37-.55-2.09-.55c-.81,0-1.48.25-2.02.74s-.8,1.06-.8,1.69c0,.48.17.93.5,1.32.48.59,1.64,1.37,3.46,2.34,1.48.8,2.5,1.41,3.04,1.83s.96.93,1.25,1.51.44,1.18.44,1.82c0,1.2-.47,2.24-1.4,3.11s-2.13,1.31-3.6,1.31c-.46,0-.89-.04-1.3-.11-.24-.04-.74-.18-1.51-.43s-1.24-.37-1.45-.37-.35.06-.46.18-.2.36-.25.73h-.43v-5.45h.43c.2,1.14.48,1.99.82,2.56s.87,1.04,1.58,1.41,1.48.56,2.33.56c.98,0,1.75-.26,2.31-.77s.85-1.12.85-1.83c0-.39-.11-.79-.32-1.18s-.55-.77-1-1.11c-.3-.23-1.14-.73-2.5-1.49s-2.33-1.37-2.9-1.82-1.01-.95-1.31-1.5-.45-1.15-.45-1.8c0-1.14.44-2.12,1.31-2.95s1.99-1.24,3.34-1.24c.84,0,1.74.21,2.68.62.44.2.75.29.93.29.2,0,.37-.06.5-.18s.23-.37.31-.73h.43Z"/>
      <path d="M418.86,273.6c0,1.59.38,2.84,1.16,3.75s1.7,1.36,2.75,1.36c.7,0,1.31-.19,1.83-.58s.96-1.05,1.31-1.99l.36.23c-.16,1.07-.64,2.04-1.43,2.92s-1.78,1.32-2.96,1.32c-1.29,0-2.39-.5-3.31-1.51s-1.38-2.35-1.38-4.05c0-1.84.47-3.27,1.41-4.29s2.12-1.54,3.54-1.54c1.2,0,2.19.4,2.96,1.19s1.16,1.85,1.16,3.18h-7.42ZM418.86,272.92h4.97c-.04-.69-.12-1.17-.25-1.45-.2-.44-.49-.78-.87-1.03s-.79-.38-1.21-.38c-.65,0-1.23.25-1.74.76s-.81,1.21-.9,2.1Z"/>
      <path d="M431.4,263.63v14.24c0,.67.05,1.12.15,1.34s.25.38.45.5.58.17,1.14.17v.42h-5.26v-.42c.49,0,.83-.05,1.01-.15s.32-.27.42-.5.15-.68.15-1.35v-9.75c0-1.21-.03-1.96-.08-2.23s-.14-.47-.26-.57-.28-.15-.46-.15c-.2,0-.46.06-.77.19l-.2-.41,3.2-1.31h.53Z"/>
      <path d="M438.57,270.4v7.05c0,1,.11,1.63.33,1.9.29.34.68.52,1.16.52h.97v.42h-6.41v-.42h.48c.31,0,.6-.08.86-.23s.44-.37.53-.63.15-.78.15-1.55v-7.05h-2.09v-.84h2.09v-.7c0-1.07.17-1.98.52-2.72s.87-1.34,1.58-1.8,1.5-.69,2.38-.69c.82,0,1.57.27,2.26.8.45.35.68.75.68,1.18,0,.23-.1.46-.3.66s-.42.31-.66.31c-.18,0-.37-.06-.57-.19s-.44-.41-.73-.83-.55-.71-.8-.86-.51-.22-.81-.22c-.36,0-.66.1-.91.29s-.43.49-.54.89-.16,1.44-.16,3.11v.77h2.77v.84h-2.77Z"/>
      <path d="M442.59,274.02h6.06v1.77h-6.06v-1.77Z"/>
      <path d="M314.8,309.09l-6.14-13.37v10.62c0,.98.11,1.59.32,1.83.29.33.75.49,1.37.49h.56v.43h-5.53v-.43h.56c.67,0,1.15-.2,1.43-.61.17-.25.26-.82.26-1.71v-10.38c0-.7-.08-1.21-.23-1.52-.11-.23-.31-.42-.6-.57s-.76-.23-1.41-.23v-.43h4.5l5.77,12.43,5.67-12.43h4.5v.43h-.55c-.68,0-1.16.2-1.44.61-.17.25-.26.82-.26,1.71v10.38c0,.98.11,1.59.33,1.83.29.33.75.49,1.37.49h.55v.43h-6.75v-.43h.56c.68,0,1.16-.2,1.43-.61.17-.25.26-.82.26-1.71v-10.62l-6.13,13.37h-.39Z"/>
      <path d="M333.15,307.54c-1.1.85-1.79,1.34-2.07,1.48-.42.2-.87.29-1.35.29-.74,0-1.35-.25-1.83-.76s-.72-1.18-.72-2c0-.52.12-.98.35-1.36.32-.53.88-1.03,1.67-1.5s2.11-1.04,3.96-1.71v-.42c0-1.07-.17-1.8-.51-2.2s-.83-.6-1.48-.6c-.49,0-.88.13-1.17.4-.3.27-.45.57-.45.91l.02.68c0,.36-.09.64-.28.83s-.42.29-.72.29-.53-.1-.71-.3-.28-.48-.28-.83c0-.67.34-1.29,1.03-1.85s1.65-.84,2.89-.84c.95,0,1.73.16,2.34.48.46.24.8.62,1.02,1.14.14.34.21,1.02.21,2.06v3.64c0,1.02.02,1.65.06,1.88s.1.38.19.46.19.12.31.12c.12,0,.23-.03.33-.08.16-.1.48-.39.95-.86v.66c-.88,1.17-1.71,1.76-2.51,1.76-.38,0-.69-.13-.91-.4s-.34-.72-.35-1.36ZM333.15,306.78v-4.09c-1.18.47-1.94.8-2.29,1-.62.34-1.06.7-1.32,1.08s-.4.79-.4,1.23c0,.56.17,1.03.5,1.4s.72.56,1.16.56c.59,0,1.38-.39,2.34-1.17Z"/>
      <path d="M340.86,298.04v2.41c.9-1.61,1.82-2.41,2.77-2.41.43,0,.79.13,1.07.39s.42.56.42.91c0,.3-.1.56-.3.77s-.45.32-.73.32-.58-.13-.92-.4-.59-.4-.76-.4c-.14,0-.29.08-.46.23-.35.32-.71.85-1.09,1.58v5.14c0,.59.07,1.04.22,1.35.1.21.28.39.54.53s.63.21,1.11.21v.42h-5.5v-.42c.55,0,.95-.09,1.22-.26.2-.12.33-.32.41-.6.04-.13.06-.51.06-1.14v-4.16c0-1.25-.03-1.99-.08-2.23s-.14-.41-.28-.52-.31-.16-.51-.16c-.24,0-.52.06-.82.18l-.12-.42,3.25-1.31h.49Z"/>
      <path d="M348.89,292.43v10.68l2.73-2.48c.58-.53.91-.87,1.01-1.01.06-.09.09-.19.09-.28,0-.16-.06-.29-.19-.4s-.34-.18-.64-.19v-.38h4.66v.38c-.64.02-1.17.11-1.6.29s-.89.5-1.4.96l-2.75,2.54,2.75,3.48c.77.96,1.28,1.57,1.55,1.83.38.37.7.61.98.71.2.08.54.12,1.02.12v.42h-5.21v-.42c.3,0,.5-.05.6-.13s.16-.2.16-.35c0-.18-.16-.47-.47-.87l-3.29-4.21v3.56c0,.7.05,1.15.15,1.37s.24.38.42.47.57.14,1.17.15v.42h-5.46v-.42c.55,0,.96-.07,1.23-.2.16-.09.29-.22.38-.4.12-.26.18-.7.18-1.34v-9.77c0-1.24-.03-2-.08-2.28s-.14-.47-.27-.57-.29-.16-.49-.16c-.16,0-.41.07-.74.2l-.2-.41,3.19-1.31h.54Z"/>
      <path d="M359.52,302.4c0,1.59.38,2.84,1.16,3.75s1.7,1.36,2.75,1.36c.7,0,1.31-.19,1.83-.58s.96-1.05,1.31-1.99l.36.23c-.16,1.07-.64,2.04-1.43,2.92s-1.78,1.32-2.96,1.32c-1.29,0-2.39-.5-3.31-1.51s-1.38-2.35-1.38-4.05c0-1.84.47-3.27,1.41-4.29s2.12-1.54,3.54-1.54c1.2,0,2.19.4,2.96,1.19s1.16,1.85,1.16,3.18h-7.42ZM359.52,301.72h4.97c-.04-.69-.12-1.17-.25-1.45-.2-.44-.49-.78-.87-1.03s-.79-.38-1.21-.38c-.65,0-1.23.25-1.74.76s-.81,1.21-.9,2.1Z"/>
      <path d="M371.51,298.04v2.41c.9-1.61,1.82-2.41,2.77-2.41.43,0,.79.13,1.07.39s.42.56.42.91c0,.3-.1.56-.3.77s-.45.32-.73.32-.58-.13-.92-.4-.59-.4-.76-.4c-.14,0-.29.08-.46.23-.35.32-.71.85-1.09,1.58v5.14c0,.59.07,1.04.22,1.35.1.21.28.39.54.53s.63.21,1.11.21v.42h-5.5v-.42c.55,0,.95-.09,1.22-.26.2-.12.33-.32.41-.6.04-.13.06-.51.06-1.14v-4.16c0-1.25-.03-1.99-.08-2.23s-.14-.41-.28-.52-.31-.16-.51-.16c-.24,0-.52.06-.82.18l-.12-.42,3.25-1.31h.49Z"/>
      <path d="M386.62,294.07v6.28h3.49c.91,0,1.51-.14,1.82-.41.41-.36.63-.99.68-1.9h.43v5.53h-.43c-.11-.77-.22-1.27-.33-1.49-.14-.27-.37-.49-.69-.64s-.81-.23-1.48-.23h-3.49v5.24c0,.7.03,1.13.09,1.28s.17.27.33.36.45.13.89.13h2.7c.9,0,1.55-.06,1.96-.19s.8-.37,1.17-.74c.48-.48.98-1.21,1.49-2.19h.47l-1.37,3.98h-12.25v-.43h.56c.38,0,.73-.09,1.07-.27.25-.12.42-.31.51-.56s.13-.76.13-1.54v-10.32c0-1.01-.1-1.63-.3-1.86-.28-.31-.75-.47-1.41-.47h-.56v-.43h12.25l.18,3.48h-.46c-.16-.84-.35-1.41-.54-1.72s-.49-.55-.88-.71c-.31-.12-.86-.18-1.65-.18h-4.36Z"/>
      <path d="M396.58,298.36h5.05v.43c-.32,0-.54.05-.67.16s-.19.25-.19.43.14.48.41.87c.09.12.21.32.39.59l.76,1.22.88-1.22c.56-.77.84-1.26.84-1.46,0-.16-.07-.3-.2-.42s-.35-.17-.64-.17v-.43h3.63v.43c-.38.02-.71.13-1,.32-.38.27-.91.84-1.57,1.73l-1.46,1.96,2.67,3.84c.66.95,1.12,1.51,1.41,1.71s.64.3,1.09.32v.42h-5.06v-.42c.35,0,.62-.08.82-.23.15-.11.22-.25.22-.43s-.25-.63-.75-1.36l-1.57-2.3-1.72,2.3c-.53.71-.8,1.13-.8,1.27,0,.19.09.36.26.51s.44.24.79.25v.42h-3.5v-.42c.28-.04.53-.14.74-.29.3-.23.8-.8,1.5-1.73l2.25-2.99-2.04-2.95c-.58-.84-1.03-1.37-1.34-1.59s-.71-.32-1.19-.32v-.43Z"/>
      <path d="M415.1,307.54c-1.1.85-1.79,1.34-2.07,1.48-.42.2-.87.29-1.35.29-.74,0-1.35-.25-1.83-.76s-.72-1.18-.72-2c0-.52.12-.98.35-1.36.32-.53.88-1.03,1.67-1.5s2.11-1.04,3.96-1.71v-.42c0-1.07-.17-1.8-.51-2.2s-.83-.6-1.48-.6c-.49,0-.88.13-1.17.4-.3.27-.45.57-.45.91l.02.68c0,.36-.09.64-.28.83s-.42.29-.72.29-.53-.1-.71-.3-.28-.48-.28-.83c0-.67.34-1.29,1.03-1.85s1.65-.84,2.89-.84c.95,0,1.73.16,2.34.48.46.24.8.62,1.02,1.14.14.34.21,1.02.21,2.06v3.64c0,1.02.02,1.65.06,1.88s.1.38.19.46.19.12.31.12c.12,0,.23-.03.33-.08.16-.1.48-.39.95-.86v.66c-.88,1.17-1.71,1.76-2.51,1.76-.38,0-.69-.13-.91-.4s-.34-.72-.35-1.36ZM415.1,306.78v-4.09c-1.18.47-1.94.8-2.29,1-.62.34-1.06.7-1.32,1.08s-.4.79-.4,1.23c0,.56.17,1.03.5,1.4s.72.56,1.16.56c.59,0,1.38-.39,2.34-1.17Z"/>
      <path d="M422.86,300.32c.78-.78,1.24-1.23,1.38-1.35.35-.3.73-.53,1.14-.69s.81-.25,1.21-.25c.67,0,1.25.2,1.73.59s.81.96.97,1.7c.8-.94,1.48-1.55,2.04-1.85s1.12-.44,1.71-.44,1.08.15,1.52.44.79.77,1.05,1.44c.17.45.26,1.16.26,2.13v4.62c0,.67.05,1.13.15,1.38.08.17.22.32.43.44s.55.18,1.03.18v.42h-5.3v-.42h.22c.46,0,.82-.09,1.08-.27.18-.12.31-.32.39-.6.03-.13.05-.51.05-1.14v-4.62c0-.88-.11-1.49-.32-1.85-.3-.5-.79-.75-1.46-.75-.41,0-.83.1-1.25.31s-.92.59-1.52,1.15l-.02.13.02.5v5.12c0,.73.04,1.19.12,1.37s.24.33.46.45.61.18,1.16.18v.42h-5.43v-.42c.59,0,1-.07,1.22-.21s.38-.35.46-.63c.04-.13.06-.52.06-1.16v-4.62c0-.88-.13-1.5-.39-1.89-.34-.5-.82-.75-1.44-.75-.42,0-.84.11-1.25.34-.65.34-1.15.73-1.5,1.16v5.75c0,.7.05,1.16.15,1.37s.24.37.43.47.58.16,1.17.16v.42h-5.31v-.42c.49,0,.84-.05,1.03-.16s.34-.27.45-.5.15-.68.15-1.34v-4.1c0-1.18-.04-1.94-.11-2.29-.05-.26-.14-.44-.26-.53s-.28-.15-.48-.15c-.22,0-.48.06-.79.18l-.18-.42,3.23-1.31h.5v2.29Z"/>
      <path d="M437.57,299.42l3.3-1.34h.45v2.51c.55-.95,1.11-1.61,1.67-1.99s1.15-.57,1.76-.57c1.08,0,1.98.42,2.7,1.27.88,1.03,1.32,2.38,1.32,4.03,0,1.85-.53,3.38-1.59,4.59-.88.99-1.98,1.49-3.3,1.49-.58,0-1.08-.08-1.5-.25-.31-.12-.66-.35-1.05-.7v3.27c0,.73.04,1.2.13,1.4s.25.36.47.47.63.18,1.21.18v.43h-5.62v-.43h.29c.43,0,.8-.07,1.1-.25.15-.09.26-.22.35-.42s.12-.68.12-1.46v-10.15c0-.7-.03-1.14-.09-1.32s-.16-.33-.3-.42-.32-.14-.56-.14c-.19,0-.43.05-.71.16l-.14-.38ZM441.32,301.29v4.01c0,.87.04,1.44.11,1.71.11.45.38.85.8,1.2s.96.52,1.61.52c.78,0,1.41-.3,1.9-.91.63-.8.95-1.92.95-3.36,0-1.64-.36-2.9-1.08-3.79-.5-.61-1.09-.91-1.78-.91-.38,0-.75.09-1.11.28-.28.14-.75.56-1.39,1.27Z"/>
      <path d="M454.03,292.43v14.24c0,.67.05,1.12.15,1.34s.25.38.45.5.58.17,1.14.17v.42h-5.26v-.42c.49,0,.83-.05,1.01-.15s.32-.27.42-.5.15-.68.15-1.35v-9.75c0-1.21-.03-1.96-.08-2.23s-.14-.47-.26-.57-.28-.15-.46-.15c-.2,0-.46.06-.77.19l-.2-.41,3.2-1.31h.53Z"/>
      <path d="M458.81,302.4c0,1.59.38,2.84,1.16,3.75s1.7,1.36,2.75,1.36c.7,0,1.31-.19,1.83-.58s.96-1.05,1.31-1.99l.36.23c-.16,1.07-.64,2.04-1.43,2.92s-1.78,1.32-2.96,1.32c-1.29,0-2.39-.5-3.31-1.51s-1.38-2.35-1.38-4.05c0-1.84.47-3.27,1.41-4.29s2.12-1.54,3.54-1.54c1.2,0,2.19.4,2.96,1.19s1.16,1.85,1.16,3.18h-7.42ZM458.81,301.72h4.97c-.04-.69-.12-1.17-.25-1.45-.2-.44-.49-.78-.87-1.03s-.79-.38-1.21-.38c-.65,0-1.23.25-1.74.76s-.81,1.21-.9,2.1Z"/>
    </g>
  </g>
</svg>