<?xml version="1.0" encoding="UTF-8"?>
<svg id="Layer_1" data-name="Layer 1" xmlns="http://www.w3.org/2000/svg" viewBox="0 0 512 512">
  <defs>
    <style>
      .cls-1 {
        fill: #7e7e7e;
      }

      .cls-2 {
        fill: #fff;
      }
    </style>
  </defs>
  <rect class="cls-1" width="512" height="512"/>
  <path class="cls-2" d="M442.57,234.43h-134.96l95.43-95.43c2.99-2.99,2.99-7.84,0-10.83l-20.04-20.04c-2.99-2.99-7.84-2.99-10.83,0l-95.43,95.43V68.6c0-4.23-3.43-7.66-7.66-7.66h-28.34c-4.23,0-7.66,3.43-7.66,7.66v134.96l-95.43-95.43c-2.99-2.99-7.84-2.99-10.83,0l-20.04,20.04c-2.99,2.99-2.99,7.84,0,10.83l95.43,95.43H67.26c-4.23,0-7.66,3.43-7.66,7.66v28.34c0,4.23,3.43,7.66,7.66,7.66h134.96l-95.43,95.43c-2.99,2.99-2.99,7.84,0,10.83l20.04,20.04c2.99,2.99,7.84,2.99,10.83,0l95.43-95.43v134.96c0,4.23,3.43,7.66,7.66,7.66h28.34c4.23,0,7.66-3.43,7.66-7.66v-134.96l95.43,95.43c2.99,2.99,7.84,2.99,10.83,0l20.04-20.04c2.99-2.99,2.99-7.84,0-10.83l-95.43-95.43h134.96c4.23,0,7.66-3.43,7.66-7.66v-28.34c0-4.23-3.43-7.66-7.66-7.66Z"/>
</svg>