<?xml version="1.0" encoding="UTF-8"?>
<svg id="Layer_1" data-name="Layer 1" xmlns="http://www.w3.org/2000/svg" viewBox="0 0 512 512">
  <defs>
    <style>
      .cls-1 {
        fill: #7e7e7e;
      }

      .cls-2 {
        fill: #fff;
      }
    </style>
  </defs>
  <rect class="cls-1" width="512" height="512"/>
  <g>
    <path class="cls-2" d="M88.11,57.72c22.45,0,40.72,18.27,40.72,40.72s-18.27,40.72-40.72,40.72-40.72-18.27-40.72-40.72,18.27-40.72,40.72-40.72M88.11,25.56C47.86,25.56,15.23,58.19,15.23,98.44s32.63,72.88,72.88,72.88,72.88-32.63,72.88-72.88S128.36,25.56,88.11,25.56h0Z"/>
    <path class="cls-2" d="M421.5,383.72c22.45,0,40.72,18.27,40.72,40.72s-18.27,40.72-40.72,40.72-40.72-18.27-40.72-40.72,18.27-40.72,40.72-40.72M421.5,351.56c-40.25,0-72.88,32.63-72.88,72.88s32.63,72.88,72.88,72.88,72.88-32.63,72.88-72.88-32.63-72.88-72.88-72.88h0Z"/>
    <path class="cls-2" d="M369.72,359.37h0c-5.53,5.71-14.66,5.87-20.39.35l-196.29-188.87c-5.73-5.51-5.89-14.61-.36-20.32h0c5.53-5.71,14.66-5.87,20.39-.35l196.29,188.87c5.73,5.51,5.89,14.61.36,20.32Z"/>
  </g>
</svg>