<?xml version="1.0" encoding="UTF-8"?>
<svg id="Layer_1" data-name="Layer 1" xmlns="http://www.w3.org/2000/svg" viewBox="0 0 512 512">
  <defs>
    <style>
      .cls-1 {
        fill: #fff;
      }
    </style>
  </defs>
  <rect width="512" height="512"/>
  <g>
    <path class="cls-1" d="M255.49,125.43l49.53,117.74-49.53-29.23-49.53,29.23,49.53-117.74M255.49,81.59l-15.67,37.25-49.53,117.74-19.91,47.33,44.22-26.1,40.89-24.13,40.89,24.13,44.22,26.1-19.91-47.33-49.53-117.74-15.67-37.25h0Z"/>
    <path class="cls-1" d="M456.26,330.15h-9.36c-2.87,0-5.19,2.32-5.19,5.19v75.32h-26.55v-32.94c0-2.87-2.32-5.19-5.19-5.19h-9.36c-2.87,0-5.19,2.32-5.19,5.19v32.94h-30.13v-32.94c0-2.87-2.32-5.19-5.19-5.19h-9.36c-2.87,0-5.19,2.32-5.19,5.19v32.94h-31.49v-32.94c0-2.87-2.32-5.19-5.19-5.19h-9.36c-2.87,0-5.19,2.32-5.19,5.19v32.94h-28.26v-75.32c0-2.87-2.32-5.19-5.19-5.19h-9.36c-2.87,0-5.19,2.32-5.19,5.19v75.32h-29.79v-32.94c0-2.87-2.32-5.19-5.19-5.19h-9.36c-2.87,0-5.19,2.32-5.19,5.19v32.94h-30.13v-32.94c0-2.87-2.32-5.19-5.19-5.19h-9.36c-2.87,0-5.19,2.32-5.19,5.19v32.94h-31.49v-32.94c0-2.87-2.32-5.19-5.19-5.19h-9.36c-2.87,0-5.19,2.32-5.19,5.19v32.94h-25.36v-75.32c0-2.87-2.32-5.19-5.19-5.19h-9.36c-2.87,0-5.19,2.32-5.19,5.19v89.87c0,2.87,2.32,5.19,5.19,5.19h400.51c2.87,0,5.19-2.32,5.19-5.19v-89.87c0-2.87-2.32-5.19-5.19-5.19Z"/>
  </g>
</svg>