<?xml version="1.0" encoding="UTF-8"?>
<svg id="Layer_1" data-name="Layer 1" xmlns="http://www.w3.org/2000/svg" viewBox="0 0 504.98 98.05">
  <defs>
    <style>
      .cls-1 {
        fill: #fff;
      }

      .cls-2 {
        fill: #bcac74;
      }

      .cls-3 {
        fill: #d9d5bb;
      }

      .cls-4 {
        fill: #7f7f7f;
      }
    </style>
  </defs>
  <g id="Range_Toolbar">
    <g>
      <rect class="cls-4" x="97.66" y="0" width="401.87" height="97.7"/>
      <path d="M15.32,0C6.86,0,0,6.86,0,15.32v67.06c0,8.46,6.86,15.32,15.32,15.32h82.34V0H15.32Z"/>
      <path class="cls-2" d="M500.66.35h-1.12v97.35h0v.35h1.12c2.39,0,4.32-1.94,4.32-4.32V4.67c0-2.39-1.94-4.32-4.32-4.32Z"/>
    </g>
    <g>
      <circle class="cls-1" cx="145.73" cy="49.2" r="2.87"/>
      <path class="cls-1" d="M145.73,33.92c8.44,0,15.28,6.84,15.28,15.28s-6.84,15.28-15.28,15.28-15.28-6.84-15.28-15.28,6.84-15.28,15.28-15.28M145.73,30.53c-10.3,0-18.68,8.38-18.68,18.68s8.38,18.68,18.68,18.68,18.68-8.38,18.68-18.68-8.38-18.68-18.68-18.68h0Z"/>
      <path class="cls-1" d="M145.73,22.76c14.6,0,26.44,11.84,26.44,26.44s-11.84,26.44-26.44,26.44-26.44-11.84-26.44-26.44,11.84-26.44,26.44-26.44M145.73,19.36c-16.45,0-29.84,13.38-29.84,29.84s13.39,29.84,29.84,29.84,29.84-13.39,29.84-29.84-13.39-29.84-29.84-29.84h0Z"/>
    </g>
    <g>
      <path class="cls-2" d="M49.47,36.35l3.91,9.29-3.91-2.31-3.91,2.31,3.91-9.29M49.47,32.89l-1.24,2.94-3.91,9.29-1.57,3.73,3.49-2.06,3.23-1.9,3.23,1.9,3.49,2.06-1.57-3.73-3.91-9.29-1.24-2.94h0Z"/>
      <path class="cls-2" d="M65.31,52.5h-.74c-.23,0-.41.18-.41.41v5.94h-2.09v-2.6c0-.23-.18-.41-.41-.41h-.74c-.23,0-.41.18-.41.41v2.6h-2.38v-2.6c0-.23-.18-.41-.41-.41h-.74c-.23,0-.41.18-.41.41v2.6h-2.48v-2.6c0-.23-.18-.41-.41-.41h-.74c-.23,0-.41.18-.41.41v2.6h-2.23v-5.94c0-.23-.18-.41-.41-.41h-.74c-.23,0-.41.18-.41.41v5.94h-2.35v-2.6c0-.23-.18-.41-.41-.41h-.74c-.23,0-.41.18-.41.41v2.6h-2.38v-2.6c0-.23-.18-.41-.41-.41h-.74c-.23,0-.41.18-.41.41v2.6h-2.48v-2.6c0-.23-.18-.41-.41-.41h-.74c-.23,0-.41.18-.41.41v2.6h-2v-5.94c0-.23-.18-.41-.41-.41h-.74c-.23,0-.41.18-.41.41v7.09c0,.23.18.41.41.41h31.6c.23,0,.41-.18.41-.41v-7.09c0-.23-.18-.41-.41-.41Z"/>
    </g>
    <rect class="cls-3" x="64.48" y="5.57" width="27.7" height="28.6"/>
    <path d="M82.26,19.87l3.92-3.92c1.08-1.08,1.08-2.84,0-3.93s-2.84-1.08-3.93,0l-3.92,3.92-3.92-3.92c-1.08-1.08-2.84-1.08-3.93,0s-1.08,2.84,0,3.93l3.92,3.92-3.92,3.92c-1.08,1.08-1.08,2.84,0,3.93s2.84,1.08,3.93,0l3.92-3.92,3.92,3.92c1.08,1.08,2.84,1.08,3.93,0s1.08-2.84,0-3.93l-3.92-3.92Z"/>
    <path class="cls-1" d="M469.56,44.76h-23.97l16.95-16.95c.53-.53.53-1.39,0-1.92l-3.56-3.56c-.53-.53-1.39-.53-1.92,0l-16.95,16.95V15.31c0-.75-.61-1.36-1.36-1.36h-5.03c-.75,0-1.36.61-1.36,1.36v23.97l-16.95-16.95c-.53-.53-1.39-.53-1.92,0l-3.56,3.56c-.53.53-.53,1.39,0,1.92l16.95,16.95h-23.97c-.75,0-1.36.61-1.36,1.36v5.03c0,.75.61,1.36,1.36,1.36h23.97l-16.95,16.95c-.53.53-.53,1.39,0,1.92l3.56,3.56c.53.53,1.39.53,1.92,0l16.95-16.95v23.97c0,.75.61,1.36,1.36,1.36h5.03c.75,0,1.36-.61,1.36-1.36v-23.97l16.95,16.95c.53.53,1.39.53,1.92,0l3.56-3.56c.53-.53.53-1.39,0-1.92l-16.95-16.95h23.97c.75,0,1.36-.61,1.36-1.36v-5.03c0-.75-.61-1.36-1.36-1.36Z"/>
    <g>
      <rect class="cls-1" x="232.81" y="33" width="3.26" height="10.88" rx="1.63" ry="1.63" transform="translate(41.48 177.03) rotate(-45)"/>
      <rect class="cls-1" x="242.66" y="42.86" width="3.26" height="10.88" rx="1.63" ry="1.63" transform="translate(37.4 186.88) rotate(-45)"/>
      <rect class="cls-1" x="252.41" y="52.61" width="3.26" height="10.88" rx="1.63" ry="1.63" transform="translate(33.36 196.64) rotate(-45)"/>
      <g>
        <path class="cls-1" d="M222.12,22.35c2.9,0,5.25,2.36,5.25,5.25s-2.36,5.25-5.25,5.25-5.25-2.36-5.25-5.25,2.36-5.25,5.25-5.25M222.12,18.2c-5.19,0-9.4,4.21-9.4,9.4s4.21,9.4,9.4,9.4,9.4-4.21,9.4-9.4-4.21-9.4-9.4-9.4h0Z"/>
        <path class="cls-1" d="M265.14,64.41c2.9,0,5.25,2.36,5.25,5.25s-2.36,5.25-5.25,5.25-5.25-2.36-5.25-5.25,2.36-5.25,5.25-5.25M265.14,60.26c-5.19,0-9.4,4.21-9.4,9.4s4.21,9.4,9.4,9.4,9.4-4.21,9.4-9.4-4.21-9.4-9.4-9.4h0Z"/>
      </g>
    </g>
    <g>
      <path class="cls-1" d="M318.01,23.49c2.88,0,5.23,2.35,5.23,5.23s-2.35,5.23-5.23,5.23-5.23-2.35-5.23-5.23,2.35-5.23,5.23-5.23M318.01,19.36c-5.17,0-9.36,4.19-9.36,9.36s4.19,9.36,9.36,9.36,9.36-4.19,9.36-9.36-4.19-9.36-9.36-9.36h0Z"/>
      <path class="cls-1" d="M360.84,65.37c2.88,0,5.23,2.35,5.23,5.23s-2.35,5.23-5.23,5.23-5.23-2.35-5.23-5.23,2.35-5.23,5.23-5.23M360.84,61.24c-5.17,0-9.36,4.19-9.36,9.36s4.19,9.36,9.36,9.36,9.36-4.19,9.36-9.36-4.19-9.36-9.36-9.36h0Z"/>
      <path class="cls-1" d="M354.19,62.24h0c-.71.73-1.88.75-2.62.04l-25.21-24.26c-.74-.71-.76-1.88-.05-2.61h0c.71-.73,1.88-.75,2.62-.04l25.21,24.26c.74.71.76,1.88.05,2.61Z"/>
    </g>
  </g>
</svg>