<?xml version="1.0" encoding="UTF-8"?>
<svg id="Layer_1" data-name="Layer 1" xmlns="http://www.w3.org/2000/svg" viewBox="0 0 512 512">
  <defs>
    <style>
      .cls-1 {
        fill: #7e7e7e;
      }

      .cls-2 {
        fill: #fff;
      }
    </style>
  </defs>
  <rect class="cls-1" width="512" height="512"/>
  <g>
    <circle class="cls-2" cx="256" cy="256" r="22.73"/>
    <path class="cls-2" d="M256,135.07c66.79,0,120.93,54.14,120.93,120.93s-54.14,120.93-120.93,120.93-120.93-54.14-120.93-120.93,54.14-120.93,120.93-120.93M256,108.19c-81.5,0-147.81,66.31-147.81,147.81s66.31,147.81,147.81,147.81,147.81-66.31,147.81-147.81-66.31-147.81-147.81-147.81h0Z"/>
    <path class="cls-2" d="M256,46.73c115.58,0,209.27,93.7,209.27,209.27s-93.7,209.27-209.27,209.27S46.73,371.58,46.73,256,140.42,46.73,256,46.73M256,19.85C125.79,19.85,19.85,125.79,19.85,256s105.94,236.15,236.15,236.15,236.15-105.94,236.15-236.15S386.21,19.85,256,19.85h0Z"/>
  </g>
</svg>