<?xml version="1.0" encoding="UTF-8"?>
<svg id="Layer_1" data-name="Layer 1" xmlns="http://www.w3.org/2000/svg" viewBox="0 0 512 512">
  <defs>
    <style>
      .cls-1 {
        fill: #fff;
      }
    </style>
  </defs>
  <rect width="512" height="512"/>
  <g>
    <path class="cls-1" d="M277.6,49c3.12,0,5.69,2.32,6.1,5.32l.06.84v28.11s76.8,0,76.8,0c1.51,0,2.96.55,4.07,1.54l.63.64,28.57,33.8c1.97,2.33,1.93,5.76-.09,8.05l-28.57,32.4c-1.17,1.33-2.85,2.09-4.62,2.09h-76.8s0,22.42,0,22.42h105.36c5.01,0,7.81,5.6,5.14,9.57l-.53.68-25.04,28.25,25.14,29.92c3.17,3.77.83,9.41-3.82,10.06l-.9.06h-105.36s0,78.83,0,78.83c0,3.12-2.32,5.69-5.32,6.1l-.84.06h-43.2c-3.12,0-5.69-2.32-6.1-5.32l-.06-.84v-78.83s-76.8,0-76.8,0c-1.47,0-2.89-.53-4-1.47l-.63-.62-28.56-32.41c-1.79-2.04-2.02-4.97-.67-7.23l.58-.81,28.56-33.8c.98-1.15,2.33-1.9,3.81-2.12l.9-.07h76.79s0-22.43,0-22.43h-105.35c-4.93,0-7.74-5.41-5.25-9.39l.53-.73,25.14-29.92-25.04-28.24c-3.33-3.75-1-9.55,3.75-10.19l.86-.06h105.35s0-28.12,0-28.12c0-3.12,2.32-5.69,5.32-6.1l.84-.06h43.2ZM271.43,161.79h-30.88v94.71s0,.09,0,.09v.06s0,78.76,0,78.76h30.88v-173.62ZM228.24,196.53h-73.94l-23.29,27.56,23.2,26.33h74.02v-53.89ZM375.42,196.53h-91.67v53.89h92.12l-20.04-23.86c-1.75-2.08-1.9-5.01-.5-7.25l.6-.8,19.48-21.99ZM357.68,95.59h-221.11l19.48,21.98c1.8,2.03,2.04,4.96.69,7.23l-.58.82-20.05,23.86h221.65l23.21-26.32-23.3-27.56ZM271.43,61.31h-30.88v21.96s30.88,0,30.88,0v-21.96Z"/>
    <g>
      <path class="cls-1" d="M148.95,436.68c2.76,1.9,5.31,3.3,7.65,4.18l-1.75,4.15c-3.23-1.17-6.46-3.01-9.67-5.53-3.34,1.86-7.02,2.79-11.05,2.79s-7.77-.98-11.09-2.95-5.87-4.73-7.66-8.29-2.69-7.57-2.69-12.04.9-8.49,2.7-12.13,4.37-6.42,7.69-8.32,7.05-2.86,11.16-2.86,7.9.99,11.24,2.96,5.88,4.74,7.63,8.29,2.63,7.56,2.63,12.02c0,3.71-.56,7.04-1.69,10s-2.83,5.53-5.1,7.72ZM135.84,429.06c3.44.96,6.27,2.4,8.51,4.3,3.5-3.19,5.25-7.99,5.25-14.4,0-3.64-.62-6.83-1.86-9.55s-3.05-4.84-5.44-6.34-5.06-2.26-8.03-2.26c-4.44,0-8.13,1.52-11.05,4.56s-4.39,7.58-4.39,13.62,1.45,10.35,4.35,13.48,6.6,4.7,11.1,4.7c2.13,0,4.14-.4,6.02-1.2-1.86-1.21-3.83-2.07-5.9-2.58l1.44-4.33Z"/>
      <path class="cls-1" d="M184.42,441.5v-4.79c-2.54,3.68-5.99,5.53-10.35,5.53-1.92,0-3.72-.37-5.39-1.11s-2.91-1.66-3.72-2.78-1.38-2.48-1.7-4.1c-.23-1.08-.34-2.8-.34-5.16v-20.21h5.53v18.09c0,2.89.11,4.83.34,5.83.35,1.45,1.08,2.59,2.21,3.42s2.52,1.24,4.18,1.24,3.21-.42,4.67-1.27,2.48-2.01,3.09-3.47.91-3.59.91-6.37v-17.47h5.53v32.61h-4.94Z"/>
      <path class="cls-1" d="M198.06,402.84v-6.36h5.53v6.36h-5.53ZM198.06,441.5v-32.61h5.53v32.61h-5.53Z"/>
      <path class="cls-1" d="M233.28,429.55l5.44.71c-.59,3.75-2.11,6.68-4.56,8.8s-5.45,3.18-9.01,3.18c-4.46,0-8.05-1.46-10.76-4.38s-4.07-7.1-4.07-12.54c0-3.52.58-6.6,1.75-9.24s2.94-4.62,5.33-5.94,4.98-1.98,7.78-1.98c3.54,0,6.44.9,8.69,2.69s3.7,4.33,4.33,7.63l-5.37.83c-.51-2.19-1.42-3.84-2.72-4.94s-2.87-1.66-4.71-1.66c-2.78,0-5.05,1-6.79,2.99s-2.61,5.15-2.61,9.47.84,7.56,2.52,9.55,3.87,2.98,6.57,2.98c2.17,0,3.98-.67,5.44-2s2.37-3.38,2.76-6.14Z"/>
      <path class="cls-1" d="M243.47,441.5v-45.02h5.53v25.67l13.08-13.27h7.15l-12.47,12.1,13.73,20.51h-6.82l-10.78-16.67-3.9,3.75v12.93h-5.53Z"/>
      <path class="cls-1" d="M293,441.5v-45.02h6.11l23.64,35.34v-35.34h5.71v45.02h-6.11l-23.64-35.37v35.37h-5.71Z"/>
      <path class="cls-1" d="M359.05,437.48c-2.05,1.74-4.02,2.97-5.91,3.68s-3.93,1.07-6.1,1.07c-3.58,0-6.34-.88-8.26-2.63s-2.89-3.99-2.89-6.71c0-1.6.36-3.06,1.09-4.38s1.68-2.38,2.86-3.18,2.5-1.4,3.98-1.81c1.08-.29,2.72-.56,4.91-.83,4.46-.53,7.75-1.17,9.86-1.9.02-.76.03-1.24.03-1.44,0-2.25-.52-3.84-1.57-4.76-1.41-1.25-3.51-1.87-6.29-1.87-2.6,0-4.52.46-5.76,1.37s-2.15,2.52-2.75,4.84l-5.4-.74c.49-2.31,1.3-4.18,2.43-5.6s2.75-2.52,4.88-3.29,4.6-1.15,7.4-1.15,5.05.33,6.79.98,3.02,1.48,3.84,2.47,1.39,2.25,1.72,3.76c.18.94.28,2.64.28,5.1v7.37c0,5.14.12,8.39.35,9.75s.7,2.67,1.4,3.92h-5.77c-.57-1.15-.94-2.49-1.11-4.02ZM358.59,425.13c-2.01.82-5.02,1.51-9.03,2.09-2.27.33-3.88.7-4.82,1.11s-1.67,1.01-2.18,1.8-.77,1.66-.77,2.63c0,1.47.56,2.7,1.67,3.68s2.75,1.47,4.9,1.47,4.02-.47,5.68-1.4,2.88-2.21,3.65-3.82c.59-1.25.89-3.09.89-5.53v-2.03Z"/>
      <path class="cls-1" d="M381.81,441.5l-12.41-32.61h5.83l7,19.53c.76,2.11,1.45,4.3,2.09,6.57.49-1.72,1.18-3.79,2.06-6.2l7.25-19.9h5.68l-12.34,32.61h-5.16Z"/>
    </g>
  </g>
</svg>