<?xml version="1.0" encoding="UTF-8"?>
<svg id="Layer_1" data-name="Layer 1" xmlns="http://www.w3.org/2000/svg" viewBox="0 0 512 512">
  <defs>
    <style>
      .cls-1, .cls-2 {
        fill: #fff;
      }

      .cls-2 {
        fill-rule: evenodd;
      }
    </style>
  </defs>
  <rect width="512" height="512"/>
  <g>
    <path class="cls-2" d="M320.82,93.92c0-28.18,22.84-51.02,51.02-51.02s51.02,22.84,51.02,51.02c0,9.19-4.56,20.53-12.65,34.06-3.06,5.11-6.57,10.44-10.47,15.92-4.86,6.84-10.05,13.58-15.24,19.94-.61.74-1.2,1.46-1.77,2.16l-3.25,3.87-7.64,8.7-5.69-6.44-3.52-4.12-3.45-4.17c-5.19-6.36-10.38-13.09-15.24-19.94-3.89-5.48-7.41-10.81-10.47-15.92-8.09-13.53-12.65-24.86-12.65-34.06ZM407.68,93.92c0-19.8-16.04-35.84-35.84-35.84s-35.84,16.04-35.84,35.84c0,5.68,3.72,14.93,10.5,26.26,2.84,4.74,6.14,9.75,9.82,14.92,4.64,6.54,9.63,13.01,14.62,19.12l.9,1.1,4.65-5.75c2.48-3.14,4.95-6.35,7.34-9.59l3.54-4.89c3.68-5.18,6.98-10.18,9.82-14.92,6.78-11.33,10.5-20.58,10.5-26.26ZM329.55,161.35c4.19,0,7.59,3.4,7.59,7.59,0,3.84-2.86,7.02-6.56,7.52l-1.03.07h-55.67c-6.55,0-11.94,4.98-12.59,11.36l-.07,1.29v5.06c0,6.54,4.98,11.94,11.36,12.59l1.29.07h106.28c15.37,0,27.83,12.46,27.83,27.83s-11.56,26.91-26.14,27.78l-1.7.05h-86.03c-6.55,0-11.94,4.98-12.59,11.36l-.07,1.29v5.06c0,6.54,4.98,11.94,11.36,12.59l1.29.07h55.67c15.37,0,27.83,12.46,27.83,27.83s-11.56,26.91-26.14,27.78l-1.7.05h-156.88c-4.19,0-7.59-3.4-7.59-7.59,0-3.84,2.86-7.02,6.56-7.52l1.03-.07h156.88c6.98,0,12.65-5.67,12.65-12.65,0-6.55-4.98-11.94-11.36-12.59l-1.29-.06h-55.67c-14.8,0-26.91-11.56-27.78-26.14l-.05-1.69v-5.06c0-14.8,11.56-26.91,26.14-27.78l1.7-.05h86.03c6.98,0,12.65-5.67,12.65-12.65,0-6.55-4.98-11.94-11.36-12.59l-1.29-.06h-106.28c-14.8,0-26.91-11.56-27.78-26.14l-.05-1.69v-5.06c0-14.8,11.56-26.91,26.14-27.78l1.7-.05h55.67ZM89.13,240.88c0-34.79,28.21-63.01,63-63.01s63.01,28.21,63.01,63.01c0,11.25-5.7,25.43-15.85,42.39-3.87,6.46-8.32,13.21-13.26,20.16-6.17,8.69-12.76,17.25-19.36,25.33-.58.71-1.14,1.4-1.7,2.07l-4.68,5.58-8.18,9.32-7.12-8.13c-1.24-1.44-2.65-3.1-4.22-4.98l-5.11-6.24c-6.61-8.2-13.1-16.74-19.09-25.31-17.25-24.7-27.44-45.14-27.44-60.19ZM199.95,240.88c0-26.41-21.41-47.82-47.82-47.82s-47.81,21.42-47.81,47.82c0,9.88,7.7,26.19,20.81,45.8l3.89,5.69c5.77,8.26,12.05,16.53,18.46,24.47l4.64,5.68,2.79-3.37c6.39-7.83,12.79-16.13,18.74-24.51,4.72-6.64,8.96-13.07,12.61-19.17,8.83-14.76,13.7-26.86,13.7-34.59ZM152.13,219.85c-12.35,0-22.37,10.02-22.37,22.37s10.02,22.37,22.37,22.37,22.37-10.02,22.37-22.37-10.01-22.37-22.37-22.37ZM152.13,235.04c3.97,0,7.19,3.22,7.19,7.19s-3.21,7.19-7.19,7.19-7.19-3.22-7.19-7.19,3.22-7.19,7.19-7.19ZM371.84,75.81c-10.58,0-19.17,8.58-19.17,19.17s8.59,19.17,19.17,19.17,19.18-8.58,19.18-19.17-8.59-19.17-19.18-19.17ZM371.84,90.99c2.21,0,4,1.79,4,3.99s-1.79,3.99-4,3.99-3.99-1.79-3.99-3.99,1.79-3.99,3.99-3.99Z"/>
    <g>
      <path class="cls-1" d="M146.15,455.04v-51.54h22.85c4.59,0,8.09.46,10.48,1.39s4.3,2.56,5.73,4.9c1.43,2.34,2.14,4.93,2.14,7.77,0,3.66-1.18,6.74-3.55,9.25-2.37,2.51-6.02,4.1-10.97,4.78,1.8.87,3.18,1.72,4.11,2.57,1.99,1.83,3.88,4.11,5.66,6.86l8.96,14.03h-8.58l-6.82-10.72c-1.99-3.09-3.63-5.46-4.92-7.1-1.29-1.64-2.44-2.79-3.46-3.45s-2.06-1.11-3.11-1.37c-.77-.16-2.04-.25-3.8-.25h-7.91v22.89h-6.82ZM152.97,426.24h14.66c3.12,0,5.55-.32,7.31-.97s3.09-1.68,4.01-3.09,1.37-2.96,1.37-4.62c0-2.44-.88-4.44-2.65-6.01-1.77-1.57-4.56-2.36-8.38-2.36h-16.31v17.05Z"/>
      <path class="cls-1" d="M194.88,436.37c0-6.91,1.92-12.04,5.77-15.36,3.21-2.77,7.12-4.15,11.74-4.15,5.13,0,9.33,1.68,12.59,5.04,3.26,3.36,4.89,8.01,4.89,13.94,0,4.8-.72,8.58-2.16,11.34s-3.54,4.89-6.29,6.42c-2.75,1.52-5.76,2.29-9.02,2.29-5.23,0-9.45-1.68-12.67-5.03-3.22-3.35-4.83-8.18-4.83-14.48ZM201.38,436.37c0,4.78,1.04,8.36,3.13,10.74,2.09,2.38,4.71,3.57,7.88,3.57s5.75-1.2,7.84-3.59c2.09-2.39,3.13-6.04,3.13-10.93,0-4.62-1.05-8.12-3.15-10.49-2.1-2.38-4.71-3.57-7.82-3.57s-5.79,1.18-7.88,3.55c-2.09,2.37-3.13,5.94-3.13,10.72Z"/>
      <path class="cls-1" d="M261.75,455.04v-5.48c-2.91,4.22-6.86,6.33-11.85,6.33-2.2,0-4.26-.42-6.17-1.27-1.91-.84-3.33-1.9-4.25-3.18-.93-1.28-1.58-2.84-1.95-4.69-.26-1.24-.39-3.21-.39-5.91v-23.13h6.33v20.71c0,3.3.13,5.53.39,6.68.4,1.66,1.24,2.97,2.53,3.92,1.29.95,2.88,1.42,4.78,1.42s3.68-.49,5.34-1.46,2.84-2.3,3.53-3.97,1.04-4.11,1.04-7.29v-20h6.33v37.34h-5.66Z"/>
      <path class="cls-1" d="M291.14,449.38l.91,5.59c-1.78.38-3.38.56-4.78.56-2.3,0-4.08-.36-5.34-1.09s-2.16-1.68-2.67-2.87-.77-3.67-.77-7.47v-21.48h-4.64v-4.92h4.64v-9.25l6.29-3.8v13.04h6.36v4.92h-6.36v21.83c0,1.8.11,2.96.33,3.48s.59.93,1.09,1.23,1.22.46,2.16.46c.7,0,1.63-.08,2.78-.25Z"/>
      <path class="cls-1" d="M322.88,443.01l6.54.81c-1.03,3.82-2.94,6.79-5.73,8.89s-6.35,3.16-10.69,3.16c-5.46,0-9.79-1.68-12.99-5.04s-4.8-8.08-4.8-14.15,1.62-11.16,4.85-14.62,7.43-5.2,12.59-5.2,9.07,1.7,12.23,5.1,4.75,8.18,4.75,14.34c0,.38-.01.94-.04,1.69h-27.84c.23,4.1,1.39,7.24,3.48,9.42s4.69,3.27,7.8,3.27c2.32,0,4.3-.61,5.94-1.83s2.94-3.16,3.9-5.84ZM302.11,432.78h20.85c-.28-3.14-1.08-5.5-2.39-7.07-2.02-2.44-4.63-3.66-7.84-3.66-2.91,0-5.35.97-7.33,2.92s-3.08,4.55-3.29,7.8Z"/>
      <path class="cls-1" d="M334.84,443.89l6.26-.98c.35,2.51,1.33,4.43,2.94,5.77s3.85,2,6.73,2,5.06-.59,6.47-1.78,2.11-2.57,2.11-4.17c0-1.43-.62-2.55-1.86-3.38-.87-.56-3.02-1.28-6.47-2.14-4.64-1.17-7.86-2.19-9.65-3.04s-3.15-2.04-4.08-3.55-1.39-3.18-1.39-5.01c0-1.66.38-3.21,1.14-4.62s1.8-2.6,3.11-3.53c.98-.73,2.33-1.34,4.03-1.85s3.52-.76,5.47-.76c2.93,0,5.5.42,7.72,1.27s3.85,1.99,4.9,3.43,1.78,3.37,2.18,5.78l-6.19.84c-.28-1.92-1.1-3.42-2.44-4.5s-3.25-1.62-5.71-1.62c-2.91,0-4.98.48-6.22,1.44s-1.86,2.09-1.86,3.38c0,.82.26,1.56.77,2.21.52.68,1.32,1.24,2.43,1.69.63.23,2.5.77,5.59,1.62,4.48,1.2,7.6,2.17,9.37,2.94s3.16,1.87,4.17,3.32,1.51,3.26,1.51,5.41-.62,4.1-1.85,5.96-3.01,3.3-5.33,4.32-4.95,1.53-7.88,1.53c-4.85,0-8.55-1.01-11.09-3.02s-4.17-5-4.87-8.96Z"/>
    </g>
  </g>
</svg>