<?xml version="1.0" encoding="UTF-8"?>
<svg id="Layer_1" data-name="Layer 1" xmlns="http://www.w3.org/2000/svg" xmlns:xlink="http://www.w3.org/1999/xlink" viewBox="0 0 512 512">
  <defs>
    <style>
      .cls-1 {
        fill: #fee362;
        filter: url(#drop-shadow-1);
      }

      .cls-2 {
        fill: #977d64;
      }
    </style>
    <filter id="drop-shadow-1" x="30" y="30" width="472" height="472" filterUnits="userSpaceOnUse">
      <feOffset dx="10" dy="10"/>
      <feGaussianBlur result="blur" stdDeviation="10"/>
      <feFlood flood-color="#000" flood-opacity=".76"/>
      <feComposite in2="blur" operator="in"/>
      <feComposite in="SourceGraphic"/>
    </filter>
  </defs>
  <rect class="cls-2" width="512" height="512"/>
  <path class="cls-1" d="M372.5,72.07s.09.02.13.05l67.25,67.25c.07.07.07.18,0,.25l-116.38,116.38,116.38,116.38c.07.07.07.18,0,.25l-67.25,67.25s-.08.05-.13.05-.09-.02-.13-.05l-116.38-116.38-116.38,116.38s-.08.05-.13.05-.09-.02-.13-.05l-67.25-67.25c-.07-.07-.07-.18,0-.25l116.38-116.38-116.38-116.38c-.07-.07-.07-.18,0-.25l67.25-67.25s.08-.05.13-.05.09.02.13.05l116.38,116.38,116.38-116.38s.08-.05.13-.05M372.5,50.07c-5.92,0-11.49,2.31-15.68,6.5l-100.82,100.82-100.82-100.82c-4.19-4.19-9.76-6.5-15.68-6.5s-11.49,2.31-15.68,6.5L56.57,123.81c-8.64,8.65-8.64,22.71-.01,31.35l100.83,100.83-100.82,100.82c-8.64,8.65-8.64,22.71-.01,31.35l67.26,67.26c4.21,4.2,9.77,6.5,15.68,6.5s11.47-2.3,15.66-6.47l100.84-100.84,100.82,100.82c4.21,4.2,9.77,6.5,15.68,6.5s11.47-2.3,15.66-6.47l67.27-67.27c8.64-8.65,8.64-22.71.01-31.35l-100.83-100.83,100.82-100.82c8.64-8.65,8.64-22.71.01-31.35l-67.26-67.26c-4.19-4.19-9.76-6.5-15.68-6.5h0Z"/>
</svg>