<?xml version="1.0" encoding="UTF-8"?>
<svg id="Layer_1" data-name="Layer 1" xmlns="http://www.w3.org/2000/svg" viewBox="0 0 512 512">
  <defs>
    <style>
      .cls-1 {
        fill: #fff;
        fill-rule: evenodd;
      }
    </style>
  </defs>
  <rect width="512" height="512"/>
  <path class="cls-1" d="M55,255c0-110.45,89.54-200,199.99-200s200.01,89.54,200.01,200-89.54,200-200.01,200S55,365.45,55,255ZM437.37,255c0-100.72-81.65-182.37-182.38-182.37S72.63,154.28,72.63,255s81.65,182.37,182.36,182.37c36.18,0,69.9-10.54,98.26-28.71l-3.59-4.05c-3.23-3.64-2.9-9.21.74-12.44,3.31-2.94,8.21-2.93,11.51-.17l.94.91,4.86,5.47c31.91-25.12,55.23-60.65,64.83-101.48l-62.64-56.13-70.14-78.71c-.22-.29-.52-.5-.86-.61l-.54-.08h-71.22c-.51,0-.98.23-1.3.6l-.26.42-20.07,45.66c-2.87,6.47-8.99,10.82-15.94,11.45l-1.75.08h-40.62s-21.48,36.78-21.48,36.78l-1.03-.6,9.74,24.2c.78,1.94,2.51,3.31,4.52,3.66l1.02.09h64.4c3.92,0,9.34,2.22,18.78,6.97l4.86,2.48,5.51,2.91,10.4,5.7c4.24,2.39,5.74,7.77,3.34,12.01-2.39,4.24-7.77,5.74-12.01,3.34l-4.67-2.59-5.37-2.91-7.63-4-4.63-2.3-8.59-3.98h-64.4c-8.98,0-17.13-5.1-21.11-13.04l-.79-1.75-24.48-60.85c-4.36-10.89,3.13-22.71,14.54-23.67l1.51-.06h78.18c.51,0,.98-.23,1.3-.6l.26-.42,20.07-45.64c2.85-6.48,8.99-10.84,15.95-11.47l1.75-.08h71.22c5.53,0,10.77,2.36,14.05,5.98l1.02,1.25,68.93,77.38,53.77,48.11c.83-7.04,1.25-14.2,1.25-21.46ZM126.76,219.58h-16.65s6.79,16.88,6.79,16.88l9.86-16.88ZM345.11,223.26c-1.13-4.19-5.21-7.01-9.63-6.45-4.83.62-8.24,5.04-7.62,9.87l18.1,141.14v.49c0,.19-.04.33-.06.43-.03.12-.04.18.01.18h-80.66l.04-.06s0-.04,0-.06l-.02-.06c-.04-.17-.11-.46-.06-.89l27.55-139.11.15-1.19c.26-4.33-2.71-8.3-7.09-9.17-4.78-.94-9.41,2.16-10.36,6.94l-27.67,139.9-.12,1.72c-.32,10.8,7.38,19.61,17.58,19.61h80.66l1.61-.08c10.08-.93,17.24-10.53,15.92-20.89l-18.1-141.15-.23-1.18ZM244.71,181.42c4.87,0,8.82,3.95,8.82,8.82,0,4.46-3.32,8.15-7.62,8.73l-1.2.08h-11.03c-4.87,0-8.82-3.95-8.82-8.82,0-4.46,3.32-8.15,7.62-8.74l1.2-.08h11.03Z"/>
</svg>