<?xml version="1.0" encoding="UTF-8"?>
<svg id="Layer_1" data-name="Layer 1" xmlns="http://www.w3.org/2000/svg" viewBox="0 0 512 512">
  <defs>
    <style>
      .cls-1 {
        fill: #4fa635;
      }
    </style>
  </defs>
  <rect width="512" height="512"/>
  <g>
    <polygon class="cls-1" points="211.17 160.86 326.87 172.06 327.62 290.38 328.43 291.27 442.4 68.03 211.17 160.86"/>
    <path class="cls-1" d="M308.18,190.2c-18.6-8.51-83.08,47.44-75.09,88.01,6.61,33.53,59.99,42.57,71.52,88.82,1.2,4.8,2,10.24-.06,15.95-8.41,23.28-55.17,25.15-69.74,25.74-16.01.64-62.59,2.83-106.58-27.55-35.44-24.48-51.34-56.57-57.08-53.24-4.19,2.44.72,21.63,8.19,36.68,25.23,50.84,93.63,84.9,159.1,78.62,30.6-2.93,89.01-17.38,97.6-53.59,5.77-24.33-13.08-49.52-17.26-55.11-25.41-33.95-60.88-31.79-65.7-56.92-2.59-13.51,5.4-25.9,10.7-34.11,18.32-28.4,51.78-33.93,49.86-46.43-.48-3.1-3-5.74-5.45-6.86Z"/>
  </g>
</svg>