<?xml version="1.0" encoding="UTF-8"?>
<svg id="Layer_1" data-name="Layer 1" xmlns="http://www.w3.org/2000/svg" viewBox="0 0 512 512">
  <defs>
    <style>
      .cls-1 {
        fill: #65c243;
      }
    </style>
  </defs>
  <rect id="bg" width="512" height="512"/>
  <path class="cls-1" d="M458.96,362.13c4.76-8.31,7.5-17.93,7.5-28.19,0-31.37-25.43-56.81-56.81-56.81s-56.81,25.43-56.81,56.81c0,10.3,2.75,19.94,7.54,28.27h-.02c13.44,27.04,26.87,54.08,40.31,81.11-39.47-10.46-78.93-20.91-118.4-31.37-16.67-13.86-33.35-27.73-50.02-41.59-5.13,8.09-10.26,16.18-15.39,24.26-26.27-6.96-52.54-13.92-78.81-20.88l172.33-128.81h0v-13.91H118.38c14.98-27.62,29.96-55.23,44.94-82.85h-.02c4.76-8.31,7.5-17.93,7.5-28.19,0-31.37-25.43-56.81-56.81-56.81s-56.81,25.43-56.81,56.81c0,10.3,2.75,19.94,7.54,28.27h-.02l47.13,94.83c.05-.1.11-.2.16-.3v2.15h175.15l-166.25,124.26h0c-.01,4.83-.03,9.65-.04,14.48,29.53,7.56,59.05,15.11,88.58,22.67l-14.17,22.34,95.6-1.5c38.88,9.95,77.75,19.9,116.63,29.85h0c1.88-3.47,3.77-6.95,5.65-10.42h0c15.28-28.17,30.55-56.33,45.83-84.5h-.02ZM93.82,121.51c0-11.14,9.03-20.17,20.17-20.17s20.17,9.03,20.17,20.17-9.03,20.17-20.17,20.17-20.17-9.03-20.17-20.17ZM409.65,355.64c-11.14,0-20.17-9.03-20.17-20.17s9.03-20.17,20.17-20.17,20.17,9.03,20.17,20.17-9.03,20.17-20.17,20.17Z"/>
</svg>