<?xml version="1.0" encoding="UTF-8"?>
<svg id="Layer_1" data-name="Layer 1" xmlns="http://www.w3.org/2000/svg" viewBox="0 0 512 512">
  <defs>
    <style>
      .cls-1 {
        fill: #fff;
      }

      .cls-2 {
        fill: #1d320e;
      }
    </style>
  </defs>
  <rect class="cls-2" width="512" height="512"/>
  <g>
    <path class="cls-1" d="M274.25,175.49v43.15h43.15v35.74h-43.15v43.15h-35.74v-43.15h-43.15v-35.74h43.15v-43.15h35.74M294.25,155.49h-75.74v43.15h-43.15v75.74h43.15v43.15h75.74v-43.15h43.15v-75.74h-43.15v-43.15h0Z"/>
    <path class="cls-1" d="M361.91,41.54c-42.87,0-81.06,20.05-105.7,51.29-24.64-31.24-62.83-51.29-105.7-51.29-62.82,0-128,65.82-134.55,134.55-.78,8.15-2.96,34.23,9.11,62.72,7.23,17.06,17.55,29.05,37.89,52.32,16.56,18.94,31.58,33.84,42.88,44.43,1.54,1.35,3.13,2.74,4.75,4.17l14.17-14.17c-1.89-1.66-3.72-3.27-5.5-4.82-14.33-13.46-28.21-27.85-41.25-42.77-20.21-23.12-28.64-33.06-34.54-46.97-6.86-16.19-9.43-34.03-7.62-53.01,2.7-28.3,17.43-57.76,40.43-80.83,22.57-22.64,49.62-35.62,74.21-35.62,35.3,0,68.1,15.92,90,43.68l15.7,19.91,15.7-19.91c21.9-27.76,54.7-43.68,90-43.68,30.6,0,59.37,11.92,81,33.55,21.64,21.64,33.55,50.4,33.55,81,0,20.46-5.46,40.54-15.79,58.07l-.27.46-.25.48c-21.15,40.71-48.55,65.61-64.93,80.49l-.64.58c-15.89,14.44-34.19,31.35-55.39,50.93-24.59,22.72-52.06,48.09-83.06,76.36l-3.8-3.43c-30.48-27.52-57.58-51.98-80.78-72.8l-14.16,14.16c27.54,24.71,60.71,54.67,98.81,89.06,64.32-58.47,115.1-106.09,151.84-139.49,17.27-15.7,46.78-42.23,69.86-86.65,11.79-20,18.57-43.32,18.57-68.22,0-74.31-60.24-134.55-134.55-134.55Z"/>
    <circle class="cls-1" cx="139.32" cy="352.56" r="13.4"/>
  </g>
</svg>