<?xml version="1.0" encoding="UTF-8"?>
<svg id="Layer_1" data-name="Layer 1" xmlns="http://www.w3.org/2000/svg" viewBox="0 0 512 512">
  <defs>
    <style>
      .cls-1 {
        fill: #fff;
        fill-rule: evenodd;
      }
    </style>
  </defs>
  <rect width="512" height="512"/>
  <path class="cls-1" d="M334.5,96.04l135.39-56.61c8.56-3.58,18.01,2.71,18.01,11.99v349.09c0,5.24-3.15,9.97-7.98,11.99l-140.22,58.66c-3.1,1.3-6.58,1.34-9.72.13l-142.63-55.39-145.53,56.82c-7.95,3.11-16.5-2.16-17.6-10.32l-.12-1.79V111.48c0-5.35,3.28-10.16,8.27-12.11l150.23-58.66c3.03-1.18,6.4-1.19,9.43,0l142.47,55.32ZM318.83,117.85l-119.94-46.6v321.23l119.94,46.56V117.85ZM344.83,119.91v320.9l117.07-48.97V70.93l-117.07,48.98ZM50.08,120.36l122.82-47.95v321.21l-122.82,47.94V120.36Z"/>
</svg>