<?xml version="1.0" encoding="UTF-8"?>
<svg id="Layer_1" data-name="Layer 1" xmlns="http://www.w3.org/2000/svg" viewBox="0 0 512 512">
  <defs>
    <style>
      .cls-1 {
        fill: #fff;
      }
    </style>
  </defs>
  <g id="CoT_Grid" data-name="CoT Grid">
    <rect width="512" height="512"/>
    <path class="cls-1" d="M415.19,91.19H96.81c-13.32,0-24.11,10.79-24.11,24.11v281.39c0,13.32,10.79,24.11,24.11,24.11h318.39c13.32,0,24.11-10.79,24.11-24.11V115.3c0-13.32-10.79-24.11-24.11-24.11ZM429.3,198.46h-102.83v-43.83h102.83v43.83ZM316.47,198.46h-77.85v-43.83h77.85v43.83ZM326.47,300.71v-41.12h13.17v41.12h-13.17ZM316.47,300.71h-5.57v-41.12h5.57v41.12ZM82.7,154.62h45.51v43.83h-45.51v-43.83ZM138.21,154.62h90.4v43.83h-90.4v-43.83ZM228.61,208.46v41.12h-90.4v-41.12h90.4ZM149.56,259.58v41.12h-11.35v-41.12h11.35ZM216.28,259.58h12.34v41.12h-12.34v-41.12ZM238.61,259.58h5.57v41.12h-5.57v-41.12ZM238.61,249.58v-41.12h77.85v41.12h-77.85ZM238.61,144.62v-43.43h77.85v43.43h-77.85ZM228.61,144.62h-90.4v-43.43h90.4v43.43ZM82.7,208.46h45.51v41.12h-45.48v10h45.48v41.12h-45.51v-92.25ZM128.21,310.71v41.12h-45.51v-41.12h45.51ZM138.21,310.71h90.4v41.12h-90.4v-41.12ZM228.61,361.83v48.98h-90.4v-48.98h90.4ZM238.61,361.83h77.85v48.98h-77.85v-48.98ZM238.61,351.83v-41.12h77.85v41.12h-77.85ZM326.47,310.71h102.83v41.12h-102.83v-41.12ZM406.35,300.71v-41.12h22.95v41.12h-22.95ZM326.47,249.58v-41.12h102.83v41.12h-102.83ZM429.3,115.3v29.32h-102.83v-43.43h88.72c7.78,0,14.11,6.33,14.11,14.11ZM82.7,396.7v-34.87h45.51v48.98h-31.4c-7.78,0-14.11-6.33-14.11-14.11ZM415.19,410.81h-88.72v-48.98h102.83v34.87c0,7.78-6.33,14.11-14.11,14.11Z"/>
  </g>
</svg>