<?xml version="1.0" encoding="UTF-8"?>
<svg id="Layer_1" data-name="Layer 1" xmlns="http://www.w3.org/2000/svg" viewBox="0 0 512 512">
  <defs>
    <style>
      .cls-1 {
        fill: #fff;
      }
    </style>
  </defs>
  <rect width="512" height="512"/>
  <path class="cls-1" d="M411.22,58.68H100.78c-23.25,0-42.1,18.85-42.1,42.1v310.44c0,23.25,18.85,42.1,42.1,42.1h310.44c23.25,0,42.1-18.85,42.1-42.1V100.78c0-23.25-18.85-42.1-42.1-42.1ZM174.99,364.44c0,3.29-2.66,5.95-5.95,5.95h-42.06c-3.29,0-5.95-2.66-5.95-5.95v-42.06c0-3.29,2.66-5.95,5.95-5.95h42.06c3.29,0,5.95,2.66,5.95,5.95v42.06ZM176.81,276.86c0,3.29-2.66,5.95-5.95,5.95h-42.06c-3.29,0-5.95-2.66-5.95-5.95v-42.06c0-3.29,2.66-5.95,5.95-5.95h42.06c3.29,0,5.95,2.66,5.95,5.95v42.06ZM176.81,189.27c0,3.29-2.66,5.95-5.95,5.95h-42.06c-3.29,0-5.95-2.66-5.95-5.95v-42.06c0-3.29,2.66-5.95,5.95-5.95h42.06c3.29,0,5.95,2.66,5.95,5.95v42.06ZM390.98,364.44c0,3.29-2.66,5.95-5.95,5.95h-171.01c-3.29,0-5.95-2.66-5.95-5.95v-42.06c0-3.29,2.66-5.95,5.95-5.95h171.01c3.29,0,5.95,2.66,5.95,5.95v42.06ZM392.8,276.86c0,3.29-2.66,5.95-5.95,5.95h-171.01c-3.29,0-5.95-2.66-5.95-5.95v-42.06c0-3.29,2.66-5.95,5.95-5.95h171.01c3.29,0,5.95,2.66,5.95,5.95v42.06ZM392.8,189.27c0,3.29-2.66,5.95-5.95,5.95h-171.01c-3.29,0-5.95-2.66-5.95-5.95v-42.06c0-3.29,2.66-5.95,5.95-5.95h171.01c3.29,0,5.95,2.66,5.95,5.95v42.06Z"/>
</svg>