<?xml version="1.0" encoding="UTF-8"?>
<svg id="Layer_1" data-name="Layer 1" xmlns="http://www.w3.org/2000/svg" viewBox="0 0 512 512">
  <defs>
    <style>
      .cls-1 {
        fill: #fff;
      }
    </style>
  </defs>
  <g id="Overlays_Multi_Select" data-name="Overlays Multi Select">
    <rect width="512" height="512"/>
    <g>
      <path class="cls-1" d="M237.99,237.99H76.5V76.5h161.48v161.48ZM82.94,231.55h148.61V82.94H82.94v148.61Z"/>
      <path class="cls-1" d="M145.34,173.01c12.87-12.87,25.09-25.09,37.96-37.96,1.93-1.93,5.15-1.29,6.43.64s1.29,4.5-.64,6.43c-13.51,14.8-27.66,29.59-41.17,44.39,0,0-.64,1.29-1.93,1.29s-1.93-.64-2.57-1.29c-7.72-8.36-16.08-17.37-23.8-25.73-1.29-1.93-.64-4.5,1.29-5.79s4.5-1.93,6.43,0c5.15,5.79,11.58,12.22,18.01,18.01Z"/>
      <path class="cls-1" d="M237.99,435.5H76.5v-161.48h161.48v161.48ZM82.94,429.06h148.61v-148.62H82.94v148.62Z"/>
      <path class="cls-1" d="M145.34,370.51c12.87-12.87,25.09-25.09,37.96-37.96,1.93-1.93,5.15-1.29,6.43.64s1.29,4.5-.64,6.43c-13.51,14.8-27.66,29.59-41.17,44.39,0,0-.64,1.29-1.93,1.29s-1.93-.64-2.57-1.29c-7.72-8.36-16.08-17.37-23.8-25.73-1.29-1.93-.64-4.5,1.29-5.79s4.5-1.93,6.43,0c5.15,5.79,11.58,12.22,18.01,18.01Z"/>
      <path class="cls-1" d="M435.5,435.5h-161.48v-161.48h161.48v161.48ZM280.44,429.06h148.62v-148.62h-148.62v148.62Z"/>
      <path class="cls-1" d="M342.21,370.51c12.87-12.87,25.09-25.09,37.96-37.96,1.93-1.93,5.15-1.29,6.43.64s1.29,4.5-.64,6.43c-13.51,14.8-27.66,29.59-41.17,44.39,0,0-.64,1.29-1.93,1.29s-1.93-.64-2.57-1.29c-7.72-8.36-16.08-17.37-23.8-25.73-1.29-1.93-.64-4.5,1.29-5.79s4.5-1.93,6.43,0c5.15,5.79,11.58,12.22,18.01,18.01Z"/>
      <path class="cls-1" d="M435.5,237.99h-161.48V76.5h161.48v161.48ZM280.44,231.55h148.62V82.94h-148.62v148.61Z"/>
      <path class="cls-1" d="M342.21,173.01c12.87-12.87,25.09-25.09,37.96-37.96,1.93-1.93,5.15-1.29,6.43.64s1.29,4.5-.64,6.43c-13.51,14.8-27.66,29.59-41.17,44.39,0,0-.64,1.29-1.93,1.29s-1.93-.64-2.57-1.29c-7.72-8.36-16.08-17.37-23.8-25.73-1.29-1.93-.64-4.5,1.29-5.79s4.5-1.93,6.43,0c5.15,5.79,11.58,12.22,18.01,18.01Z"/>
    </g>
  </g>
</svg>