<?xml version="1.0" encoding="UTF-8"?>
<svg id="Layer_1" data-name="Layer 1" xmlns="http://www.w3.org/2000/svg" viewBox="0 0 512 512">
  <defs>
    <style>
      .cls-1 {
        fill: #fff;
        fill-rule: evenodd;
      }
    </style>
  </defs>
  <g id="Overlays_Icon" data-name="Overlays Icon">
    <rect width="512" height="512"/>
    <path class="cls-1" d="M63.8,161.14L250.47,49.45c3.4-2.04,7.65-2.04,11.06,0l186.67,111.68c6.99,4.18,6.99,14.3,0,18.48l-186.67,111.68c-3.41,2.04-7.65,2.04-11.06,0L63.8,179.62c-6.99-4.18-6.99-14.3,0-18.48ZM421.67,170.38l-165.67-99.13-165.69,99.13,165.69,99.12,165.67-99.12ZM437.14,250.48c5.1-3.05,11.72-1.39,14.77,3.71,2.8,4.68,1.64,10.63-2.51,13.94l-1.2.83-186.67,111.68c-2.92,1.75-6.46,2-9.55.75l-1.51-.75-186.67-111.68c-5.1-3.05-6.77-9.67-3.71-14.77,2.8-4.68,8.59-6.46,13.47-4.38l1.3.67,181.14,108.36,181.14-108.36ZM451.91,336.09c-3.05-5.1-9.67-6.77-14.77-3.71l-181.14,108.37-181.14-108.37-1.3-.67c-4.88-2.09-10.67-.3-13.47,4.38-3.05,5.1-1.39,11.72,3.71,14.77l186.67,111.68,1.51.75c3.1,1.25,6.63,1,9.55-.75l186.67-111.68,1.2-.83c4.14-3.31,5.31-9.26,2.51-13.94Z"/>
  </g>
</svg>