<?xml version="1.0" encoding="UTF-8"?>
<svg id="Layer_1" data-name="Layer 1" xmlns="http://www.w3.org/2000/svg" viewBox="0 0 512 512">
  <defs>
    <style>
      .cls-1 {
        fill: #fff;
      }
    </style>
  </defs>
  <rect width="512" height="512"/>
  <path class="cls-1" d="M447.5,292.08l-45.87-16.7c.84-6.34,1.27-12.81,1.27-19.38s-.44-13.04-1.27-19.38l45.87-16.7c.99-.36,1.5-1.46,1.14-2.45l-15.45-42.44c-.36-.99-1.46-1.5-2.45-1.14l-43.6,15.87c-6.64-13.12-15.2-25.12-25.3-35.61l27.14-38.75c.61-.87.4-2.06-.47-2.66l-37-25.91c-.87-.61-2.06-.4-2.66.47l-26.38,37.68c-12.7-6.45-26.46-11.12-40.95-13.65v-47.59c0-1.06-.86-1.91-1.91-1.91h-45.17c-1.06,0-1.91.86-1.91,1.91v47.24c-14.12,2.27-27.57,6.54-40.05,12.53l-27.28-38.96c-.61-.87-1.8-1.08-2.66-.47l-37,25.91c-.87.61-1.08,1.8-.47,2.66l27.4,39.14c-10.05,9.98-18.66,21.41-25.51,33.94l-45.72-16.64c-.99-.36-2.09.15-2.45,1.14l-15.45,42.44c-.36.99.15,2.09,1.14,2.45l46.55,16.94c-1.28,7.8-1.95,15.79-1.95,23.95s.68,16.16,1.95,23.95l-46.55,16.94c-.99.36-1.5,1.46-1.14,2.45l15.45,42.44c.36.99,1.46,1.5,2.45,1.14l45.72-16.64c6.84,12.53,15.46,23.96,25.51,33.94l-27.4,39.14c-.61.87-.4,2.06.47,2.66l37,25.91c.87.61,2.06.4,2.66-.47l27.28-38.96c12.47,5.99,25.92,10.26,40.05,12.53v47.24c0,1.06.86,1.91,1.91,1.91h45.17c1.06,0,1.91-.86,1.91-1.91v-47.59c14.49-2.54,28.25-7.2,40.95-13.65l26.38,37.68c.61.87,1.8,1.08,2.66.47l37-25.91c.87-.61,1.08-1.8.47-2.66l-27.14-38.75c10.1-10.49,18.65-22.49,25.3-35.61l43.6,15.87c.99.36,2.09-.15,2.45-1.14l15.45-42.44c.36-.99-.15-2.09-1.14-2.45ZM256,371.68c-63.79,0-115.68-51.89-115.68-115.68s51.89-115.68,115.68-115.68,115.68,51.89,115.68,115.68-51.89,115.68-115.68,115.68Z"/>
</svg>