<?xml version="1.0" encoding="UTF-8"?>
<svg id="Layer_1" data-name="Layer 1" xmlns="http://www.w3.org/2000/svg" viewBox="0 0 512 512">
  <defs>
    <style>
      .cls-1 {
        fill: #fff;
      }
    </style>
  </defs>
  <rect width="512" height="512"/>
  <path class="cls-1" d="M350.94,448.37l-81.99-215.77c16.86-5.46,29.05-21.28,29.05-39.96,0-23.2-18.8-42-42-42s-42,18.8-42,42c0,18.68,12.2,34.5,29.05,39.96l-81.99,215.77c-3.17,8.34,2.99,17.27,11.91,17.27h166.06c8.92,0,15.08-8.93,11.91-17.27ZM256,175.64c9.37,0,17,7.63,17,17s-7.63,17-17,17-17-7.63-17-17,7.63-17,17-17ZM279.76,331.44l-36.07-30.12,12.31-32.4,23.76,62.52ZM235.74,322.22l36.38,30.38-57.37,24.86,20.99-55.24ZM190.74,440.64l14.09-37.09,86.41,37.09h-100.51ZM232.95,392.61l57.34-24.85,4.8,4.01,21.57,56.77-83.71-35.93Z"/>
  <g>
    <g>
      <path class="cls-1" d="M137.99,327.34c-11.56-9.14-69.17-58.93-68.32-142.29.92-89.9,69.76-140.07,77.6-145.5,5.8-2.61,12.52-1.16,16.37,3.34,4.46,5.22,4.2,13.52-1.02,18.87-5.67,3.92-65.17,46.58-65.96,123.56-.72,70.75,48.24,113.07,58.06,120.83,3.51,4.98,3.49,11.63-.01,16.46-3.74,5.15-10.66,7.14-16.73,4.73Z"/>
      <path class="cls-1" d="M180.46,296.6c-38.7-24.29-61.12-67.5-58.5-112.75,3.98-68.83,63.52-101.35,66.05-102.71,5.21-1.88,10.91.6,12.98,5.33,1.85,4.23.41,9.43-3.57,12.31-12.95,7.59-21.86,16.14-27.51,22.26-17.19,18.64-26.61,40.16-27.98,63.95-2.2,37.97,16.64,74.24,49.17,94.66,3.39,3.2,4.31,8.16,2.36,12.08-2.25,4.51-7.87,6.75-13,4.86Z"/>
    </g>
    <g>
      <path class="cls-1" d="M374.01,327.34c11.56-9.14,69.17-58.93,68.32-142.29-.92-89.9-69.76-140.07-77.6-145.5-5.8-2.61-12.52-1.16-16.37,3.34-4.46,5.22-4.2,13.52,1.02,18.87,5.67,3.92,65.17,46.58,65.96,123.56.72,70.75-48.24,113.07-58.06,120.83-3.51,4.98-3.49,11.63.01,16.46,3.74,5.15,10.66,7.14,16.73,4.73Z"/>
      <path class="cls-1" d="M331.54,296.6c38.7-24.29,61.12-67.5,58.5-112.75-3.98-68.83-63.52-101.35-66.05-102.71-5.21-1.88-10.91.6-12.98,5.33-1.85,4.23-.41,9.43,3.57,12.31,12.95,7.59,21.86,16.14,27.51,22.26,17.19,18.64,26.61,40.16,27.98,63.95,2.2,37.97-16.64,74.24-49.17,94.66-3.39,3.2-4.31,8.16-2.36,12.08,2.25,4.51,7.87,6.75,13,4.86Z"/>
    </g>
  </g>
</svg>