<?xml version="1.0" encoding="UTF-8"?>
<svg id="Layer_1" data-name="Layer 1" xmlns="http://www.w3.org/2000/svg" viewBox="0 0 471.53 255">
  <defs>
    <style>
      .cls-1 {
        fill: #fff;
      }

      .cls-2 {
        fill: #4d4d4f;
      }
    </style>
  </defs>
  <g>
    <rect x="5" y="5" width="461.53" height="245" rx="24.03" ry="24.03"/>
    <path class="cls-2" d="M442.5,255H29.03c-16.01,0-29.03-13.02-29.03-29.03V29.03C0,13.02,13.02,0,29.03,0h413.46c16.01,0,29.03,13.02,29.03,29.03v196.93c0,16.01-13.02,29.03-29.03,29.03ZM29.03,10c-10.5,0-19.03,8.54-19.03,19.03v196.93c0,10.5,8.54,19.03,19.03,19.03h413.46c10.5,0,19.03-8.54,19.03-19.03V29.03c0-10.5-8.54-19.03-19.03-19.03H29.03Z"/>
  </g>
  <g>
    <path class="cls-1" d="M170.73,84.15l-21.43,85.32h-19.64l-14.03-56.44-13.54,56.44h-19.48l-21.95-85.32h20.4l11.76,52.07c.04.25.27,1.17.69,2.75.17.58.4,1.46.69,2.63l13.97-57.44h18.44l14.34,57.44c.29-1.08.71-2.88,1.25-5.38l12.1-52.07h16.44Z"/>
    <path class="cls-1" d="M230.98,169.47h-18.06c-.58-2.5-.88-5.79-.88-9.88-3.16,4.5-6.31,7.49-9.46,8.97s-6.71,2.22-10.7,2.22c-5.91,0-10.68-1.6-14.32-4.81-3.64-3.21-5.46-7.52-5.46-12.94,0-3.96,1.06-7.6,3.18-10.94,2.12-3.33,5.53-5.95,10.23-7.84,4.7-1.9,13.27-3.3,25.71-4.22v-3.63c0-6.13-3.05-9.19-9.16-9.19-6.52,0-10.16,3.06-10.9,9.19l-17.19-1.63c1.13-7.17,4.52-12.25,10.19-15.25,5.67-3,12.08-4.5,19.25-4.5,4.29,0,8.33.5,12.13,1.5,3.79,1,6.75,2.5,8.88,4.5s3.56,4.12,4.31,6.34c.75,2.23,1.13,6.12,1.13,11.66v28.63c0,5.5.38,9.44,1.13,11.81ZM211.23,139.22c-13,1.29-19.5,5.23-19.5,11.81,0,2.21.68,4.12,2.06,5.72,1.37,1.6,3.32,2.41,5.86,2.41,3.28,0,6.03-1.36,8.26-4.09,2.22-2.73,3.33-6.09,3.33-10.09v-5.75Z"/>
    <path class="cls-1" d="M266.24,120.84v26.69c0,3.33.5,5.56,1.49,6.69,1,1.13,3.34,1.69,7.03,1.69,1.7,0,3.67-.08,5.91-.25v13.81c-5.42.92-9.31,1.38-11.69,1.38-7.75,0-13.25-1.49-16.5-4.47-3.25-2.98-4.88-8.37-4.88-16.16v-29.38h-10v-14.5h11.06l1.5-18.63,16.06-1.25v19.88h13.56v14.5h-13.56Z"/>
    <path class="cls-1" d="M345.75,145.78c-.71,7.46-3.66,13.49-8.84,18.1-5.19,4.6-11.89,6.91-20.1,6.91-8.92,0-16.18-2.95-21.78-8.84-5.6-5.9-8.41-13.78-8.41-23.66s2.86-17.89,8.59-24.03c5.73-6.15,13.39-9.22,22.97-9.22,7.71,0,14.1,2.31,19.16,6.94s7.87,10.42,8.41,17.38l-17.38,1c-.58-7.58-3.88-11.38-9.88-11.38-7.38,0-11.06,6.04-11.06,18.13,0,8.04,1.03,13.15,3.09,15.31,2.06,2.17,4.57,3.25,7.53,3.25,5.75,0,9.19-3.65,10.31-10.94l17.38,1.06Z"/>
    <path class="cls-1" d="M374.69,84.15v30.77c3.42-6.6,9.1-9.9,17.06-9.9,4.25,0,7.89.93,10.91,2.78,3.02,1.85,5.15,4.24,6.38,7.16,1.23,2.92,1.84,7.19,1.84,12.81v41.69h-18.63v-35.61c0-4.26-.17-7.18-.5-8.76s-1.09-2.91-2.27-3.97c-1.18-1.06-2.67-1.6-4.45-1.6-2.33,0-4.63.91-6.91,2.72s-3.43,5.68-3.43,11.61v35.61h-18.06v-85.32h18.06Z"/>
  </g>
</svg>