<?xml version="1.0" encoding="UTF-8"?>
<svg id="Layer_1" data-name="Layer 1" xmlns="http://www.w3.org/2000/svg" viewBox="0 0 512 512">
  <defs>
    <style>
      .cls-1 {
        fill: #fff;
      }
    </style>
  </defs>
  <rect id="bg" width="512" height="512"/>
  <g>
    <path class="cls-1" d="M389.27,102.15H111.61c-4.38,0-7.93,3.55-7.93,7.93v277.65c0,4.38,3.55,7.93,7.93,7.93h277.65c4.38,0,7.93-3.55,7.93-7.93V110.07c0-4.38-3.55-7.93-7.93-7.93ZM280.82,116.15l-.1,96.97-1.68-.99-22.79-13.5-7.28-4.31-7.2,4.44-22.49,13.86-.04-65.29-.02-31.17h61.59ZM383.19,381.65H117.69V116.15h87.54c.02,40.51.05,81.02.07,121.52,14.61-9,29.21-18,43.82-27.01,15.19,9,30.39,18,45.58,27.01.04-40.51.08-81.02.12-121.52h88.37v265.5Z"/>
    <path class="cls-1" d="M212.68,304.28h-71.78c-4.26,0-7.71,3.45-7.71,7.71v43.16c0,4.26,3.45,7.71,7.71,7.71h71.78c4.26,0,7.71-3.45,7.71-7.71v-43.16c0-4.26-3.45-7.71-7.71-7.71ZM206.39,348.84h-59.19v-30.57h59.19v30.57Z"/>
    <path class="cls-1" d="M241.85,309.34c-4.92,0-8.92,3.99-8.92,8.92s3.99,8.92,8.92,8.92h62.09c4.92,0,8.92-3.99,8.92-8.92s-3.99-8.92-8.92-8.92h-62.09Z"/>
    <path class="cls-1" d="M269.6,338.18h-27.74c-4.92,0-8.92,3.99-8.92,8.92s3.99,8.92,8.92,8.92h27.74c4.92,0,8.92-3.99,8.92-8.92s-3.99-8.92-8.92-8.92Z"/>
  </g>
</svg>