<?xml version="1.0" encoding="UTF-8"?>
<svg id="Layer_1" data-name="Layer 1" xmlns="http://www.w3.org/2000/svg" viewBox="0 0 512 512">
  <defs>
    <style>
      .cls-1 {
        fill: #fff;
      }

      .cls-2 {
        fill: red;
      }
    </style>
  </defs>
  <rect id="bg" width="512" height="512"/>
  <g id="save_dp">
    <path class="cls-1" d="M459.18,239.89l-87.26-44.38,30.99-15.81,56.29-28.72,24.6-12.55-24.32-13.08-37.76-20.31-37.76-20.31-6.67-3.59-6.75,3.43-57.47,29.23-50.91,25.89-50.91-25.89-57.47-29.23-6.75-3.43-6.67,3.59-29.75,16.01-45.76,24.62-24.32,13.08,24.6,12.55,56.29,28.72,30.96,15.8s0,0-.01,0c0,0,.02,0,.02.01l-87.25,44.38-25.12,12.77,25.02,12.97,30.5,15.82,46.92,24.33,1.06.55v51.92l-.21.12v12.01l47.39,25.82c23.38,11.89,46.76,23.78,70.14,35.67,38.31-19.49,76.63-38.97,114.94-58.46.03.02,1.45-.71,3.41-1.74v-64.51l2.66-1.38,43.16-22.38,34.27-17.77,25.02-12.97-25.12-12.77ZM377.11,97.46c25.17,13.54,50.34,27.08,75.51,40.62-32.22,16.44-64.44,32.88-96.67,49.32-25.96-13.19-51.91-26.39-77.87-39.58,33.01-16.79,66.01-33.58,99.02-50.36ZM71.71,138.08c25.17-13.54,50.34-27.08,75.51-40.62,32.99,16.78,65.99,33.56,98.98,50.34-25.96,13.2-51.91,26.39-77.87,39.59-32.21-16.43-64.42-32.87-96.63-49.3ZM71.71,252.79c32.21-16.38,64.43-32.77,96.64-49.15,25.99,13.24,51.98,26.47,77.98,39.71-32.4,16.53-64.79,33.06-97.19,49.59-25.81-13.38-51.62-26.76-77.43-40.15ZM161.22,364.96v-61.94l51.01-26.03,39.78-20.3v154.45l-42.07-21.4-48.72-24.78ZM311.76,389.74l-42.07,21.4v-155.79l91.82,46.85v62.23l-49.75,25.31ZM375.2,292.94c-32.34-16.5-64.68-33-97.03-49.51,25.93-13.27,51.87-26.53,77.8-39.8,32.22,16.39,64.44,32.77,96.65,49.16-25.81,13.38-51.62,26.76-77.43,40.15Z"/>
    <path class="cls-2" d="M27.7,150.69l8.91-27.5c20.53,7.23,35.44,13.49,44.73,18.78-2.45-23.37-3.75-39.44-3.87-48.22h28.08c-.39,12.78-1.87,28.79-4.45,48.03,13.29-6.71,28.53-12.91,45.7-18.59l8.91,27.5c-16.4,5.42-32.47,9.04-48.22,10.84,7.87,6.84,18.98,19.04,33.31,36.6l-23.24,16.46c-7.49-10.2-16.33-24.08-26.53-41.64-9.56,18.2-17.95,32.08-25.17,41.64l-22.85-16.46c14.98-18.46,25.69-30.66,32.15-36.6-16.65-3.23-32.47-6.84-47.44-10.84Z"/>
  </g>
</svg>