<?xml version="1.0" encoding="UTF-8"?>
<svg id="Layer_1" data-name="Layer 1" xmlns="http://www.w3.org/2000/svg" xmlns:xlink="http://www.w3.org/1999/xlink" viewBox="0 0 512 512">
  <defs>
    <style>
      .cls-1 {
        fill: #fff;
      }

      .cls-2 {
        fill: none;
      }

      .cls-3 {
        fill: #3ae54a;
      }

      .cls-4 {
        clip-path: url(#clippath);
      }
    </style>
    <clipPath id="clippath">
      <path id="clipping_mask" data-name="clipping mask" class="cls-2" d="M55.26,33.89h402.48c11.79,0,21.37,9.57,21.37,21.37v402.48c0,11.79-9.57,21.37-21.37,21.37H55.26c-11.79,0-21.37-9.57-21.37-21.37V55.26c0-11.79,9.57-21.37,21.37-21.37Z"/>
    </clipPath>
  </defs>
  <rect id="bg" width="512" height="512"/>
  <g class="cls-4">
    <g>
      <path class="cls-1" d="M169.32,206.85c28.25-7.83,49-33.71,49-64.45,0-36.94-29.95-66.89-66.89-66.89s-66.89,29.95-66.89,66.89c0,30.75,20.75,56.63,49.01,64.45C61.82,216.2,15.77,279.29,5.18,294.52v80.37h292.5v-80.37c-10.4-14.94-56.54-78.28-128.36-87.66Z"/>
      <path class="cls-1" d="M382.46,187.34c28.25-7.83,49-33.71,49-64.45,0-36.94-29.95-66.89-66.89-66.89s-66.89,29.95-66.89,66.89c0,30.75,20.75,56.63,49.01,64.45-71.73,9.35-117.78,72.43-128.38,87.66v80.37h292.5v-80.37c-10.4-14.94-56.54-78.28-128.36-87.66Z"/>
      <g>
        <path class="cls-1" d="M84.63,435.47v-91.47l.9-1.29c16.22-23.31,58.86-75.92,122.19-91.53-23.74-13.08-39.24-38.37-39.24-66.31,0-41.72,33.94-75.66,75.66-75.66s75.66,33.94,75.66,75.66c0,27.94-15.5,53.23-39.23,66.31,63.33,15.62,105.97,68.23,122.18,91.53l.9,1.29v91.47H84.63Z"/>
        <path d="M244.14,114.2c39.03,0,70.66,31.64,70.66,70.66,0,32.48-21.92,59.82-51.76,68.09,75.88,9.91,124.62,76.82,135.61,92.61v84.9H89.63v-84.9c11.19-16.09,59.84-82.73,135.62-92.61-29.85-8.26-51.78-35.61-51.78-68.09,0-39.03,31.64-70.66,70.66-70.66M244.14,104.2c-44.48,0-80.66,36.19-80.66,80.66,0,25.86,12.45,49.58,32.28,64.51-59.02,18.92-98.7,68.02-114.33,90.48l-1.79,2.57v98.04h329.01v-98.04l-1.79-2.57c-15.62-22.46-55.31-71.55-114.33-90.48,19.83-14.93,32.28-38.65,32.28-64.51,0-44.48-36.19-80.66-80.66-80.66h0Z"/>
      </g>
    </g>
    <path class="cls-3" d="M340.42,290.77h-110.15v-110.15c0-9.65-7.82-17.48-17.48-17.48h-16.95c-9.65,0-17.48,7.82-17.48,17.48v110.15h-110.15c-9.65,0-17.48,7.82-17.48,17.48v16.95c0,9.65,7.82,17.48,17.48,17.48h110.15v110.15c0,9.65,7.82,17.48,17.48,17.48h16.95c9.65,0,17.48-7.82,17.48-17.48v-110.15h110.15c9.65,0,17.48-7.82,17.48-17.48v-16.95c0-9.65-7.82-17.48-17.48-17.48Z"/>
  </g>
</svg>