<?xml version="1.0" encoding="UTF-8"?>
<svg id="Layer_1" data-name="Layer 1" xmlns="http://www.w3.org/2000/svg" viewBox="0 0 512 512">
  <defs>
    <style>
      .cls-1 {
        fill: #fff;
      }
    </style>
  </defs>
  <rect id="bg" width="512" height="512"/>
  <path class="cls-1" d="M424.65,232.12c6.42-8.64,10.31-19.93,10.31-32.3,0-27.15-18.73-49.17-41.82-49.17s-41.84,22.02-41.84,49.17c0,13.24,4.45,25.23,11.69,34.07-10.33,10.33-23.02,23.12-33.53,34.13.14.14-21.03-21.41-30.38-30.8,9.62-13.21,15.23-30.41,14.64-46.53-1.13-30.88-25.26-64.97-55.38-64.97-.67,0-1.34.01-2,.06-29.8,1.49-50.47,35.85-51,64.91-.31,16.8,6.08,34.82,16.63,48.27-9.67,9.48-21.07,20.72-31.83,31.55l.25-.25c-12.48-13.18-28.55-29.39-40.47-41.34,8.06-8.96,13.1-21.64,13.1-35.71,0-27.15-18.73-49.17-41.82-49.17s-41.84,22.02-41.84,49.17c0,14.45,5.3,27.43,13.74,36.42-22.49,21.98-60.6,59.72-60.6,63.55v48.48c0,6.54,5.3,11.84,11.84,11.84h107.79v18.3c0,8,6.49,14.47,14.47,14.47h188c8,0,14.47-6.49,14.47-14.47v-20.33h99.01c6.29,0,11.4-5.21,11.4-11.62v-47.59c0-3.52-32.94-37.72-54.85-60.13h0ZM393.13,168.74c12.86,0,23.73,14.24,23.73,31.08s-10.87,31.08-23.73,31.08-23.74-14.24-23.74-31.08,10.87-31.08,23.74-31.08ZM257.23,143.84c.36-.01.74-.03,1.1-.03h0c11.4,0,20.21,8.85,24.45,14.14,7.63,9.51,12.43,21.99,12.85,33.39.51,14.1-5.51,29.9-15.37,40.25-4.34,4.57-11.34,10.05-20.03,10.17h-.31c-8.63,0-15.69-5.34-20.1-9.84-10.06-10.26-16.66-26.69-16.4-40.93.38-21.06,15.24-46.25,33.81-47.17h-.01ZM121.18,162.12c12.86,0,23.73,14.24,23.73,31.08s-10.87,31.08-23.73,31.08-23.74-14.24-23.74-31.08,10.87-31.08,23.74-31.08ZM152.12,312.5v22.78H50.69v-36.53c4.29-5.01,16.2-17.93,48.98-50.1,6.17,3.62,13.25,5.65,20.64,5.73h.46c8.07,0,15.77-2.34,22.34-6.5,16.01,16.09,26.97,27.4,34.5,35.35.19-.21.4-.42.6-.61-14.77,15.18-26.1,27.57-26.1,29.87h.01ZM346.82,364.01h-172.43v-44.69c5.25-6.12,19.82-21.93,59.92-61.28,7.54,4.43,16.2,6.92,25.25,7.01h.56c9.87,0,19.29-2.85,27.32-7.95,39.85,40.06,54.22,55.98,59.37,62.12v44.77h.01ZM461.96,333.59h-92.87v-21.09c0-2.35-11.97-15.63-27.35-31.75,7.24-7.57,17.38-17.97,31.62-32.22,5.94,3.55,12.76,5.55,19.89,5.62h.43c7.77,0,15.2-2.3,21.52-6.37,31.37,32.15,42.7,44.93,46.76,49.85v35.94h0Z"/>
</svg>