<?xml version="1.0" encoding="UTF-8"?>
<svg id="Layer_1" data-name="Layer 1" xmlns="http://www.w3.org/2000/svg" viewBox="0 0 512 85">
  <defs>
    <style>
      .cls-1 {
        fill: #fff;
      }

      .cls-2 {
        fill: red;
      }

      .cls-3 {
        fill: #3ae54a;
      }
    </style>
  </defs>
  <rect width="512" height="85"/>
  <g>
    <g>
      <path class="cls-1" d="M285.8,34.87c3.98-1.1,6.91-4.75,6.91-9.08,0-5.21-4.22-9.43-9.43-9.43s-9.43,4.22-9.43,9.43c0,4.33,2.92,7.98,6.91,9.08-10.11,1.32-16.6,10.21-18.09,12.35v11.33h41.22v-11.33c-1.47-2.11-7.97-11.03-18.09-12.35h0Z"/>
      <path class="cls-1" d="M316.4,33.88c3.93-1.1,6.81-4.75,6.81-9.08,0-5.21-4.16-9.43-9.3-9.43s-9.3,4.22-9.3,9.43c0,4.33,2.88,7.98,6.81,9.08-9.97,1.32-16.37,10.21-17.84,12.35v11.33h40.65v-11.33c-1.45-2.11-7.86-11.03-17.84-12.35h0Z"/>
      <g>
        <path class="cls-1" d="M273.86,67.09v-12.89l.13-.18c2.29-3.28,8.29-10.7,17.22-12.9-3.35-1.84-5.53-5.41-5.53-9.34,0-5.88,4.78-10.66,10.66-10.66s10.66,4.78,10.66,10.66c0,3.94-2.18,7.5-5.53,9.34,8.92,2.2,14.93,9.62,17.22,12.9l.13.18v12.89h-44.96Z"/>
        <path d="M296.34,21.81c5.5,0,9.96,4.46,9.96,9.96,0,4.58-3.09,8.43-7.29,9.6,10.69,1.4,17.56,10.83,19.11,13.05v11.96h-43.55v-11.96c1.58-2.27,8.43-11.66,19.11-13.05-4.21-1.16-7.3-5.02-7.3-9.6,0-5.5,4.46-9.96,9.96-9.96M296.34,20.4c-6.27,0-11.37,5.1-11.37,11.37,0,3.64,1.75,6.99,4.55,9.09-8.32,2.67-13.91,9.59-16.11,12.75l-.25.36v13.82h46.37v-13.82l-.25-.36c-2.2-3.17-7.79-10.08-16.11-12.75,2.79-2.1,4.55-5.45,4.55-9.09,0-6.27-5.1-11.37-11.37-11.37h0Z"/>
      </g>
    </g>
    <path class="cls-3" d="M309.91,46.69h-15.52v-15.52c0-1.36-1.1-2.46-2.46-2.46h-2.39c-1.36,0-2.46,1.1-2.46,2.46v15.52h-15.52c-1.36,0-2.46,1.1-2.46,2.46v2.39c0,1.36,1.1,2.46,2.46,2.46h15.52v15.52c0,1.36,1.1,2.46,2.46,2.46h2.39c1.36,0,2.46-1.1,2.46-2.46v-15.52h15.52c1.36,0,2.46-1.1,2.46-2.46v-2.39c0-1.36-1.1-2.46-2.46-2.46Z"/>
  </g>
  <g>
    <g>
      <path class="cls-1" d="M430.24,36.97c3.98-1.1,6.91-4.75,6.91-9.08,0-5.21-4.22-9.43-9.43-9.43s-9.43,4.22-9.43,9.43c0,4.33,2.92,7.98,6.91,9.08-10.11,1.32-16.6,10.21-18.09,12.35v11.33h41.22v-11.33c-1.47-2.11-7.97-11.03-18.09-12.35h0Z"/>
      <path class="cls-1" d="M460.84,35.98c3.93-1.1,6.81-4.75,6.81-9.08,0-5.21-4.16-9.43-9.3-9.43s-9.3,4.22-9.3,9.43c0,4.33,2.88,7.98,6.81,9.08-9.97,1.32-16.37,10.21-17.84,12.35v11.33h40.65v-11.33c-1.45-2.11-7.86-11.03-17.84-12.35h0Z"/>
      <g>
        <path class="cls-1" d="M418.3,69.19v-12.89l.13-.18c2.29-3.28,8.29-10.7,17.22-12.9-3.35-1.84-5.53-5.41-5.53-9.34,0-5.88,4.78-10.66,10.66-10.66s10.66,4.78,10.66,10.66c0,3.94-2.18,7.5-5.53,9.34,8.92,2.2,14.93,9.62,17.22,12.9l.13.18v12.89h-44.96Z"/>
        <path d="M440.78,23.91c5.5,0,9.96,4.46,9.96,9.96,0,4.58-3.09,8.43-7.29,9.6,10.69,1.4,17.56,10.83,19.11,13.05v11.96h-43.55v-11.96c1.58-2.27,8.43-11.66,19.11-13.05-4.21-1.16-7.3-5.02-7.3-9.6,0-5.5,4.46-9.96,9.96-9.96M440.78,22.51c-6.27,0-11.37,5.1-11.37,11.37,0,3.64,1.75,6.99,4.55,9.09-8.32,2.67-13.91,9.59-16.11,12.75l-.25.36v13.82h46.37v-13.82l-.25-.36c-2.2-3.17-7.79-10.08-16.11-12.75,2.79-2.1,4.55-5.45,4.55-9.09,0-6.27-5.1-11.37-11.37-11.37h0Z"/>
      </g>
    </g>
    <rect class="cls-2" x="409.57" y="49.55" width="42.85" height="10.49"/>
  </g>
  <g>
    <path class="cls-1" d="M180.34,40.25c5.22-1.47,9.05-6.31,9.05-12.07,0-6.92-5.53-12.52-12.35-12.52s-12.35,5.61-12.35,12.52c0,5.76,3.83,10.6,9.05,12.07-13.25,1.75-21.75,13.56-23.71,16.41v15.05h54.01v-15.05c-1.92-2.8-10.44-14.66-23.7-16.41h0Z"/>
    <rect class="cls-2" x="140.17" y="45.85" width="48.19" height="10.49"/>
  </g>
  <g>
    <path class="cls-1" d="M75.53,39.78c5.22-1.47,9.05-6.31,9.05-12.07,0-6.92-5.53-12.52-12.35-12.52s-12.35,5.61-12.35,12.52c0,5.76,3.83,10.6,9.05,12.07-13.25,1.75-21.75,13.56-23.71,16.41v15.05h54.01v-15.05c-1.92-2.8-10.44-14.66-23.7-16.41h0Z"/>
    <path class="cls-3" d="M78.94,46.88h-15.52v-15.52c0-1.36-1.1-2.46-2.46-2.46h-2.39c-1.36,0-2.46,1.1-2.46,2.46v15.52h-15.52c-1.36,0-2.46,1.1-2.46,2.46v2.39c0,1.36,1.1,2.46,2.46,2.46h15.52v15.52c0,1.36,1.1,2.46,2.46,2.46h2.39c1.36,0,2.46-1.1,2.46-2.46v-15.52h15.52c1.36,0,2.46-1.1,2.46-2.46v-2.39c0-1.36-1.1-2.46-2.46-2.46Z"/>
  </g>
</svg>