<?xml version="1.0" encoding="UTF-8"?>
<svg id="Layer_1" data-name="Layer 1" xmlns="http://www.w3.org/2000/svg" xmlns:xlink="http://www.w3.org/1999/xlink" viewBox="0 0 512 425">
  <defs>
    <style>
      .cls-1, .cls-2 {
        fill: #fff;
      }

      .cls-3 {
        fill: #856d50;
      }

      .cls-2 {
        filter: url(#drop-shadow-1);
      }

      .cls-4 {
        fill: #ba0100;
      }
    </style>
    <filter id="drop-shadow-1" x="71" y="125.5" width="352" height="218" filterUnits="userSpaceOnUse">
      <feOffset dx="7" dy="7"/>
      <feGaussianBlur result="blur" stdDeviation="5"/>
      <feFlood flood-color="#000" flood-opacity=".75"/>
      <feComposite in2="blur" operator="in"/>
      <feComposite in="SourceGraphic"/>
    </filter>
  </defs>
  <rect class="cls-3" width="512" height="425"/>
  <path class="cls-2" d="M361.21,210.59c4.61-6.21,7.41-14.32,7.41-23.21,0-19.51-13.46-35.33-30.05-35.33s-30.06,15.82-30.06,35.33c0,9.51,3.2,18.13,8.4,24.48-7.42,7.42-16.54,16.61-24.09,24.52.1.1-15.11-15.38-21.83-22.13,6.91-9.49,10.94-21.85,10.52-33.43-.81-22.19-18.15-46.68-39.79-46.68-.48,0-.96.01-1.44.04-21.41,1.07-36.26,25.76-36.64,46.64-.22,12.07,4.37,25.02,11.95,34.68-6.95,6.81-15.14,14.89-22.87,22.67.06-.06.12-.12.18-.18-8.97-9.47-20.51-21.12-29.08-29.7,5.79-6.44,9.41-15.55,9.41-25.66,0-19.51-13.46-35.33-30.05-35.33s-30.06,15.82-30.06,35.33c0,10.38,3.81,19.71,9.87,26.17-16.16,15.79-43.54,42.91-43.54,45.66v34.83c0,4.7,3.81,8.51,8.51,8.51h77.45v13.15c0,5.75,4.66,10.4,10.4,10.4h135.08c5.75,0,10.4-4.66,10.4-10.4v-14.61h71.14c4.52,0,8.19-3.74,8.19-8.35v-34.19c0-2.53-23.67-27.1-39.41-43.2ZM338.56,165.05c9.24,0,17.05,10.23,17.05,22.33s-7.81,22.33-17.05,22.33-17.06-10.23-17.06-22.33,7.81-22.33,17.06-22.33ZM240.92,147.16c.26-.01.53-.02.79-.02h0c8.19,0,14.52,6.36,17.57,10.16,5.48,6.83,8.93,15.8,9.23,23.99.37,10.13-3.96,21.48-11.04,28.92-3.12,3.28-8.15,7.22-14.39,7.31h-.22c-6.2,0-11.27-3.84-14.44-7.07-7.23-7.37-11.97-19.18-11.78-29.41.27-15.13,10.95-33.23,24.29-33.89ZM143.17,160.29c9.24,0,17.05,10.23,17.05,22.33s-7.81,22.33-17.05,22.33-17.06-10.23-17.06-22.33,7.81-22.33,17.06-22.33ZM165.4,268.34v16.37h-72.88v-26.25c3.08-3.6,11.64-12.88,35.19-36,4.43,2.6,9.52,4.06,14.83,4.12h.33c5.8,0,11.33-1.68,16.05-4.67,11.5,11.56,19.38,19.69,24.79,25.4.14-.15.29-.3.43-.44-10.61,10.91-18.75,19.81-18.75,21.46ZM305.29,305.35h-123.89v-32.11c3.77-4.4,14.24-15.76,43.05-44.03,5.42,3.18,11.64,4.97,18.14,5.04h.4c7.09,0,13.86-2.05,19.63-5.71,28.63,28.78,38.96,40.22,42.66,44.63v32.17ZM388.02,283.49h-66.73v-15.15c0-1.69-8.6-11.23-19.65-22.81,5.2-5.44,12.49-12.91,22.72-23.15,4.27,2.55,9.17,3.99,14.29,4.04h.31c5.58,0,10.92-1.65,15.46-4.58,22.54,23.1,30.68,32.28,33.6,35.82v25.82Z"/>
  <g>
    <circle class="cls-4" cx="378.93" cy="120.22" r="77.28"/>
    <path d="M378.93,42.93c42.68,0,77.28,34.6,77.28,77.28s-34.6,77.28-77.28,77.28-77.28-34.6-77.28-77.28,34.6-77.28,77.28-77.28M378.93,27.93c-50.89,0-92.28,41.4-92.28,92.28s41.4,92.28,92.28,92.28,92.28-41.4,92.28-92.28-41.4-92.28-92.28-92.28h0Z"/>
  </g>
  <path class="cls-1" d="M417.83,151.11l-1.74,21.29h-77.52v-20.74c2.52-1.98,6.69-5.09,12.49-9.31,14.18-10.44,24.5-19.03,30.96-25.79,6.46-6.76,9.69-12.95,9.69-18.59,0-4.12-1.29-7.53-3.86-10.21-2.57-2.69-6.03-4.03-10.37-4.03-1.28,0-5.13-.04-9.02,2.49-5.97,3.87-7.21,10.6-7.41,11.78-7.44.22-14.88.44-22.32.66.32-2.91,2.24-17.66,15.07-27.28,9.82-7.37,20.31-7.45,24.66-7.45,12.21,0,21.59,3.32,28.13,9.94,6.54,6.63,9.8,14.53,9.8,23.72s-3.42,17.98-10.26,25.44c-6.84,7.46-19.42,16.83-37.74,28.1h49.44Z"/>
</svg>