<?xml version="1.0" encoding="UTF-8"?>
<svg id="Layer_1" data-name="Layer 1" xmlns="http://www.w3.org/2000/svg" xmlns:xlink="http://www.w3.org/1999/xlink" viewBox="0 0 512 512">
  <defs>
    <style>
      .cls-1 {
        fill: #585858;
      }

      .cls-2 {
        fill: #fff;
      }

      .cls-3 {
        fill: #dfdfdf;
      }

      .cls-4 {
        fill: url(#linear-gradient);
      }
    </style>
    <linearGradient id="linear-gradient" x1="255" y1="478.10635" x2="255" y2="32.89355" gradientUnits="userSpaceOnUse">
      <stop offset="0" stop-color="#070707"/>
      <stop offset="1" stop-color="#303030"/>
    </linearGradient>
  </defs>
  <g>
    <rect width="512" height="512"/>
    <path class="cls-1" d="M456.24129,487.10645H53.7593c-16.7437,0-30.3657-13.6221-30.3657-30.3652V54.25925c0-16.7436,13.6221-30.3657,30.3657-30.3657h402.4819c16.74319,0,30.3652,13.6221,30.3652,30.3657v402.4819c0,16.74319-13.6221,30.3652-30.3652,30.3652l.00009.00009Z"/>
    <path class="cls-4" d="M53.7593,32.89355h402.4819c11.79178,0,21.3652,9.57343,21.3652,21.3652v402.48239c0,11.79178-9.57343,21.3652-21.3652,21.3652H53.7593c-11.79205,0-21.3657-9.57365-21.3657-21.3657V54.25925c0-11.79205,9.57365-21.3657,21.3657-21.3657Z"/>
  </g>
  <g>
    <polygon class="cls-2" points="207.53995 302.91978 126.55214 304.16081 151.14355 328.75222 61.53835 418.35742 92.10232 448.92139 181.70752 359.31619 206.29892 383.9076 207.53995 302.91978"/>
    <polygon class="cls-2" points="304.46005 302.91978 385.44786 304.16081 360.85645 328.75222 450.46165 418.35742 419.89768 448.92139 330.29248 359.31619 305.70108 383.9076 304.46005 302.91978"/>
    <polygon class="cls-2" points="304.46005 209.08022 385.44786 207.83919 360.85645 183.24778 450.46165 93.64258 419.89768 63.07861 330.29248 152.68381 305.70108 128.0924 304.46005 209.08022"/>
    <polygon class="cls-2" points="207.53995 209.08022 126.55214 207.83919 151.14355 183.24778 61.53835 93.64258 92.10232 63.07861 181.70752 152.68381 206.29892 128.0924 207.53995 209.08022"/>
    <g>
      <circle class="cls-2" cx="255.52701" cy="256.07055" r="30.73825"/>
      <rect class="cls-3" x="80.00505" y="249.71138" width="268.34175" height="1.85362" transform="translate(-37.29698 463.83343) rotate(-89.77619)"/>
      <rect class="cls-3" x="162.46235" y="249.71138" width="268.34175" height="1.85362" transform="translate(44.83823 546.2901) rotate(-89.77619)"/>
      <rect class="cls-3" x="260.0749" y="81.38929" width="1.85362" height="268.34175" transform="translate(44.42366 475.71786) rotate(-89.77619)"/>
      <rect class="cls-3" x="260.0749" y="161.18885" width="1.85362" height="268.34175" transform="translate(-35.37529 555.2057) rotate(-89.77619)"/>
    </g>
  </g>
</svg>