<?xml version="1.0" encoding="UTF-8"?>
<svg id="Layer_1" data-name="Layer 1" xmlns="http://www.w3.org/2000/svg" viewBox="0 0 512 512">
  <defs>
    <style>
      .cls-1 {
        fill: #fff;
      }

      .cls-2 {
        fill: red;
      }

      .cls-3 {
        fill: #00d200;
      }

      .cls-4 {
        fill: #1f1e1f;
      }

      .cls-5 {
        fill: #99989a;
      }

      .cls-6 {
        fill: #f5f500;
      }
    </style>
  </defs>
  <rect id="bg" width="512" height="512"/>
  <g>
    <polygon class="cls-1" points="192.88 79.85 179.3 69.88 165.62 79.71 170.91 63.72 157.33 53.74 174.17 53.83 179.46 37.84 184.59 53.88 201.43 53.97 187.75 63.8 192.88 79.85"/>
    <g id="Sort">
      <g>
        <path class="cls-1" d="M244.41,41.63h8.64l3.04,8.89h6.04l-10.38-30.25h-5.86l-10.34,30.25h5.91l2.95-8.89ZM245.84,36.78l2.34-6.87c.18-.55.35-1.13.52-1.73.17.58.36,1.17.57,1.79l2.33,6.81h-5.76Z"/>
        <polygon class="cls-1" points="261.04 67.18 261.04 63.76 237.88 63.76 237.88 68.61 252.77 68.61 236.4 88.72 236.4 92.07 261.27 92.07 261.27 87.22 244.75 87.22 261.04 67.18"/>
      </g>
      <path id="arrow" class="cls-1" d="M298.57,76.28c0-16.37.02-32.73.03-49.1-5.74.03-11.48.05-17.22.08-.01,16.34-.02,32.68-.03,49.03-4.17,0-8.33.02-12.5.02l21.03,19.27,21.03-19.27c-4.11,0-8.22-.02-12.33-.03Z"/>
    </g>
    <g id="Alphabetical">
      <g>
        <g>
          <path class="cls-1" d="M123.75,120.9h8.64l3.04,8.89h6.04l-10.38-30.25h-5.86l-10.34,30.25h5.91l2.95-8.89ZM125.18,116.05l2.34-6.87c.18-.55.35-1.13.52-1.73.17.58.36,1.17.57,1.79l2.33,6.81h-5.76Z"/>
          <polygon class="cls-1" points="140.38 146.45 140.38 143.03 117.22 143.03 117.22 147.88 132.11 147.88 115.74 167.99 115.74 171.33 140.61 171.33 140.61 166.48 124.09 166.48 140.38 146.45"/>
        </g>
        <path id="arrow-2" data-name="arrow" class="cls-1" d="M179.46,155.55c0-16.37.02-32.73.03-49.1-5.74.03-11.48.05-17.22.08-.01,16.34-.02,32.68-.03,49.03-4.17,0-8.33.02-12.5.02l21.03,19.27,21.03-19.27c-4.11,0-8.22-.02-12.33-.03Z"/>
      </g>
      <g id="Alphabetical-2" data-name="Alphabetical">
        <path class="cls-1" d="M213.8,141.13l-2.52,7.63h-3.24l8.24-24.26h3.78l8.28,24.26h-3.35l-2.59-7.63h-8.6ZM221.76,138.68l-2.38-6.98c-.54-1.58-.9-3.02-1.26-4.43h-.07c-.36,1.44-.76,2.92-1.22,4.39l-2.38,7.02h7.31Z"/>
        <path class="cls-1" d="M231.7,123.21h3.17v25.56h-3.17v-25.56Z"/>
        <path class="cls-1" d="M240.19,137.03c0-2.23-.07-4.03-.14-5.69h2.84l.14,2.99h.07c1.3-2.12,3.35-3.38,6.19-3.38,4.21,0,7.38,3.56,7.38,8.85,0,6.26-3.82,9.36-7.92,9.36-2.3,0-4.32-1.01-5.36-2.74h-.07v9.47h-3.13v-18.86ZM243.32,141.67c0,.47.07.9.14,1.3.58,2.2,2.48,3.71,4.75,3.71,3.35,0,5.29-2.74,5.29-6.73,0-3.49-1.84-6.48-5.18-6.48-2.16,0-4.18,1.55-4.79,3.92-.11.4-.22.86-.22,1.3v2.99Z"/>
        <path class="cls-1" d="M260.68,123.21h3.17v10.87h.07c.5-.9,1.3-1.69,2.27-2.23.94-.54,2.05-.9,3.24-.9,2.34,0,6.08,1.44,6.08,7.45v10.37h-3.17v-10.01c0-2.81-1.04-5.18-4.03-5.18-2.05,0-3.67,1.44-4.25,3.17-.18.43-.22.9-.22,1.51v10.51h-3.17v-25.56Z"/>
        <path class="cls-1" d="M290.3,148.76l-.25-2.2h-.11c-.97,1.37-2.84,2.59-5.33,2.59-3.53,0-5.33-2.48-5.33-5,0-4.21,3.74-6.52,10.47-6.48v-.36c0-1.44-.4-4.03-3.96-4.03-1.62,0-3.31.5-4.54,1.3l-.72-2.09c1.44-.94,3.53-1.55,5.72-1.55,5.33,0,6.62,3.64,6.62,7.13v6.52c0,1.51.07,2.99.29,4.18h-2.88ZM289.84,139.87c-3.46-.07-7.38.54-7.38,3.92,0,2.05,1.37,3.02,2.99,3.02,2.27,0,3.71-1.44,4.21-2.92.11-.32.18-.68.18-1.01v-3.02Z"/>
        <path class="cls-1" d="M297.86,148.76c.07-1.19.14-2.95.14-4.5v-21.06h3.13v10.94h.07c1.12-1.94,3.13-3.2,5.94-3.2,4.32,0,7.38,3.6,7.34,8.89,0,6.23-3.92,9.32-7.81,9.32-2.52,0-4.54-.97-5.83-3.28h-.11l-.14,2.88h-2.74ZM301.14,141.78c0,.4.07.79.14,1.15.61,2.2,2.45,3.71,4.75,3.71,3.31,0,5.29-2.7,5.29-6.7,0-3.49-1.8-6.48-5.18-6.48-2.16,0-4.18,1.48-4.82,3.89-.07.36-.18.79-.18,1.3v3.13Z"/>
        <path class="cls-1" d="M320.25,140.63c.07,4.28,2.81,6.05,5.98,6.05,2.27,0,3.63-.4,4.82-.9l.54,2.27c-1.12.5-3.02,1.08-5.8,1.08-5.36,0-8.57-3.53-8.57-8.78s3.1-9.4,8.17-9.4c5.69,0,7.2,5,7.2,8.21,0,.65-.07,1.15-.11,1.48h-12.24ZM329.54,138.36c.04-2.02-.83-5.15-4.39-5.15-3.2,0-4.61,2.95-4.86,5.15h9.25Z"/>
        <path class="cls-1" d="M340.34,126.34v5h4.54v2.41h-4.54v9.4c0,2.16.61,3.38,2.38,3.38.83,0,1.44-.11,1.83-.22l.14,2.38c-.61.25-1.58.43-2.81.43-1.48,0-2.66-.47-3.42-1.33-.9-.94-1.22-2.48-1.22-4.54v-9.5h-2.7v-2.41h2.7v-4.18l3.1-.83Z"/>
        <path class="cls-1" d="M351.97,126.45c.04,1.08-.76,1.94-2.02,1.94-1.12,0-1.91-.86-1.91-1.94s.83-1.98,1.98-1.98,1.94.86,1.94,1.98ZM348.44,148.76v-17.42h3.17v17.42h-3.17Z"/>
        <path class="cls-1" d="M369.29,148.12c-.83.43-2.66,1.01-5,1.01-5.26,0-8.67-3.56-8.67-8.89s3.67-9.25,9.36-9.25c1.87,0,3.53.47,4.39.9l-.72,2.45c-.76-.43-1.94-.83-3.67-.83-4,0-6.16,2.95-6.16,6.59,0,4.03,2.59,6.52,6.05,6.52,1.8,0,2.99-.47,3.89-.86l.54,2.38Z"/>
        <path class="cls-1" d="M382.64,148.76l-.25-2.2h-.11c-.97,1.37-2.84,2.59-5.33,2.59-3.53,0-5.33-2.48-5.33-5,0-4.21,3.74-6.52,10.47-6.48v-.36c0-1.44-.4-4.03-3.96-4.03-1.62,0-3.31.5-4.54,1.3l-.72-2.09c1.44-.94,3.53-1.55,5.72-1.55,5.33,0,6.62,3.64,6.62,7.13v6.52c0,1.51.07,2.99.29,4.18h-2.88ZM382.17,139.87c-3.46-.07-7.38.54-7.38,3.92,0,2.05,1.37,3.02,2.99,3.02,2.27,0,3.71-1.44,4.21-2.92.11-.32.18-.68.18-1.01v-3.02Z"/>
        <path class="cls-1" d="M390.35,123.21h3.17v25.56h-3.17v-25.56Z"/>
      </g>
    </g>
    <g id="Status">
      <path id="arrow-3" data-name="arrow" class="cls-1" d="M179.46,261.15c0-16.37.02-32.73.03-49.1-5.74.03-11.48.05-17.22.08-.01,16.34-.02,32.68-.03,49.03-4.17,0-8.33.02-12.5.02l21.03,19.27,21.03-19.27c-4.11,0-8.22-.02-12.33-.03Z"/>
      <g>
        <circle class="cls-3" cx="128.13" cy="215.63" r="12.39"/>
        <circle class="cls-6" cx="128.13" cy="242.01" r="12.39"/>
        <circle class="cls-2" cx="128.13" cy="267.66" r="12.39"/>
      </g>
      <g id="Status-2" data-name="Status">
        <path class="cls-1" d="M210.35,251.36c1.4.86,3.46,1.58,5.62,1.58,3.2,0,5.08-1.69,5.08-4.14,0-2.27-1.3-3.56-4.57-4.82-3.96-1.4-6.41-3.46-6.41-6.88,0-3.78,3.13-6.59,7.85-6.59,2.48,0,4.28.58,5.36,1.19l-.86,2.56c-.79-.43-2.41-1.15-4.61-1.15-3.31,0-4.57,1.98-4.57,3.64,0,2.27,1.48,3.38,4.82,4.68,4.1,1.58,6.19,3.56,6.19,7.13,0,3.74-2.77,6.98-8.49,6.98-2.34,0-4.9-.68-6.19-1.55l.79-2.63Z"/>
        <path class="cls-1" d="M232.13,232.75v5h4.54v2.41h-4.54v9.4c0,2.16.61,3.38,2.38,3.38.83,0,1.44-.11,1.84-.22l.14,2.38c-.61.25-1.58.43-2.81.43-1.48,0-2.66-.47-3.42-1.33-.9-.94-1.22-2.48-1.22-4.54v-9.5h-2.7v-2.41h2.7v-4.18l3.1-.83Z"/>
        <path class="cls-1" d="M249.88,255.18l-.25-2.2h-.11c-.97,1.37-2.84,2.59-5.33,2.59-3.53,0-5.33-2.48-5.33-5,0-4.21,3.74-6.52,10.47-6.48v-.36c0-1.44-.4-4.03-3.96-4.03-1.62,0-3.31.5-4.54,1.3l-.72-2.09c1.44-.94,3.53-1.55,5.72-1.55,5.33,0,6.62,3.64,6.62,7.13v6.52c0,1.51.07,2.99.29,4.18h-2.88ZM249.41,246.29c-3.46-.07-7.38.54-7.38,3.92,0,2.05,1.37,3.02,2.99,3.02,2.27,0,3.71-1.44,4.21-2.92.11-.32.18-.68.18-1.01v-3.02Z"/>
        <path class="cls-1" d="M261.25,232.75v5h4.54v2.41h-4.54v9.4c0,2.16.61,3.38,2.38,3.38.83,0,1.44-.11,1.84-.22l.14,2.38c-.61.25-1.58.43-2.81.43-1.48,0-2.66-.47-3.42-1.33-.9-.94-1.22-2.48-1.22-4.54v-9.5h-2.7v-2.41h2.7v-4.18l3.1-.83Z"/>
        <path class="cls-1" d="M283.93,250.43c0,1.8.04,3.38.14,4.75h-2.81l-.18-2.84h-.07c-.83,1.4-2.66,3.24-5.76,3.24-2.74,0-6.01-1.51-6.01-7.63v-10.19h3.17v9.65c0,3.31,1.01,5.54,3.89,5.54,2.12,0,3.6-1.48,4.18-2.88.18-.47.29-1.04.29-1.62v-10.69h3.17v12.67Z"/>
        <path class="cls-1" d="M288.75,251.94c.94.61,2.59,1.26,4.18,1.26,2.3,0,3.38-1.15,3.38-2.59,0-1.51-.9-2.34-3.24-3.2-3.13-1.12-4.61-2.84-4.61-4.93,0-2.81,2.27-5.11,6.01-5.11,1.76,0,3.31.5,4.28,1.08l-.79,2.3c-.68-.43-1.94-1.01-3.56-1.01-1.87,0-2.92,1.08-2.92,2.38,0,1.44,1.04,2.09,3.31,2.95,3.02,1.15,4.57,2.66,4.57,5.26,0,3.06-2.38,5.22-6.52,5.22-1.91,0-3.67-.47-4.89-1.19l.79-2.41Z"/>
      </g>
    </g>
    <g id="Unread">
      <path id="arrow-4" data-name="arrow" class="cls-1" d="M179.46,366.76c0-16.37.02-32.73.03-49.1-5.74.03-11.48.05-17.22.08-.01,16.34-.02,32.68-.03,49.03-4.17,0-8.33.02-12.5.02l21.03,19.27,21.03-19.27c-4.11,0-8.22-.02-12.33-.03Z"/>
      <g>
        <path class="cls-1" d="M114.78,330.11v32.53h42.28v-32.53h-42.28ZM136.44,346.37l16.71,13.27h-34.47l16.71-13.27-16.71-13.27h34.47l-16.71,13.27ZM151.06,338.6v15.54l-9.79-7.77,9.79-7.77ZM120.78,354.14v-15.54l9.79,7.77-9.79,7.77ZM117.78,333.11h0v26.53h0v-26.53Z"/>
        <circle class="cls-2" cx="135.92" cy="346.37" r="4.95"/>
      </g>
      <g id="Unread-2" data-name="Unread">
        <path class="cls-1" d="M213.91,337.33v14.36c0,5.44,2.41,7.74,5.65,7.74,3.6,0,5.9-2.38,5.9-7.74v-14.36h3.17v14.15c0,7.45-3.92,10.51-9.18,10.51-4.97,0-8.71-2.84-8.71-10.37v-14.29h3.17Z"/>
        <path class="cls-1" d="M233.96,348.88c0-1.8-.04-3.28-.14-4.71h2.81l.18,2.88h.07c.86-1.66,2.88-3.28,5.76-3.28,2.41,0,6.16,1.44,6.16,7.42v10.4h-3.17v-10.04c0-2.81-1.04-5.15-4.03-5.15-2.09,0-3.71,1.48-4.25,3.24-.14.4-.22.94-.22,1.48v10.47h-3.17v-12.71Z"/>
        <path class="cls-1" d="M253.94,349.61c0-2.05-.04-3.82-.14-5.44h2.77l.11,3.42h.14c.79-2.34,2.7-3.82,4.82-3.82.36,0,.61.04.9.11v2.99c-.32-.07-.65-.11-1.08-.11-2.23,0-3.82,1.69-4.25,4.07-.07.43-.14.94-.14,1.48v9.29h-3.13v-11.99Z"/>
        <path class="cls-1" d="M267.12,353.46c.07,4.28,2.81,6.05,5.98,6.05,2.27,0,3.64-.4,4.82-.9l.54,2.27c-1.12.5-3.02,1.08-5.8,1.08-5.36,0-8.57-3.53-8.57-8.78s3.1-9.4,8.17-9.4c5.69,0,7.2,5,7.2,8.21,0,.65-.07,1.15-.11,1.48h-12.24ZM276.41,351.19c.04-2.02-.83-5.15-4.39-5.15-3.2,0-4.61,2.95-4.86,5.15h9.25Z"/>
        <path class="cls-1" d="M293.04,361.59l-.25-2.2h-.11c-.97,1.37-2.84,2.59-5.33,2.59-3.53,0-5.33-2.48-5.33-5,0-4.21,3.74-6.52,10.48-6.48v-.36c0-1.44-.4-4.03-3.96-4.03-1.62,0-3.31.5-4.54,1.3l-.72-2.09c1.44-.94,3.53-1.55,5.72-1.55,5.33,0,6.62,3.64,6.62,7.13v6.51c0,1.51.07,2.99.29,4.18h-2.88ZM292.57,352.7c-3.46-.07-7.38.54-7.38,3.92,0,2.05,1.37,3.02,2.99,3.02,2.27,0,3.71-1.44,4.21-2.92.11-.32.18-.68.18-1.01v-3.02Z"/>
        <path class="cls-1" d="M315.79,336.03v21.06c0,1.55.04,3.31.14,4.5h-2.84l-.14-3.02h-.07c-.97,1.94-3.1,3.42-5.94,3.42-4.21,0-7.45-3.56-7.45-8.85-.04-5.8,3.56-9.36,7.81-9.36,2.66,0,4.46,1.26,5.26,2.66h.07v-10.4h3.17ZM312.62,351.26c0-.4-.04-.94-.14-1.33-.47-2.02-2.2-3.67-4.57-3.67-3.28,0-5.22,2.88-5.22,6.73,0,3.53,1.73,6.44,5.15,6.44,2.12,0,4.07-1.4,4.64-3.78.11-.43.14-.86.14-1.37v-3.02Z"/>
      </g>
    </g>
    <g id="Distance">
      <g>
        <path id="arrow-5" data-name="arrow" class="cls-1" d="M179.65,473.43c0-16.37.02-32.73.03-49.1-5.87.03-11.74.05-17.61.08-.01,16.34-.02,32.68-.04,49.03-4.26,0-8.52.02-12.78.02l21.5,19.27,21.5-19.27c-4.2,0-8.4-.02-12.61-.03Z"/>
        <rect class="cls-1" x="114.12" y="424.34" width="42.28" height="8.56"/>
        <rect class="cls-1" x="127.66" y="442.5" width="30.06" height="8.56"/>
        <rect class="cls-1" x="138.56" y="460.67" width="17.83" height="8.56"/>
      </g>
      <g id="Distance-2" data-name="Distance">
        <path class="cls-1" d="M210.78,444.07c1.91-.29,4.18-.5,6.66-.5,4.5,0,7.7,1.04,9.83,3.02,2.16,1.98,3.42,4.79,3.42,8.71s-1.22,7.2-3.49,9.43c-2.27,2.27-6.01,3.49-10.73,3.49-2.23,0-4.1-.11-5.69-.29v-23.87ZM213.91,465.52c.79.14,1.94.18,3.17.18,6.7,0,10.33-3.74,10.33-10.29.04-5.72-3.2-9.36-9.83-9.36-1.62,0-2.84.14-3.67.32v19.15Z"/>
        <path class="cls-1" d="M238.18,445.69c.04,1.08-.76,1.94-2.02,1.94-1.12,0-1.91-.86-1.91-1.94s.83-1.98,1.98-1.98,1.94.86,1.94,1.98ZM234.65,468.01v-17.42h3.17v17.42h-3.17Z"/>
        <path class="cls-1" d="M242.64,464.77c.94.61,2.59,1.26,4.18,1.26,2.3,0,3.38-1.15,3.38-2.59,0-1.51-.9-2.34-3.24-3.2-3.13-1.12-4.61-2.84-4.61-4.93,0-2.81,2.27-5.11,6.01-5.11,1.76,0,3.31.5,4.28,1.08l-.79,2.3c-.68-.43-1.94-1.01-3.56-1.01-1.87,0-2.92,1.08-2.92,2.38,0,1.44,1.04,2.09,3.31,2.95,3.02,1.15,4.57,2.66,4.57,5.26,0,3.06-2.38,5.22-6.52,5.22-1.91,0-3.67-.47-4.9-1.19l.79-2.41Z"/>
        <path class="cls-1" d="M261.14,445.58v5h4.54v2.41h-4.54v9.4c0,2.16.61,3.38,2.38,3.38.83,0,1.44-.11,1.84-.22l.14,2.38c-.61.25-1.58.43-2.81.43-1.48,0-2.66-.47-3.42-1.33-.9-.94-1.22-2.48-1.22-4.54v-9.5h-2.7v-2.41h2.7v-4.18l3.1-.83Z"/>
        <path class="cls-1" d="M278.89,468.01l-.25-2.2h-.11c-.97,1.37-2.84,2.59-5.33,2.59-3.53,0-5.33-2.48-5.33-5,0-4.21,3.74-6.52,10.47-6.48v-.36c0-1.44-.4-4.03-3.96-4.03-1.62,0-3.31.5-4.54,1.3l-.72-2.09c1.44-.94,3.53-1.55,5.72-1.55,5.33,0,6.62,3.64,6.62,7.13v6.51c0,1.51.07,2.99.29,4.18h-2.88ZM278.42,459.11c-3.46-.07-7.38.54-7.38,3.92,0,2.05,1.37,3.02,2.99,3.02,2.27,0,3.71-1.44,4.21-2.92.11-.32.18-.68.18-1.01v-3.02Z"/>
        <path class="cls-1" d="M286.59,455.3c0-1.8-.04-3.28-.14-4.71h2.81l.18,2.88h.07c.86-1.66,2.88-3.28,5.76-3.28,2.41,0,6.16,1.44,6.16,7.42v10.4h-3.17v-10.04c0-2.81-1.04-5.15-4.03-5.15-2.09,0-3.71,1.48-4.25,3.24-.14.4-.22.94-.22,1.48v10.47h-3.17v-12.71Z"/>
        <path class="cls-1" d="M318.99,467.36c-.83.43-2.66,1.01-5,1.01-5.26,0-8.67-3.56-8.67-8.89s3.67-9.25,9.36-9.25c1.87,0,3.53.47,4.39.9l-.72,2.45c-.76-.43-1.94-.83-3.67-.83-4,0-6.16,2.95-6.16,6.59,0,4.03,2.59,6.51,6.05,6.51,1.8,0,2.99-.47,3.89-.86l.54,2.38Z"/>
        <path class="cls-1" d="M324.25,459.87c.07,4.28,2.81,6.05,5.98,6.05,2.27,0,3.63-.4,4.82-.9l.54,2.27c-1.12.5-3.02,1.08-5.8,1.08-5.36,0-8.57-3.53-8.57-8.78s3.1-9.4,8.17-9.4c5.69,0,7.2,5,7.2,8.21,0,.65-.07,1.15-.11,1.48h-12.24ZM333.54,457.6c.04-2.02-.83-5.15-4.39-5.15-3.2,0-4.61,2.95-4.86,5.15h9.25Z"/>
      </g>
    </g>
    <rect class="cls-4" x="107.45" y="188.49" width="296.45" height="2.97"/>
    <rect class="cls-4" x="107.45" y="400.04" width="296.45" height="2.97"/>
    <rect class="cls-4" x="109.1" y="294.26" width="296.45" height="2.97"/>
    <path id="magnifying_glass" data-name="magnifying glass" class="cls-5" d="M393.53,77.58l-9.83-9.83c-1.82-1.82-4.58-2.08-6.69-.83l-2.68-2.68c3.39-3.6,5.48-8.44,5.48-13.78,0-11.12-9.02-20.14-20.14-20.14s-20.14,9.02-20.14,20.14,9.02,20.14,20.14,20.14c4.8,0,9.21-1.69,12.67-4.5l2.75,2.75c-1.25,2.11-.99,4.87.83,6.69l9.83,9.83c2.15,2.15,5.64,2.15,7.78,0s2.15-5.64,0-7.78ZM359.67,65.59c-8.35,0-15.14-6.79-15.14-15.14s6.79-15.14,15.14-15.14,15.14,6.79,15.14,15.14-6.79,15.14-15.14,15.14Z"/>
  </g>
</svg>