<?xml version="1.0" encoding="UTF-8"?>
<svg id="Layer_1" data-name="Layer 1" xmlns="http://www.w3.org/2000/svg" viewBox="0 0 512 512">
  <defs>
    <style>
      .cls-1 {
        fill: #fff;
      }
    </style>
  </defs>
  <rect id="bg" width="512" height="512"/>
  <g>
    <g>
      <circle class="cls-1" cx="184.38" cy="249.19" r="30.32"/>
      <circle class="cls-1" cx="256.24" cy="249.19" r="30.32"/>
      <circle class="cls-1" cx="328.1" cy="249.19" r="30.32"/>
    </g>
    <path class="cls-1" d="M256.5,130.21c42.43,0,82.03,13.22,111.52,37.23,27.49,22.38,42.63,51.54,42.63,82.1s-15.14,59.72-42.63,82.1c-29.48,24.01-69.09,37.23-111.52,37.23-14.69,0-29.24-1.62-43.23-4.81l-6.6-1.5-6.66,1.19-71.01,12.69,7.79-28.68,4.73-17.4-11.99-13.46c-17.78-19.96-27.18-43.25-27.18-67.35,0-30.56,15.14-59.72,42.63-82.1,29.48-24.01,69.09-37.23,111.52-37.23M256.5,96.92c-103.52,0-187.43,68.33-187.43,152.62,0,33.43,13.21,64.35,35.6,89.49l-17.83,65.65c-1.59,5.86,2.9,11.41,8.68,11.41.53,0,1.08-.05,1.63-.15l108.72-19.43c16.11,3.67,33.08,5.64,50.63,5.64,103.52,0,187.43-68.33,187.43-152.62s-83.92-152.62-187.43-152.62h0Z"/>
  </g>
</svg>