<?xml version="1.0" encoding="UTF-8"?>
<svg id="Layer_1" data-name="Layer 1" xmlns="http://www.w3.org/2000/svg" viewBox="0 0 512 512">
  <defs>
    <style>
      .cls-1 {
        fill: #fff;
      }
    </style>
  </defs>
  <rect id="bg" width="512" height="512"/>
  <path class="cls-1" d="M259,57.5c26.13,0,51.47,5.11,75.31,15.2,23.04,9.75,43.74,23.7,61.51,41.47,17.78,17.78,31.73,38.47,41.47,61.51,10.09,23.85,15.2,49.19,15.2,75.31s-5.11,51.47-15.2,75.31c-9.75,23.04-23.7,43.74-41.47,61.51-17.78,17.78-38.47,31.73-61.51,41.47-23.85,10.09-49.19,15.2-75.31,15.2s-51.47-5.11-75.31-15.2c-23.04-9.75-43.74-23.7-61.51-41.47-17.78-17.78-31.73-38.47-41.47-61.51-10.09-23.85-15.2-49.19-15.2-75.31s5.11-51.47,15.2-75.31c9.75-23.04,23.7-43.74,41.47-61.51,17.78-17.78,38.47-31.73,61.51-41.47,23.85-10.09,49.19-15.2,75.31-15.2M259,42.5c-115.15,0-208.5,93.35-208.5,208.5s93.35,208.5,208.5,208.5,208.5-93.35,208.5-208.5S374.15,42.5,259,42.5h0Z"/>
  <path class="cls-1" d="M347.9,243.29h-82.51v-82.51c0-3.4-2.76-6.17-6.17-6.17s-6.17,2.76-6.17,6.17v82.51h-82.51c-3.4,0-6.17,2.76-6.17,6.17h0c0,3.4,2.76,6.17,6.17,6.17h82.51v82.51c0,3.4,2.76,6.17,6.17,6.17s6.17-2.76,6.17-6.17v-82.51h82.51c3.4,0,6.17-2.76,6.17-6.17h0c0-3.4-2.76-6.17-6.17-6.17Z"/>
</svg>