<?xml version="1.0" encoding="UTF-8"?>
<svg id="Layer_1" data-name="Layer 1" xmlns="http://www.w3.org/2000/svg" viewBox="0 0 512 512">
  <defs>
    <style>
      .cls-1 {
        fill: #fff;
      }
    </style>
  </defs>
  <rect id="bg" width="512" height="512"/>
  <path class="cls-1" d="M408.93,130.36h-82.24v10h82.24c7.78,0,14.11,6.33,14.11,14.11v239.12c0,7.78-6.33,14.11-14.11,14.11H107.72c-7.78,0-14.11-6.33-14.11-14.11v-239.12c0-7.78,6.33-14.11,14.11-14.11h83.56v-10h-83.56c-13.32,0-24.11,10.79-24.11,24.11v239.12c0,13.32,10.79,24.11,24.11,24.11h301.21c13.32,0,24.11-10.79,24.11-24.11v-239.12c0-13.32-10.79-24.11-24.11-24.11Z"/>
  <path class="cls-1" d="M312.59,241.91h-30.33V66.29h-51.52v175.62h-30.33c-2.55,0-3.84,3.07-2.05,4.89l56.09,57.21c1.13,1.15,2.98,1.15,4.11,0l56.09-57.21c1.78-1.82.49-4.89-2.05-4.89Z"/>
</svg>