<?xml version="1.0" encoding="UTF-8"?>
<svg id="Layer_1" data-name="Layer 1" xmlns="http://www.w3.org/2000/svg" xmlns:xlink="http://www.w3.org/1999/xlink" viewBox="0 0 512 512">
  <defs>
    <style>
      .cls-1 {
        fill: #585858;
      }

      .cls-2 {
        fill: #fff;
      }

      .cls-3 {
        fill: url(#linear-gradient);
      }
    </style>
    <linearGradient id="linear-gradient" x1="255" y1="478.61" x2="255" y2="33.39" gradientUnits="userSpaceOnUse">
      <stop offset="0" stop-color="#070808"/>
      <stop offset="1" stop-color="#30302f"/>
    </linearGradient>
  </defs>
  <g>
    <rect id="bg" width="512" height="512"/>
    <path id="gray_border" data-name="gray border" class="cls-1" d="M455.24,487.11H52.76c-16.74,0-30.37-13.62-30.37-30.37V54.26c0-16.74,13.62-30.37,30.37-30.37h402.48c16.74,0,30.37,13.62,30.37,30.37v402.48c0,16.74-13.62,30.37-30.37,30.37h0Z"/>
    <path id="gradient" class="cls-3" d="M53.76,33.39h402.48c11.79,0,21.37,9.57,21.37,21.37v402.48c0,11.79-9.57,21.37-21.37,21.37H53.76c-11.79,0-21.37-9.57-21.37-21.37V54.76c0-11.79,9.57-21.37,21.37-21.37Z"/>
  </g>
  <g>
    <path class="cls-2" d="M369.83,208.62c-6.2-14.65-15.06-27.8-26.36-39.1-11.29-11.29-24.45-20.16-39.09-26.36-15.17-6.42-31.28-9.67-47.88-9.67s-32.71,3.25-47.88,9.67c-14.65,6.2-27.8,15.06-39.1,26.36-11.29,11.29-20.16,24.45-26.36,39.1-6.42,15.17-9.67,31.29-9.67,47.99v.1s0,.2,0,.2c0,16.54,3.24,32.6,9.62,47.71,6.16,14.6,14.98,27.71,26.22,38.96s24.32,20.1,38.89,26.27c15.09,6.4,31.12,9.64,47.63,9.64h.64c16.6,0,32.71-3.25,47.88-9.67,14.65-6.2,27.8-15.06,39.09-26.36,11.29-11.29,20.16-24.45,26.36-39.09,6.42-15.17,9.67-31.28,9.67-47.88s-3.25-32.71-9.67-47.88ZM146.61,256.5c0-60.6,49.3-109.89,109.89-109.89s109.89,49.3,109.89,109.89-49.29,109.89-109.79,109.9h-.54s-.31,0-.31,0c-60.19-.05-109.16-49.14-109.16-109.36v-.33s0-.21,0-.21Z"/>
    <path class="cls-2" d="M372.93,258.3c0,9.29-1.17,18.31-3.36,26.91-1.01-.7-3.69,2.19-4.35-1.64-.83-4.75-6.18-8.05-9.07-5.78s-11.12,8.87-11.53,13c-.42,4.13-3.92,9.08-5.56,5.58-1.65-3.51-6.59-14.45-6.39-17.34.2-2.89-2.27,1.03-5.97-4.75-3.71-5.78-10.1-.83-15.25-3.72-5.15-2.89-10.92-6.81-13.81-8.05-2.88-1.24,5.15,11.56,6.18,9.91,1.04-1.65,5.15,1.24,6.39,1.24s4.53,2.89,2.47,5.57-20.39,13.84-22.25,10.94c-1.86-2.9-12.77-25.39-14.63-24.01-1.86,1.38,11.54,24.83,13.81,26.28,2.26,1.45,9.06.21,12.36-1.23,3.3-1.44-6.8,16.1-11.12,18.17-4.32,2.06-7.83,8.46-5.98,11.35,1.86,2.89,2.06,13.83-1.85,15.28-3.92,1.44-5.36,3.71-4.13,6.4,1.23,2.68-2.88,7.22-4.74,10.11-1.86,2.89-9.06,8.87-9.68,10.53-.61,1.65-9.47,1.24-12.98,1.24s-.82-4.34-1.24-8.05c-.4-3.72-3.49-7.23-3.49-9.08s-1.04-6.2-2.47-8.26c-1.44-2.07-1.86-5.99-.42-8.26,1.45-2.27,2.47-8.87-.4-11.77-2.89-2.89-6.19-7.84-3.92-11.77,2.27-3.92-2.47-3.51-6.39-5.37-3.92-1.86-11.95.62-16.07,1.24-4.12.62-8.24-1.03-9.47-3.1-1.23-2.06-3.91-7.22-6.66-8.46-2.74-1.23-1.17-6.6.48-8.66,1.65-2.06-1.65-5.99,0-7.64,1.65-1.65,2.68-7.63,5.97-8.94,3.3-1.3,2.68-2.2,2.78-5.3.1-3.1,3.71-3.1,4.32-4.75.62-1.65,2.47-2.48,6.19-2.48s9.98-2.17,12.97-2.89,8.14-1.75,7.72,1.14c-.41,2.89-.31,6.19,1.65,6.19s4.64,1.14,7.73,3.06c3.09,1.92,3.19.35,3.61-1.82s4.74-1.34,9.21.72c4.47,2.07,10.57.62,12.52.42,1.96-.21,2.79-6.09,2.27-8.05-.52-1.96-3.61.93-5.56-.31-1.96-1.23-4.64.31-6.59-1.45-1.96-1.75-2.27-5.88,0-5.98,2.26-.1,3.4-.83,4.74-2.37,1.34-1.55,6.39-2.48,8.35-.93,1.95,1.55,4.84,2.58,6.59.83,1.75-1.75-3.49-5.15-4.63-6.09-1.13-.93-.21-3.92-1.34-3.92s-2.07.51-1.44,1.96c.62,1.44-3.3,4.02-3.92,2.58-.61-1.45-1.64-4.23-3.19-4.23s-3.6,7.02-3.71,8.15c-.1,1.14-2.78,2.99-4.94,2.99s-2.16,2.48-1.03,3.62c1.13,1.13.31,5.67-1.75,5.93-2.06.26-2.78-.47-3.09-2.22-.31-1.75-2.37-1.54-2.47-5.16s-2.37-5.36-3.81-7.02-5.15-6.5-6.59-4.33,5.15,6.81,6.9,8.05c1.76,1.24,1.45,3.92.52,4.54s-2.68,5.68-3.71,6.09c-1.04.41-2.02-1.54-2.02-1.54-1.54-.62,2.16-2.48,2.78-3.4.61-.93-6.49-7.43-7.77-9.29s-6.75,1.54-9.22.31c-2.47-1.23-6.18,4.64-6.49,8.05-.31,3.41-4.33,4.33-8.04,4.33s-6.18-2.78-4.94-5.57c1.23-2.79-.62-7.43,1.54-7.74,2.16-.31,8.33,0,9.57-3.4,1.23-3.4-5.87-6.5-3.09-7.12,2.78-.62,7.11-4.95,10.2-7.43,3.08-2.48,3.39-5.57,6.17-5.79,2.79-.21-.61-5.36,1.86-6.91,2.48-1.55,3.09,5.57,4.95,5.57s5.55-.62,8.65.93,4.02-1.55,5.26-5.58c1.23-4.02,4.32-6.19,10.5-9.28,6.18-3.1-7.1.93-9.58-2.17-2.47-3.1.93-9.91,2.48-14.72,1.54-4.81-4.95,4.81-8.35,9.77-3.4,4.95.93,7.12.61,10.52-.31,3.41-5.86,7.43-5.86,7.43-2.47.31-2.17-4.64-3.4-6.81-1.24-2.17-3.4-1.24-6.8,1.24s-3.71-5.88-4.63-9.29c-.92-3.4,5.56-7.74,8.61-10.05,3.04-2.32,8.07-13.47,13.64-22.14,5.57-8.67,13.6-4.34,15.76-.93,2.17,3.4,7.72,1.23,12.98,7.43,5.26,6.19-1.24,8.97-7.1,6.46-5.88-2.52,1.23,6.23,4.62,8.71,3.4,2.47,5.26-5.57,6.49-7.43,1.23-1.86,5.87-.93,9.26-5.88,3.4-4.95,11.12-4.02,15.53-3.48,4.41.55,3.31-2.71.54-5.38-2.06-1.97,2.15-.24,7.1,2.17,31.96,18.91,53.4,53.73,53.4,93.57"/>
    <path class="cls-2" d="M217.83,221.32c-1.02-1.06,1.04-5.23,1.96-6.47.93-1.24-2.58-.83-2.36.93.21,1.75-1.34,4.44-3.51,5.16s-4.63.51-3.4-1.45.1-3.71-.83-5.57c-.92-1.86,5.15-2.99,6.39-4.13,1.23-1.13-1.95-1.86-1.86-3.61.1-1.76.83-3.3,2.05-3.51,1.24-.21,2.39-1,3.51-.93,3.4.21,2.36,7.95,3.61,10.43,1.23,2.47,4.74,5.47,4.43,7.63-.31,2.17-.97,3.41-3.49,2.79-2.53-.62-6.59,3.2-8.14,2.48-1.55-.73,2.68-2.69,1.64-3.75"/>
    <path class="cls-2" d="M195.64,177.92c3.09,1.54,5.56-1.26,7.72-1.86,2.56-.71,4.02,8.36,1.55,8.05-2.47-.31-5.25,4.95-8.82,4.64-3.57-.31-1.99-2.78-6.01-6.5-.86-.8-1.21-1.52-1.25-2.15.86-.83,1.71-1.66,2.6-2.45,1.39-.37,3.04-.31,4.21.27"/>
    <path class="cls-2" d="M292.3,333.73c2.88-.62,2.33-6.11,4.95-6.4,5.56-.62.21,14.86-1.85,19.19-2.06,4.34-2.89,4.13-4.85,1.44-1.97-2.68-1.33-7.02,0-9.08,1.33-2.07-1.13-4.54,1.76-5.16"/>
    <path class="cls-2" d="M257.73,147.82c15.3,0,30.15,3,44.12,8.91,13.5,5.71,25.62,13.88,36.03,24.29,10.41,10.41,18.58,22.53,24.29,36.03,5.91,13.97,8.91,28.81,8.91,44.12s-3,30.15-8.91,44.12c-5.71,13.5-13.88,25.62-24.29,36.03-10.41,10.41-22.53,18.58-36.03,24.29-13.97,5.91-28.81,8.91-44.12,8.91s-30.15-3-44.12-8.91c-13.5-5.71-25.62-13.88-36.03-24.29-10.41-10.41-18.58-22.53-24.29-36.03-5.91-13.97-8.91-28.81-8.91-44.12s3-30.15,8.91-44.12c5.71-13.5,13.88-25.62,24.29-36.03s22.53-18.58,36.03-24.29c13.97-5.91,28.81-8.91,44.12-8.91M257.73,144.71c-64.31,0-116.45,52.14-116.45,116.45s52.14,116.45,116.45,116.45,116.45-52.14,116.45-116.45-52.14-116.45-116.45-116.45h0Z"/>
  </g>
</svg>