<?xml version="1.0" encoding="UTF-8"?>
<svg id="Layer_1" data-name="Layer 1" xmlns="http://www.w3.org/2000/svg" xmlns:xlink="http://www.w3.org/1999/xlink" viewBox="0 0 512 512">
  <defs>
    <style>
      .cls-1 {
        fill: #585858;
      }

      .cls-2 {
        fill: #fff;
      }

      .cls-3 {
        fill: url(#linear-gradient);
      }
    </style>
    <linearGradient id="linear-gradient" x1="255" y1="478.61" x2="255" y2="33.39" gradientUnits="userSpaceOnUse">
      <stop offset="0" stop-color="#070808"/>
      <stop offset="1" stop-color="#30302f"/>
    </linearGradient>
  </defs>
  <g>
    <rect id="bg" width="512" height="512"/>
    <path id="gray_border" data-name="gray border" class="cls-1" d="M455.24,487.11H52.76c-16.74,0-30.37-13.62-30.37-30.37V54.26c0-16.74,13.62-30.37,30.37-30.37h402.48c16.74,0,30.37,13.62,30.37,30.37v402.48c0,16.74-13.62,30.37-30.37,30.37h0Z"/>
    <path id="gradient" class="cls-3" d="M53.76,33.39h402.48c11.79,0,21.37,9.57,21.37,21.37v402.48c0,11.79-9.57,21.37-21.37,21.37H53.76c-11.79,0-21.37-9.57-21.37-21.37V54.76c0-11.79,9.57-21.37,21.37-21.37Z"/>
  </g>
  <g>
    <path class="cls-2" d="M355.06,189.52v133h-198v-133h198M370.06,174.52h-228v163h228v-163h0Z"/>
    <polygon class="cls-2" points="110.27 361.9 110.27 319.9 90.27 319.9 90.27 361.9 90.27 381.9 110.27 381.9 148.27 381.9 148.27 361.9 110.27 361.9"/>
    <polygon class="cls-2" points="401.73 361.9 401.73 319.9 421.73 319.9 421.73 361.9 421.73 381.9 401.73 381.9 363.73 381.9 363.73 361.9 401.73 361.9"/>
    <polygon class="cls-2" points="401.73 150.1 401.73 192.1 421.73 192.1 421.73 150.1 421.73 130.1 401.73 130.1 363.73 130.1 363.73 150.1 401.73 150.1"/>
    <polygon class="cls-2" points="110.27 150.1 110.27 192.1 90.27 192.1 90.27 150.1 90.27 130.1 110.27 130.1 148.27 130.1 148.27 150.1 110.27 150.1"/>
    <polygon class="cls-2" points="300.85 244.06 270.2 244.06 270.2 213.4 245.2 213.4 245.2 244.06 214.54 244.06 214.54 269.06 245.2 269.06 245.2 299.72 270.2 299.72 270.2 269.06 300.85 269.06 300.85 244.06"/>
  </g>
</svg>