<?xml version="1.0" encoding="UTF-8"?>
<svg id="Layer_1" data-name="Layer 1" xmlns="http://www.w3.org/2000/svg" xmlns:xlink="http://www.w3.org/1999/xlink" viewBox="0 0 512 512">
  <defs>
    <style>
      .cls-1 {
        fill: #585858;
      }

      .cls-2 {
        fill: #fff;
      }

      .cls-3 {
        fill: url(#linear-gradient);
      }
    </style>
    <linearGradient id="linear-gradient" x1="255" y1="478.61" x2="255" y2="33.39" gradientUnits="userSpaceOnUse">
      <stop offset="0" stop-color="#070808"/>
      <stop offset="1" stop-color="#30302f"/>
    </linearGradient>
  </defs>
  <g>
    <rect id="bg" width="512" height="512"/>
    <path id="gray_border" data-name="gray border" class="cls-1" d="M455.24,487.11H52.76c-16.74,0-30.37-13.62-30.37-30.37V54.26c0-16.74,13.62-30.37,30.37-30.37h402.48c16.74,0,30.37,13.62,30.37,30.37v402.48c0,16.74-13.62,30.37-30.37,30.37h0Z"/>
    <path id="gradient" class="cls-3" d="M53.76,33.39h402.48c11.79,0,21.37,9.57,21.37,21.37v402.48c0,11.79-9.57,21.37-21.37,21.37H53.76c-11.79,0-21.37-9.57-21.37-21.37V54.76c0-11.79,9.57-21.37,21.37-21.37Z"/>
  </g>
  <g>
    <polygon class="cls-2" points="405.46 176.55 405.46 366.08 138.69 366.08 138.69 376.08 405.46 376.08 415.46 376.08 415.46 366.08 415.46 176.55 405.46 176.55"/>
    <circle class="cls-2" cx="187.17" cy="199.74" r="23.19"/>
    <path class="cls-2" d="M97.54,136.92v199h280v-199H97.54ZM367.54,146.92v124.15c-20.47-14.11-40.95-28.22-61.42-42.33-4.9-3.08-8.76-5.75-11.45-7.68-4.21-3.02-6.09-4.59-8.7-4.21-1.48.21-3.21,1.41-6.61,3.8-1.88,1.32-3.38,2.49-4.4,3.3-22.84,18.36-45.67,36.73-68.51,55.09-4.58-2.22-9.15-4.44-13.73-6.65-8.36-4.89-14.48-8.52-18.28-10.79-4.31-2.57-6.59-3.95-10-4.36-6.44-.77-11.94,2.53-14.99,4.8-13.76,9.36-27.52,18.72-41.28,28.07-.22.31-.42.62-.63.93v-144.12h260Z"/>
  </g>
</svg>