<?xml version="1.0" encoding="UTF-8"?>
<svg id="Layer_1" data-name="Layer 1" xmlns="http://www.w3.org/2000/svg" viewBox="0 0 512 512">
  <defs>
    <style>
      .cls-1 {
        fill: #fff;
      }
    </style>
  </defs>
  <rect id="bg" width="512" height="512"/>
  <g>
    <path class="cls-1" d="M445.46,51.5H67.54c-8.86,0-16.04,7.18-16.04,16.04v377.92c0,8.86,7.18,16.04,16.04,16.04h377.92c8.86,0,16.04-7.18,16.04-16.04V67.54c0-8.86-7.18-16.04-16.04-16.04ZM79.03,157.16l80.66-80.66h45.26l-80.66,80.66h-45.26ZM233.23,76.5h47.38l-80.66,80.66h-47.38l80.66-80.66ZM308.89,76.5h46.58l-80.66,80.66h-46.58l80.66-80.66ZM383.75,76.5h46.78l-80.66,80.66h-46.78l80.66-80.66ZM436.5,98.81v58.35h-58.35l58.35-58.35ZM131.4,76.5l-54.9,54.9v-54.9h54.9ZM76.5,436.5V177.16h360v259.34H76.5Z"/>
    <path class="cls-1" d="M214.53,262.97l80.02,39.93-80.02,39.93v-79.86M211.87,243.31c-8.05,0-15.34,6.47-15.34,15.36v88.47c0,8.89,7.29,15.36,15.34,15.36,2.27,0,4.6-.51,6.84-1.63l88.64-44.23c11.32-5.65,11.32-21.8,0-27.45l-88.64-44.23c-2.24-1.12-4.57-1.63-6.84-1.63h0Z"/>
  </g>
</svg>