<?xml version="1.0" encoding="UTF-8"?>
<svg id="Layer_1" data-name="Layer 1" xmlns="http://www.w3.org/2000/svg" viewBox="0 0 512 512">
  <defs>
    <style>
      .cls-1 {
        fill: #fff;
      }
    </style>
  </defs>
  <rect id="bg" width="512" height="512"/>
  <path class="cls-1" d="M261.94,74.02c-101.52,0-182.62,85.3-181.98,181.98.69,104.73,97,178.24,174.36,179.37,20.91.31,38.45-4.71,50.86-9.58,3.8-1.88,5.5-6.24,4.18-9.8-1.5-4.06-6.63-6.24-11.04-4.16-11.79,2.73-23.98,4.14-36.38,4.14-21.61,0-42.56-4.26-61.91-12.38,3.74-.66,7.32-2.36,10.27-4.99,4.41-3.93,7.03-9.58,7.19-15.48l.02-.82-.16-.81c-.3-1.56-.6-4.67.78-8.04,1.03-2.51,2.6-4.24,3.89-5.34,2.64-1.38,5.16-3,7.49-4.85,2.28-1.8,4.39-3.83,6.3-6.03l1.67-1.93.8-13.93c4.73-3.47,9.15-7.38,13.17-11.64,4.01-4.24,7.65-8.88,10.83-13.78l.27-.44c2.24-4.02,3.99-8.3,5.21-12.71.73-2.65,1.28-5.37,1.62-8.1l.09-.74-.05-.75c-.71-9.71-3.98-16.09-9.74-18.95-4.52-2.24-8.65-1.31-11.38-.7-1.54.35-2.44.53-3.11.36-1.42-.36-3.68-2.78-5.88-8.46-.4-4.04-1.91-10.57-7.19-16.24-10.07-10.81-24.5-8.53-26.11-8.23l-.47.09-.45.15c-3.61,1.15-7.37,1.71-11.14,1.65-2.78-.04-5.54-.42-8.24-1.12l-5.31-5.76c-1.91-2.51-6.63-7.51-14.5-8.48-3.03-.37-6.06-.05-8.92.85-.08-3.75-1.06-7.54-2.92-11.06l-11.16-17.96-.41-.59c-.06-.1-.12-.25-.14-.31l35.7-2.89.59-.15c12.67-3.15,22.55-8.86,29.37-16.99,10.9-12.99,16-24.89,16.21-25.39l.2-.48c1.02-2.43,2.42-5.77,4.99-6.96.85-.39,1.87-.58,3.02-.55h.36s9.58-.64,9.58-.64l1.64-1.07c8.07-5.27,12.2-14.15,10.52-22.6-1.08-5.45-4.25-9.16-6.72-11.32l-1.19-1.04-1.51-.47c-7.23-2.26-14.49-4.69-21.64-7.23,12.45-3.06,25.35-4.64,38.5-4.64,20.18,0,39.78,3.71,58.04,10.81-.35.58-.82,1.16-1.47,1.64-2.12,1.58-4.64,1.13-4.92,1.08l-.45-.09-.46-.04c-5.45-.42-10.91-.21-16.26.62-2.6.41-5.22.96-7.77,1.66l-1.05.29-.92.57c-8.21,5.1-12.96,14.35-12.1,23.58.95,10.13,8.04,16.05,10.19,17.63l1.18.86,1.42.36c2.62.66,5.28,1.06,7.97,1.23-6.01,2.3-10.11,6.09-12.28,8.53l-13.07,15.92-.38.76c-3.08,6.2-4.76,13.12-4.86,20.02-.1,7.35,1.57,14.73,4.86,21.33l.73,1.46,1.27,1.03c7.09,5.74,14.9,10.52,23.21,14.19,6.84,3.02,14.03,5.3,21.38,6.77l.41.07c5.99.85,12.03.77,17.97-.25,4.17-.72,8.27-1.9,12.19-3.52,2.25.21,7.12,1.13,9.8,5.14,1.92,2.87,1.95,6.02,1.8,7.63l-.09.94,4.58,28.66c6.19,14.71,12.39,29.43,18.58,44.14.41.4,2.98,2.78,6.88,2.53,4.21-.27,6.53-3.4,6.83-3.82.15-.5.3-1.23.28-2.12-.02-.7-.15-1.28-.28-1.72-.02-.03-.04-.06-.07-.09-.02-.03-.05-.06-.07-.09l-17.62-42.92-4.02-25.15c.21-3.81-.24-10.2-4.33-16.33-8-11.99-22.3-11.92-23.91-11.86l-1.49.04-1.36.61c-3.28,1.47-6.72,2.53-10.25,3.14-4.32.74-8.73.82-13.1.22-6.2-1.26-12.28-3.19-18.05-5.74-6.59-2.91-12.8-6.63-18.5-11.07-1.36-3.14-2.7-7.61-2.62-13.01.06-4.4,1.08-8.82,2.94-12.83l11.65-14.2c1.29-1.42,4.62-4.53,9.55-5.22,8.35-1.17,14.39,5.52,14.65,5.8l.52.53c1.61,1.49,3.28,2.99,4.96,4.45,4.25,3.69,8.7,7.26,13.23,10.61l.96.71,1.13.38c4.69,1.56,9.54,2.72,14.42,3.44,6.05.9,12.22,1.14,18.34.72l.41-.04c4.17-.51,8.31-1.43,12.31-2.74,3.66-1.19,7.23-2.72,10.63-4.54l1.01-.54,5.89-5.99,5.82,8.72c9,20.21,13.74,42.28,13.74,65.07,0,8.6-.69,17.1-2.01,25.43l-7.1,28c-2.07,5.85-7.24,17.16-7.24,17.16-.06.12-.14.33-.14.62,0,.3.09.53.14.65,2.96,5.3,8.17,8.55,13.51,8.29,3.77-.19,6.5-2.07,7.73-3.06,10.96-23.41,17.1-49.53,17.1-77.09,0-100.51-81.48-181.98-181.98-181.98ZM148.82,369.12c-30.22-30.22-46.86-70.39-46.86-113.12,0-10.64,1.03-21.11,3.05-31.32l19.18,14.99c3.38,4.28,7.87,7.13,12.44,8.17l-3.85,4.81c-2.09,2.63-8.72,12.23-6.35,25.17,1.92,10.44,8.52,16.7,12.03,19.37,2.9,3.3,6.54,5.93,10.58,7.65,4.41,1.87,9.27,2.64,14.05,2.22l.24-.02c4.3-.52,6.79,1.15,7.1,1.93,0,.02.15.41-.08,1.31l-.23.92v50.25l5.99,22.62c.2,3.03,1.05,5.91,2.4,8.49-10.66-6.54-20.63-14.38-29.7-23.44ZM144.52,262l13.21-16.52.15-.2c1.53-2.05,3.89-3.14,6.18-2.86,2.58.32,4.17,2.36,4.46,2.76l.26.37,8.64,9.38,1.89.6c4.66,1.49,9.5,2.28,14.38,2.36,5.2.08,10.36-.65,15.35-2.17,1.54-.19,7.98-.67,12.09,3.75,2.63,2.83,3.19,6.26,3.28,8.06l.06,1.11.38,1.05c3.88,10.67,9.49,17,16.67,18.8,4.17,1.05,7.72.25,10.07-.28.46-.1,1.03-.23,1.45-.3.35.6,1.03,2.17,1.36,5.66-.26,1.77-.63,3.53-1.1,5.25-.88,3.18-2.14,6.27-3.74,9.19-2.66,4.07-5.69,7.91-9.02,11.44-4.13,4.37-8.75,8.3-13.74,11.68l-3.07,2.08-.92,16c-.83.82-1.7,1.6-2.61,2.32-1.73,1.38-3.62,2.57-5.61,3.56l-.67.33-.59.46c-2.79,2.17-6.63,5.99-9.05,11.88-2.51,6.09-2.43,11.69-1.82,15.6-.25,2.09-1.41,3.43-2.13,4.07-1.2,1.07-2.69,1.6-4.08,1.48-2.44-.22-5.1-2.61-5.17-6.1l-.02-.91-5.93-22.39v-46.52c.67-3.34.41-6.62-.75-9.55-3.12-7.85-12.44-12.48-22.7-11.3-1.63.13-4.1.04-6.77-1.09-2.69-1.14-4.47-2.87-5.49-4.12l-.65-.8-.84-.59c-1.3-.91-5.62-4.35-6.73-10.41-1.27-6.9,2.56-12.16,3.33-13.12ZM238.83,121.65c.43.55.81,1.22.97,2,.38,1.94-.67,4.27-2.65,6.07l-4.71.32c-3.35-.05-6.49.61-9.35,1.93-7.86,3.64-11.01,11.16-12.53,14.77l-.18.43c-.04.1-4.51,10.43-13.89,21.61-4.64,5.53-11.68,9.54-20.92,11.93l-36.96,3-.88.3c-1.3.44-7.91,3.03-9.91,10.58-1.37,5.19.34,10.02,2.49,12.98l10.57,16.98c2.25,4.48.46,8.11-.5,8.76-.73,0-2.94-.84-4.72-3.31l-.62-.87-23.76-18.57,29.43-58.95c2.58-2.99,5.28-5.9,8.1-8.72,2.57-2.57,5.23-5.04,7.94-7.42l44.23-27.16c4.33,1.69,8.71,3.35,13.05,4.93,8.16,2.97,16.49,5.8,24.79,8.42ZM298.88,141.33c-2.1.05-4.2-.12-6.26-.52-1.16-1.12-2.83-3.2-3.1-6.05-.31-3.32,1.34-6.71,4.26-8.89,1.63-.41,3.29-.75,4.95-1,4.08-.64,8.26-.81,12.43-.51,2.72.46,9.82,1.01,16.34-3.87,2.01-1.5,3.6-3.27,4.84-5.14l39.24,26.15-.4.81c-2.42,1.22-5.73,2.41-9.71,2.68-6.98.48-12.47-2.1-15.18-3.72-4.49-2.63-11.73-5.71-20.96-5.71-.27,0-.54,0-.81,0-6.29.12-12.55,1.71-18.17,4.61-2.43.71-4.94,1.11-7.47,1.17ZM387.41,176.03c-2.32,1.18-4.75,2.18-7.22,2.99-3.01.98-6.14,1.68-9.29,2.08-4.98.33-10,.12-14.92-.61-3.64-.54-7.26-1.37-10.77-2.47-3.88-2.9-7.69-5.98-11.33-9.14-1.49-1.29-2.96-2.61-4.39-3.93-1.7-1.83-8.76-8.72-19.21-10.33.4-.12.81-.21,1.21-.34l.67-.21.62-.34c2.58-1.39,6.76-3.08,12.03-3.18,6.15-.12,10.94,1.92,13.83,3.61,6.39,3.83,13.81,5.88,21.15,5.88.9,0,1.81-.03,2.71-.09,6.38-.44,12.68-2.45,18.22-5.8l1.86-1.12.67-1.34c4.44,5.15,8.52,10.54,12.23,16.13l-8.07,8.21Z"/>
  <path class="cls-1" d="M403.01,379.29l-26.72-26.72c-3.39-3.39-8.88-3.39-12.26,0s-3.39,8.88,0,12.26l11.92,11.92h-65.08c-4.79,0-8.67,3.88-8.67,8.67s3.88,8.67,8.67,8.67h65.07l-11.92,11.92c-3.39,3.39-3.39,8.88,0,12.26s8.88,3.39,12.26,0l26.72-26.72h0c3.39-3.39,3.39-8.88,0-12.26Z"/>
</svg>