<?xml version="1.0" encoding="UTF-8"?>
<svg id="Layer_1" data-name="Layer 1" xmlns="http://www.w3.org/2000/svg" viewBox="0 0 512 512">
  <defs>
    <style>
      .cls-1 {
        fill: #fff;
      }
    </style>
  </defs>
  <rect id="bg" width="512" height="512"/>
  <g>
    <path class="cls-1" d="M311.92,381.29c-17.99,8.4-37.75,12.84-58.19,12.84-36.76,0-71.32-14.32-97.32-40.31-25.99-25.99-40.31-60.55-40.31-97.32s14.32-71.32,40.31-97.32c25.99-25.99,60.55-40.31,97.32-40.31s71.32,14.32,97.32,40.31c25.99,25.99,40.31,60.55,40.31,97.32,0,11.69-1.45,23.15-4.26,34.19-2.04,6.52,1.06,13.47,6.91,16.14,5.23,2.39,11.66.91,15.56-3.72,4.15-12.66,6.79-28.49,6.79-46.61,0-89.82-72.81-162.62-162.62-162.62s-162.62,72.81-162.62,162.62,72.81,162.62,162.62,162.62c25.18,0,46.9-6.87,46.9-6.87,10.68-3.72,19.04-8.28,24.78-11.84,3.9-3.97,4.66-10,1.98-14.53-3.01-5.09-9.73-7.21-15.47-4.59Z"/>
    <path class="cls-1" d="M410.4,349.5h-24.5v-24.5c0-6.35-5.15-11.5-11.5-11.5h0c-6.35,0-11.5,5.15-11.5,11.5v24.5h-24.5c-6.35,0-11.5,5.15-11.5,11.5h0c0,6.35,5.15,11.5,11.5,11.5h24.5v24.5c0,6.35,5.15,11.5,11.5,11.5h0c6.35,0,11.5-5.15,11.5-11.5v-24.5h24.5c6.35,0,11.5-5.15,11.5-11.5h0c0-6.35-5.15-11.5-11.5-11.5Z"/>
  </g>
</svg>