<?xml version="1.0" encoding="UTF-8"?>
<svg id="Layer_1" data-name="Layer 1" xmlns="http://www.w3.org/2000/svg" viewBox="0 0 512 512">
  <defs>
    <style>
      .cls-1 {
        fill: #fff;
      }
    </style>
  </defs>
  <rect id="bg" width="512" height="512"/>
  <g>
    <path class="cls-1" d="M431.71,75.48h-237.07c-3.77,0-6.82,3.05-6.82,6.82v76.13c1.17,2.69,3.74,4.49,6.59,4.6,3.2.13,6.19-1.88,7.36-4.99v-68.61h222.81v222.81h-68.42c-3.51.47-6.16,3.42-6.25,6.86-.09,3.28,2.15,6.25,5.41,7.09h76.4c3.77,0,6.82-3.05,6.82-6.82V82.3c0-3.77-3.05-6.82-6.82-6.82Z"/>
    <path class="cls-1" d="M201.57,205.33c57.95,0,105.09,47.14,105.09,105.09s-47.14,105.09-105.09,105.09-105.09-47.14-105.09-105.09,47.14-105.09,105.09-105.09M201.57,183.32c-70.2,0-127.1,56.9-127.1,127.1s56.9,127.1,127.1,127.1,127.1-56.9,127.1-127.1-56.9-127.1-127.1-127.1h0Z"/>
    <rect class="cls-1" x="124.65" y="267.31" width="89.83" height="20.35" rx="9.25" ry="9.25" transform="translate(-143.69 190.19) rotate(-43)"/>
    <rect class="cls-1" x="192.13" y="334.79" width="89.83" height="20.35" rx="9.25" ry="9.25" transform="translate(-171.59 254.34) rotate(-43)"/>
    <rect class="cls-1" x="131.07" y="300.36" width="144.34" height="20.35" rx="9.25" ry="9.25" transform="translate(-157.19 222.04) rotate(-43)"/>
  </g>
</svg>