<?xml version="1.0" encoding="UTF-8"?>
<svg id="Layer_1" data-name="Layer 1" xmlns="http://www.w3.org/2000/svg" viewBox="0 0 512 512">
  <defs>
    <style>
      .cls-1 {
        fill: #fff;
      }
    </style>
  </defs>
  <rect id="bg" width="512" height="512"/>
  <g>
    <path class="cls-1" d="M319.08,396.5c-.7.01-1.4.04-2.11.04-21.95,0-47.04-7.07-72.55-20.44-27.42-14.37-54.07-35.46-77.07-61.01-17.12-19.01-31.4-39.47-42.45-60.79-10.46-20.19-17.54-40.2-21.06-59.48-3.27-17.94-3.22-34.81.15-48.8,3.16-13.11,9.15-23.7,17.79-31.49,11.17-10.06,26.34-15.16,45.09-15.16h0c21.95,0,47.03,7.07,72.54,20.44,27.42,14.37,54.07,35.46,77.06,61.01,17.12,19.01,31.4,39.47,42.45,60.79,15.84,30.57,19.99,53.28,21.06,59.48,1.23,7.14,1.83,13.19,2.16,17.51.95,1.37,3.28,4.29,7.38,5.86,1.36.52,6.49,2.48,11.5-.24,3.46-1.88,4.99-4.97,5.5-6.17-1.1-17.99-4.7-44.22-16.28-73.56-3.47-8.8-18.29-42.42-53.71-81.75-52.03-57.78-117.02-90.38-169.68-90.38-24.6,0-46.51,7.12-63.15,22.1-52.26,47.06-32.76,153.93,43.57,238.7,52.03,57.78,117.02,90.38,169.68,90.38,3.15,0,6.26-.12,9.32-.36,4.58-3.46,6.87-9.12,5.88-14.59-1.14-6.29-6.45-11.25-13.09-12.09Z"/>
    <path class="cls-1" d="M429.33,378.21h-36.66v-36.66c0-4.56-3.7-8.26-8.26-8.26s-8.26,3.7-8.26,8.26v36.66h-36.66c-4.56,0-8.26,3.7-8.26,8.26s3.7,8.26,8.26,8.26h36.66v36.66c0,4.56,3.7,8.26,8.26,8.26s8.26-3.7,8.26-8.26v-36.66h36.66c4.56,0,8.26-3.7,8.26-8.26s-3.7-8.26-8.26-8.26Z"/>
  </g>
</svg>