<?xml version="1.0" encoding="UTF-8"?>
<svg id="Layer_1" data-name="Layer 1" xmlns="http://www.w3.org/2000/svg" viewBox="0 0 512 512">
  <defs>
    <style>
      .cls-1 {
        fill: #fff;
      }
    </style>
  </defs>
  <rect id="bg" width="512" height="512"/>
  <g>
    <path class="cls-1" d="M410.75,350.39h-32.94v-32.94c0-4.38-3.55-7.93-7.93-7.93s-7.93,3.55-7.93,7.93v32.94h-32.95c-4.38,0-7.93,3.55-7.93,7.93s3.55,7.93,7.93,7.93h32.95v32.94c0,4.38,3.55,7.93,7.93,7.93s7.93-3.55,7.93-7.93v-32.94h32.94c4.38,0,7.93-3.55,7.93-7.93s-3.55-7.93-7.93-7.93Z"/>
    <path class="cls-1" d="M308.71,399.16c4.06-1.83,6.5-6.06,6.04-10.43-.48-4.55-3.99-8.28-8.57-9.05-55.73,6.1-111.47,12.2-167.2,18.29l80.39-79.65-97.98-144.59,121.92-57.63,154.3,55.78-23.78,119.29-.27,1.49c.11,5.25,3.4,9.83,8.12,11.41,6.16,2.07,11.31-2.13,11.59-2.37.39-2.17.78-4.35,1.18-6.52l27.29-136.91-179.5-64.88-151.98,71.84,101.95,150.45c-33.84,34.31-67.68,68.63-101.52,102.94l218.02-19.46Z"/>
  </g>
</svg>