<?xml version="1.0" encoding="UTF-8"?>
<svg id="Layer_1" data-name="Layer 1" xmlns="http://www.w3.org/2000/svg" viewBox="0 0 512 512">
  <defs>
    <style>
      .cls-1 {
        fill: #dad4be;
      }
    </style>
  </defs>
  <rect id="bg" width="512" height="512"/>
  <g>
    <path class="cls-1" d="M256,66c50.75,0,98.46,19.76,134.35,55.65s55.65,83.6,55.65,134.35-19.76,98.46-55.65,134.35-83.6,55.65-134.35,55.65-98.46-19.76-134.35-55.65-55.65-83.6-55.65-134.35,19.76-98.46,55.65-134.35,83.6-55.65,134.35-55.65M256,31c-124.26,0-225,100.74-225,225s100.74,225,225,225,225-100.74,225-225S380.26,31,256,31h0Z"/>
    <path class="cls-1" d="M286.99,181.58c-.73,12.33-1.47,24.66-2.2,36.99.25.79.62,1.35.94,1.72,2.03,2.42,5.73,1.89,6.11,1.83,13.36.14,26.71.28,40.07.41l-25.54,25.98c.18,7.75.37,15.5.55,23.25,4.78,4.22,9.56,8.45,14.34,12.67-8.11,0-16.22,0-24.33,0-3.31,2.27-6.62,4.54-9.94,6.81-.07,12.56-.15,25.11-.22,37.67l-22.13-22.9h-14.53c-9.03,7.96-18.05,15.93-27.08,23.89.17-12.78.35-25.56.52-38.34-2.63-2.16-5.27-4.32-7.9-6.49h-29.28c5.94-5.14,11.89-10.28,17.83-15.41.11-7.88.22-15.77.33-23.65-6.86-7.24-13.72-14.47-20.59-21.71h33.91c.41.05,3.38.37,5.75-1.85,2.57-2.41,2.22-5.73,2.17-6.07v-34.79c10.07,10.28,20.15,20.55,30.22,30.83,10.33-10.28,20.66-20.55,30.99-30.83ZM314.69,120.18l-44.62,44.38-13.85,13.78-13.3-13.56-41.14-41.96v77.48h-73.67l38.43,40.52,13.87,14.62-.04,3.11-.76.66-8.92,7.71-48.78,42.16h77.42l-.02,1.33-.26,19.17-.74,54.15,40.61-35.82,17.73-15.64,12.88,13.33,40.91,42.34.34-58.87.12-20.61h10.36s63.44.02,63.44.02l-47.55-42.01-6.48-5.73-.06-2.62,18.42-18.74,39.56-40.24-56.43-.58-22.12-.23.91-15.3,3.74-62.83h0Z"/>
  </g>
</svg>