<?xml version="1.0" encoding="UTF-8"?>
<svg id="Layer_1" data-name="Layer 1" xmlns="http://www.w3.org/2000/svg" viewBox="0 0 512 512">
  <defs>
    <style>
      .cls-1 {
        fill: #fff;
      }
    </style>
  </defs>
  <rect id="bg" width="512" height="512"/>
  <g>
    <path class="cls-1" d="M301.81,399.75H112.25V112.25h287.5v187.38c1.02,3.86,4.22,6.69,7.95,7.1,4.4.49,8.76-2.48,10.05-7.1V103.05c0-4.86-3.94-8.8-8.8-8.8H103.05c-4.86,0-8.8,3.94-8.8,8.8v305.9c0,4.86,3.94,8.8,8.8,8.8h198.76c3.3-1.72,5.4-5.1,5.48-8.8.08-3.84-2.05-7.41-5.48-9.2Z"/>
    <path class="cls-1" d="M403.76,345.72h-28.55v-28.55c0-5.52-4.48-10-10-10s-10,4.48-10,10v28.55h-28.55c-5.52,0-10,4.48-10,10h0c0,5.52,4.48,10,10,10h28.55v28.55c0,5.52,4.48,10,10,10s10-4.48,10-10v-28.55h28.55c5.52,0,10-4.48,10-10h0c0-5.52-4.48-10-10-10Z"/>
  </g>
</svg>