<?xml version="1.0" encoding="UTF-8"?>
<svg id="Layer_1" data-name="Layer 1" xmlns="http://www.w3.org/2000/svg" viewBox="0 0 512 512">
  <defs>
    <style>
      .cls-1 {
        fill: #fff;
      }
    </style>
  </defs>
  <rect id="bg" width="512" height="512"/>
  <g>
    <path class="cls-1" d="M417.32,349.5h-33.19v-33.19c0-5.56-4.51-10.07-10.07-10.07s-10.07,4.51-10.07,10.07v33.19h-33.19c-5.56,0-10.07,4.51-10.07,10.07h0c0,5.56,4.51,10.07,10.07,10.07h33.19v33.19c0,5.56,4.51,10.07,10.07,10.07s10.07-4.51,10.07-10.07v-33.19h33.19c5.56,0,10.07-4.51,10.07-10.07h0c0-5.56-4.51-10.07-10.07-10.07Z"/>
    <path class="cls-1" d="M301.44,380.73c-5.12,2.97-10.46,5.58-15.94,7.75-5.74,2.27-11.7,4.11-17.73,5.47-10.42,2.35-21.19,3.54-32.02,3.54-24.78,0-42.1-6.26-43.08-6.63-8.99-3.58-17.57-8.49-25.54-14.62-3.59-5.86-5.79-12.05-6.56-18.45-.71-5.95-.04-10.55,1.2-18.17.84-5.11,1.59-7.47,3.4-13.17,1.37-4.32,3.26-10.23,5.83-19.52,4.97-17.97,7.58-29.82,2.06-42.89-3.11-7.36-8.15-13.72-15-18.9l-.72-.55-.77-.48c-16.42-10.24-30.36-22.96-41.45-37.81-2.84-3.81-5.53-7.81-8-11.9-2.07-5.45-3.96-13.36-2.42-22.11.79-4.53,2.42-8.06,4.47-12.53.33-.73.67-1.45.99-2.18,4.18-9.25,9.85-17.13,16.84-23.43,14.33-12.9,28.11-18.65,44.7-18.65h.3s160.18.66,160.18.66h.21s.13,0,.13,0c.87,0,14.03.29,21.07,10.88,4.9,7.38,5.36,16.96,1.2,25l-.21.41-.19.41-17.12,37.2c-3.27,6.89-6.83,17.88-5.41,31.37,1.88,17.9,11.41,29.9,16.93,35.45l1.03,1.04,1.17.88c20.06,15.35,40.13,30.69,60.19,46.04,4.43,4.74,11.85,4.39,15.5.06,3.26-3.88,2.93-10.29-1.32-14.2-20.79-15.96-41.58-31.93-62.37-47.89-2.4-2.42-9.88-10.57-11.23-23.45-1.03-9.87,2.05-17.5,3.63-20.81,5.72-12.44,11.45-24.88,17.17-37.32,7.47-14.46,6.6-31.83-2.31-45.25-12.72-19.15-34.85-19.82-37.75-19.82-.1,0-.18,0-.23,0-53.39-.22-106.79-.44-160.18-.66-.13,0-.26,0-.38,0-23.31,0-41.48,8.84-58.08,23.78-11.59,10.43-18.09,22.1-21.69,30.06-2.62,5.8-5.53,11.46-6.94,19.49-2.66,15.17,1.4,27.82,4.13,34.44,2.87,4.87,6.17,9.91,9.96,14.99,15.12,20.26,32.52,33.86,46.9,42.83,2.79,2.11,6.46,5.56,8.64,10.73,2.68,6.35,1.9,12.37-2.92,29.78-5.9,21.35-7.85,23.53-9.69,34.79-1.3,7.95-2.39,14.91-1.32,23.78,1.64,13.65,7.42,23.86,11.45,29.72,13,10.55,25.08,16.36,33.25,19.6,0,0,20.35,7.99,50.34,7.99,11.02,0,23.33-1.08,36.41-4.02,6.11-1.38,13.13-3.39,20.7-6.39,8.33-3.3,15.39-7.03,21.15-10.53,3.12-3.45,3.83-8.31,1.86-11.96-2.49-4.62-8.93-6.67-14.43-3.86Z"/>
  </g>
</svg>