<?xml version="1.0" encoding="UTF-8"?>
<svg id="Layer_1" data-name="Layer 1" xmlns="http://www.w3.org/2000/svg" viewBox="0 0 512 512">
  <defs>
    <style>
      .cls-1 {
        fill: #fff;
      }
    </style>
  </defs>
  <rect id="bg" width="512" height="512"/>
  <path class="cls-1" d="M372.54,103.49c.05-.81-.22-1.7-.26-1.83-.21-.68-.55-1.2-.91-1.77-.44-.67-.88-1.18-1.2-1.52-8.06-8.07-16.11-16.13-24.17-24.2-.59-.59-1.35-.88-2.12-.88s-1.54.29-2.12.88l-24.17,24.2c-.34.52-.76,1.24-1.12,2.16-.32.8-.8,2.04-.83,2.96h-.01v31.85h-31.16v-31.85h-.02c.05-.81-.22-1.7-.26-1.83-.21-.68-.55-1.2-.91-1.77-.44-.67-.88-1.18-1.2-1.52-8.06-8.07-16.11-16.13-24.17-24.2-.59-.59-1.35-.88-2.12-.88s-1.54.29-2.12.88l-24.17,24.2c-.34.52-.76,1.24-1.12,2.16-.32.8-.8,2.04-.83,2.96h-.01v31.85h-31.16v-31.85h-.02c.05-.81-.22-1.7-.26-1.83-.21-.68-.55-1.2-.91-1.77-.44-.67-.88-1.18-1.2-1.52-8.06-8.07-16.11-16.13-24.17-24.2-.59-.59-1.35-.88-2.12-.88s-1.54.29-2.12.88l-24.17,24.2c-.34.52-.76,1.24-1.12,2.16-.32.8-.8,2.04-.83,2.96h-.01v192.38c0,1.67,1.35,3.02,3.02,3.02h50.89c1.67,0,3.02-1.35,3.02-3.02v-28.96h31.16v28.96c0,1.67,1.35,3.02,3.02,3.02h50.89c1.67,0,3.02-1.35,3.02-3.02v-28.96h31.16v28.96c0,1.67,1.35,3.02,3.02,3.02h50.89c1.67,0,3.02-1.35,3.02-3.02V103.49h-.02ZM284.47,184.53h31.16v33.19h-31.16v-33.19ZM315.63,143.34v33.19h-31.16v-33.19h31.16ZM196.37,184.53h31.16v33.19h-31.16v-33.19ZM227.53,143.34v33.19h-31.16v-33.19h31.16ZM186.37,288.89h-36.94V104.57c.02-.05.04-.1.06-.15l18.2-18.22,18.57,18.59.11,8.7v175.4ZM196.37,258.91v-33.19h31.16v33.19h-31.16ZM274.47,288.89h-36.94V104.57c.02-.05.04-.1.06-.15l18.2-18.22,18.57,18.59.11,8.7v175.4ZM284.47,258.91v-33.19h31.16v33.19h-31.16ZM362.56,288.89h-36.94V104.57c.02-.05.04-.1.06-.15l18.2-18.22,18.57,18.59.11,8.7v175.4Z"/>
  <g id="Geofence">
    <path class="cls-1" d="M140.09,421.25c-3.23,1.16-9.6,3.06-17.13,3.06-8.44,0-15.4-2.15-20.86-7.37-4.8-4.64-7.78-12.09-7.78-20.78.08-16.64,11.51-28.81,30.21-28.81,6.46,0,11.51,1.41,13.91,2.57l-1.74,5.88c-2.98-1.32-6.7-2.4-12.33-2.4-13.58,0-22.43,8.44-22.43,22.43s8.53,22.51,21.52,22.51c4.72,0,7.95-.66,9.6-1.49v-16.64h-11.34v-5.79h18.38v26.82Z"/>
    <path class="cls-1" d="M155.31,405.02c.17,9.85,6.46,13.91,13.74,13.91,5.22,0,8.36-.91,11.09-2.07l1.24,5.21c-2.57,1.16-6.95,2.48-13.33,2.48-12.33,0-19.7-8.11-19.7-20.2s7.12-21.6,18.79-21.6c13.08,0,16.56,11.51,16.56,18.87,0,1.49-.17,2.65-.25,3.39h-28.14ZM176.67,399.81c.08-4.64-1.9-11.84-10.1-11.84-7.37,0-10.6,6.79-11.17,11.84h21.27Z"/>
    <path class="cls-1" d="M228.98,403.37c0,14.82-10.26,21.27-19.95,21.27-10.84,0-19.2-7.95-19.2-20.61,0-13.41,8.77-21.27,19.87-21.27s19.29,8.36,19.29,20.61ZM197.19,403.78c0,8.77,5.05,15.4,12.17,15.4s12.17-6.54,12.17-15.56c0-6.79-3.39-15.4-12-15.4s-12.33,7.95-12.33,15.56Z"/>
    <path class="cls-1" d="M238.91,423.73v-34.52h-5.63v-5.55h5.63v-1.9c0-5.63,1.24-10.76,4.64-13.99,2.73-2.65,6.37-3.72,9.77-3.72,2.57,0,4.8.58,6.21,1.16l-.99,5.63c-1.08-.5-2.57-.91-4.64-.91-6.21,0-7.78,5.46-7.78,11.59v2.15h9.68v5.55h-9.68v34.52h-7.2Z"/>
    <path class="cls-1" d="M265.31,405.02c.17,9.85,6.46,13.91,13.74,13.91,5.22,0,8.36-.91,11.09-2.07l1.24,5.21c-2.57,1.16-6.95,2.48-13.33,2.48-12.33,0-19.7-8.11-19.7-20.2s7.12-21.6,18.79-21.6c13.08,0,16.55,11.51,16.55,18.87,0,1.49-.17,2.65-.25,3.39h-28.14ZM286.67,399.81c.08-4.64-1.9-11.84-10.1-11.84-7.37,0-10.6,6.79-11.18,11.84h21.27Z"/>
    <path class="cls-1" d="M302.72,394.51c0-4.14-.08-7.53-.33-10.84h6.46l.41,6.62h.17c1.99-3.81,6.62-7.53,13.24-7.53,5.55,0,14.15,3.31,14.15,17.05v23.92h-7.28v-23.09c0-6.46-2.4-11.84-9.27-11.84-4.8,0-8.53,3.39-9.77,7.45-.33.91-.5,2.15-.5,3.39v24.09h-7.28v-29.22Z"/>
    <path class="cls-1" d="M377.22,422.24c-1.9.99-6.13,2.32-11.51,2.32-12.09,0-19.95-8.19-19.95-20.45s8.44-21.27,21.52-21.27c4.3,0,8.11,1.08,10.1,2.07l-1.65,5.63c-1.74-.99-4.47-1.9-8.44-1.9-9.19,0-14.16,6.79-14.16,15.15,0,9.27,5.96,14.98,13.91,14.98,4.14,0,6.87-1.08,8.94-1.99l1.24,5.46Z"/>
    <path class="cls-1" d="M389.3,405.02c.17,9.85,6.46,13.91,13.74,13.91,5.21,0,8.36-.91,11.09-2.07l1.24,5.21c-2.57,1.16-6.95,2.48-13.33,2.48-12.33,0-19.7-8.11-19.7-20.2s7.12-21.6,18.79-21.6c13.08,0,16.55,11.51,16.55,18.87,0,1.49-.17,2.65-.25,3.39h-28.14ZM410.65,399.81c.08-4.64-1.9-11.84-10.1-11.84-7.37,0-10.6,6.79-11.17,11.84h21.27Z"/>
  </g>
</svg>