<?xml version="1.0" encoding="UTF-8"?>
<svg id="Layer_1" data-name="Layer 1" xmlns="http://www.w3.org/2000/svg" viewBox="0 0 512 512">
  <defs>
    <style>
      .cls-1 {
        fill: #fff;
      }
    </style>
  </defs>
  <rect id="bg" width="512" height="512"/>
  <g>
    <path class="cls-1" d="M407.38,350.59h-35.09v-35.09c0-4.14-3.36-7.5-7.5-7.5h0c-4.14,0-7.5,3.36-7.5,7.5v35.09h-35.09c-4.14,0-7.5,3.36-7.5,7.5s3.36,7.5,7.5,7.5h35.09v35.09c0,4.14,3.36,7.5,7.5,7.5h0c4.14,0,7.5-3.36,7.5-7.5v-35.09h35.09c4.14,0,7.5-3.36,7.5-7.5s-3.36-7.5-7.5-7.5Z"/>
    <path class="cls-1" d="M251.17,301.54c-4.28.77-7.26,4.61-6.98,8.72.26,3.74,3.18,6.94,7.06,7.57,12.94.36,30.95-.55,51.49-6.21,16.33-4.5,29.56-10.71,39.4-16.26,3.2-1.8,12.59-7.17,23.57-15.74,5.91-4.62,11.29-8.86,17.32-15.66,5.58-6.3,9.45-12.23,12-16.64,3.28-6.6,8.15-18.59,8.47-34.17.41-19.97-6.54-34.65-10.72-41.79-5.13-8.74-14.11-21.67-28.77-33.7-15.76-12.94-31.35-19.34-41.28-22.55-32.94-10.66-60.2-11.6-73.7-11.23-14.31.39-34.75,2.38-58.43,9.74-28.72,8.65-47.8,21.85-58.51,30.6-14.67,11.98-20.6,21.72-23.32,25.53-3.26,4.57-11.85,17.89-11.66,36.77.15,15.14,5.88,26.26,8.85,31.23,4.67,6.72,12.01,15.93,22.81,24.85,5.08,4.2,12.62,8.97,27.49,18.34,20.14,12.69,22.25,13.45,29.62,19.02,11.84,8.96,17.91,13.34,22.55,21.19,10.11,17.09,7.65,34.11,6.81,38.81-.42,3.26-1.22,7.14-2.77,11.32-3.48,9.45-9.02,15.89-12.81,19.57-2.52,3.05-2.42,7.37-.09,9.96,2.74,3.05,8.09,3.19,11.32-.26,3.78-4.26,8.18-9.98,12.17-17.28,4.82-8.82,7.45-16.99,8.94-23.23.73-4.08,1.39-9.74,1.02-16.47-.18-3.33-.47-8.17-2.21-14-2.42-8.12-6.33-13.5-9.45-17.96-5.65-8.08-11.53-13.31-15.06-16.26-22.19-18.5-44.72-24.49-65.28-42.64-10.64-9.39-29.21-25.77-29.11-48.77.1-22.49,18-38.41,23.4-42.89,10.61-8.79,19.5-15.03,30.47-20.94,13.8-7.43,26.2-11.91,35.23-14.64,12.84-3.18,30.9-6.36,52.6-6.04,25.92.38,44.86,6,49.7,6.89,9.9,1.83,30.75,7.09,50.81,23.91,17.76,14.9,26.47,31.82,30.38,40.94,1.72,5.05,3.69,13.01,2.98,22.72-1.31,17.97-10.91,30.12-14.72,34.47-7.69,8.65-19.45,20.02-36,30.21-16.97,10.45-32.82,15.87-44.17,18.81-7.58,1.85-16.54,3.41-26.64,4-5.28.31-10.23.32-14.81.13Z"/>
  </g>
</svg>