<?xml version="1.0" encoding="UTF-8"?>
<svg id="Layer_1" data-name="Layer 1" xmlns="http://www.w3.org/2000/svg" viewBox="0 0 512 512">
  <defs>
    <style>
      .cls-1 {
        fill: #fff;
      }
    </style>
  </defs>
  <rect id="bg" width="512" height="512"/>
  <g>
    <path class="cls-1" d="M126.97,351.83h-24.73V104.33h247.5v28.77c.62,3.6,3.66,6.27,7.21,6.4,3.75.14,7.13-2.59,7.79-6.4v-33.06c0-5.92-4.8-10.71-10.71-10.71H97.95c-5.92,0-10.71,4.8-10.71,10.71v256.07c0,5.92,4.8,10.71,10.71,10.71h29.02c3.98-.14,7.17-3.23,7.45-6.92.31-4.08-3.02-7.9-7.45-8.08Z"/>
    <path class="cls-1" d="M414.05,145.17H157.98c-5.92,0-10.71,4.8-10.71,10.71v256.07c0,5.92,4.8,10.71,10.71,10.71h256.07c5.92,0,10.71-4.8,10.71-10.71V155.88c0-5.92-4.8-10.71-10.71-10.71ZM409.76,160.17v147.68l-47.57-41.35s-.03-.03-.05-.04c-2.54-2.2-6.33-2.5-9.21-.48l-54.89,38.44-67.9-67.9c-.07-.07-.15-.13-.22-.2-2.83-3.03-7.57-3.19-10.6-.37l-57.06,53.21v-128.99h247.5ZM162.26,407.67v-98.6c.77-.33,1.49-.79,2.14-1.39l59.86-55.82,98.29,98.29c2.93,2.93,7.68,2.93,10.61,0s2.93-7.68,0-10.61l-24.35-24.35,47.92-33.56,53.03,46.1v79.94h-247.5Z"/>
    <path class="cls-1" d="M316.62,191.72c11.86,0,21.51,9.65,21.51,21.51s-9.65,21.51-21.51,21.51-21.51-9.65-21.51-21.51,9.65-21.51,21.51-21.51M316.62,176.72c-20.16,0-36.51,16.35-36.51,36.51s16.35,36.51,36.51,36.51,36.51-16.35,36.51-36.51-16.35-36.51-36.51-36.51h0Z"/>
  </g>
</svg>