<?xml version="1.0" encoding="UTF-8"?>
<svg id="Layer_1" data-name="Layer 1" xmlns="http://www.w3.org/2000/svg" viewBox="0 0 512 512">
  <defs>
    <style>
      .cls-1 {
        fill: #fff;
      }
    </style>
  </defs>
  <rect id="bg" width="512" height="512"/>
  <g>
    <path class="cls-1" d="M445.09,369.76h-39.33v-39.33c0-5.52-4.48-10-10-10s-10,4.48-10,10v39.33h-39.33c-5.52,0-10,4.48-10,10s4.48,10,10,10h39.33v39.33c0,5.52,4.48,10,10,10s10-4.48,10-10v-39.33h39.33c5.52,0,10-4.48,10-10s-4.48-10-10-10Z"/>
    <path class="cls-1" d="M338.23,205.44c0,16.45,13.34,29.79,29.79,29.79s29.79-13.34,29.79-29.79-13.34-29.79-29.79-29.79-29.79,13.34-29.79,29.79ZM382.8,205.44c0,8.15-6.63,14.79-14.79,14.79s-14.79-6.63-14.79-14.79,6.63-14.79,14.79-14.79,14.79,6.63,14.79,14.79Z"/>
    <path class="cls-1" d="M245.18,192.61c-46.91,0-84.94,38.03-84.94,84.94s38.03,84.94,84.94,84.94,84.94-38.03,84.94-84.94-38.03-84.94-84.94-84.94ZM245.18,347.48c-38.56,0-69.94-31.37-69.94-69.94s31.37-69.94,69.94-69.94,69.94,31.37,69.94,69.94-31.37,69.94-69.94,69.94Z"/>
    <path class="cls-1" d="M97.72,194.14v167.32c0,6.49,5.26,11.74,11.74,11.74s11.74-5.26,11.74-11.74v-167.32c0-6.49-5.26-11.74-11.74-11.74s-11.74,5.26-11.74,11.74Z"/>
    <path class="cls-1" d="M259.31,96.83h-30c-6.9,0-12.5,5.6-12.5,12.5s5.6,12.5,12.5,12.5h30c6.9,0,12.5-5.6,12.5-12.5s-5.6-12.5-12.5-12.5Z"/>
    <path class="cls-1" d="M245.18,241.12c-20.12,0-36.43,16.31-36.43,36.43s16.31,36.43,36.43,36.43,36.43-16.31,36.43-36.43-16.31-36.43-36.43-36.43ZM245.18,298.97c-11.81,0-21.43-9.61-21.43-21.43s9.61-21.43,21.43-21.43,21.43,9.61,21.43,21.43-9.61,21.43-21.43,21.43Z"/>
    <path class="cls-1" d="M301.84,398.48c-75.98-.12-151.96-.24-227.94-.36v-246.77h342.77v135.55c1.05,3.13,3.89,5.31,7.11,5.47,3.49.17,6.74-2.06,7.89-5.47v-138.3c0-6.77-5.49-12.26-12.26-12.26h-102.3c-8.05-20.48-16.11-40.96-24.16-61.45-30.17.32-60.34.64-90.51.96-1.83.02-3.66.04-5.49.06-.14.4-.29.8-.43,1.2,0,0-1.35,3.74-1.35,3.74,0,0-17.5,48.47-20.04,55.48h-30.51c.15-.89.24-1.79.24-2.72v-19.4c0-9.02-7.32-16.34-16.34-16.34h-31.66c-9.02,0-16.34,7.32-16.34,16.34v19.4c0,.93.1,1.84.24,2.72h-9.61c-6.77,0-12.26,5.49-12.26,12.26v252.26c0,6.77,5.49,12.26,12.26,12.26,76.87.04,153.74.09,230.61.13,4.15.14,7.62-3.17,7.73-7.2.1-4.14-3.39-7.68-7.66-7.57ZM201.81,106.64c2.86-7.91,4.62-12.8,5.71-15.82l40.33-.43,34.92-.37,8.73,22.19,6.51,16.55h-104.19c2.39-6.62,5.32-14.74,7.99-22.12ZM95.52,114.23c0-.74.6-1.34,1.34-1.34h31.66c.74,0,1.34.6,1.34,1.34v19.4c0,.74-.6,1.34-1.34,1.34h-31.66c-.74,0-1.34-.6-1.34-1.34v-19.4Z"/>
  </g>
</svg>