<?xml version="1.0" encoding="UTF-8"?>
<svg id="Layer_1" data-name="Layer 1" xmlns="http://www.w3.org/2000/svg" viewBox="0 0 512 512">
  <defs>
    <style>
      .cls-1 {
        fill: #fff;
      }
    </style>
  </defs>
  <rect id="bg" width="512" height="512"/>
  <g>
    <path class="cls-1" d="M325.24,184.19l-65.63-65.63c-1.56-1.56-4.09-1.56-5.66,0l-12.02,12.02s-.03.04-.05.06l-53.56,53.56c-1.56,1.56-1.56,4.09,0,5.66l12.02,12.02c1.56,1.56,4.09,1.56,5.66,0l50.79-50.79,50.78,50.78c1.56,1.56,4.09,1.56,5.66,0l12.02-12.02c1.56-1.56,1.56-4.09,0-5.66Z"/>
    <path class="cls-1" d="M325.24,347.59l-65.63-65.63c-1.56-1.56-4.09-1.56-5.66,0l-12.02,12.02s-.03.04-.05.06l-53.56,53.56c-1.56,1.56-1.56,4.09,0,5.66l12.02,12.02c1.56,1.56,4.09,1.56,5.66,0l50.79-50.79,50.78,50.78c1.56,1.56,4.09,1.56,5.66,0l12.02-12.02c1.56-1.56,1.56-4.09,0-5.66Z"/>
    <path class="cls-1" d="M325.24,266.79l-65.63-65.63c-1.56-1.56-4.09-1.56-5.66,0l-12.02,12.02s-.03.04-.05.06l-53.56,53.56c-1.56,1.56-1.56,4.09,0,5.66l12.02,12.02c1.56,1.56,4.09,1.56,5.66,0l50.79-50.79,50.78,50.78c1.56,1.56,4.09,1.56,5.66,0l12.02-12.02c1.56-1.56,1.56-4.09,0-5.66Z"/>
  </g>
  <g>
    <path class="cls-1" d="M51.13,255c0-13.69,1.32-27.16,3.94-40.35l-24.38-5.5c-2.99,14.82-4.56,30.15-4.56,45.85,0,12.13.94,24.04,2.74,35.66l25.1-1.36c-1.88-11.25-2.84-22.71-2.84-34.31Z"/>
    <path class="cls-1" d="M83.33,144.36c8.02-12.56,17.4-24.24,28.09-34.93,6.05-6.05,12.41-11.67,19.07-16.87l-16.17-19.08c-20.74,16.33-38.61,36.14-52.74,58.54l21.74,12.34Z"/>
    <path class="cls-1" d="M126.47,414.22c-5.21-4.28-10.23-8.83-15.04-13.65-14.08-14.08-25.91-29.89-35.31-47.17-6.39,5.79-13.89,12.73-18.74,17.62,13.41,23.03,30.7,43.52,50.97,60.6l18.13-17.41Z"/>
    <path class="cls-1" d="M257,24.12c-23.12,0-45.44,3.41-66.5,9.74,3.61,7.62,7.21,15.24,10.82,22.87,18-5.05,36.65-7.6,55.68-7.6,27.8,0,54.76,5.44,80.13,16.17,24.51,10.37,46.53,25.22,65.45,44.13,18.92,18.92,33.76,40.94,44.13,65.45,10.73,25.37,16.17,52.32,16.17,80.13s-5.44,54.76-16.17,80.13c-10.37,24.51-25.22,46.53-44.13,65.45s-40.94,33.76-65.45,44.13c-25.37,10.73-52.32,16.17-80.13,16.17-23.01,0-45.43-3.74-66.86-11.1l-8.73,23.43c23.69,8.2,49.12,12.67,75.59,12.67,127.51,0,230.88-103.37,230.88-230.87S384.51,24.12,257,24.12Z"/>
  </g>
</svg>