<?xml version="1.0" encoding="UTF-8"?>
<svg id="Layer_1" data-name="Layer 1" xmlns="http://www.w3.org/2000/svg" viewBox="0 0 512 132">
  <defs>
    <style>
      .cls-1 {
        fill: #494b4a;
      }

      .cls-2 {
        fill: #fff;
      }

      .cls-3 {
        opacity: .98;
      }

      .cls-4 {
        fill: #595959;
      }
    </style>
  </defs>
  <rect class="cls-1" width="512" height="132"/>
  <g class="cls-3">
    <rect x="11.55" y="16.94" width="93.62" height="93.62" rx="9.03" ry="9.03"/>
    <path class="cls-4" d="M96.14,19.94c3.33,0,6.03,2.71,6.03,6.03v75.55c0,3.33-2.71,6.03-6.03,6.03H20.59c-3.33,0-6.03-2.71-6.03-6.03V25.97c0-3.33,2.71-6.03,6.03-6.03h75.55M96.14,16.94H20.59c-4.99,0-9.03,4.04-9.03,9.03v75.55c0,4.99,4.04,9.03,9.03,9.03h75.55c4.99,0,9.03-4.04,9.03-9.03V25.97c0-4.99-4.04-9.03-9.03-9.03h0Z"/>
  </g>
  <g class="cls-3">
    <rect x="110.87" y="16.94" width="93.62" height="93.62" rx="9.03" ry="9.03"/>
    <path class="cls-4" d="M195.46,19.94c3.33,0,6.03,2.71,6.03,6.03v75.55c0,3.33-2.71,6.03-6.03,6.03h-75.55c-3.33,0-6.03-2.71-6.03-6.03V25.97c0-3.33,2.71-6.03,6.03-6.03h75.55M195.46,16.94h-75.55c-4.99,0-9.03,4.04-9.03,9.03v75.55c0,4.99,4.04,9.03,9.03,9.03h75.55c4.99,0,9.03-4.04,9.03-9.03V25.97c0-4.99-4.04-9.03-9.03-9.03h0Z"/>
  </g>
  <g class="cls-3">
    <rect x="209.19" y="16.94" width="93.62" height="93.62" rx="9.03" ry="9.03"/>
    <path class="cls-4" d="M293.78,19.94c3.33,0,6.03,2.71,6.03,6.03v75.55c0,3.33-2.71,6.03-6.03,6.03h-75.55c-3.33,0-6.03-2.71-6.03-6.03V25.97c0-3.33,2.71-6.03,6.03-6.03h75.55M293.78,16.94h-75.55c-4.99,0-9.03,4.04-9.03,9.03v75.55c0,4.99,4.04,9.03,9.03,9.03h75.55c4.99,0,9.03-4.04,9.03-9.03V25.97c0-4.99-4.04-9.03-9.03-9.03h0Z"/>
  </g>
  <g class="cls-3">
    <rect x="309.26" y="16.94" width="93.62" height="93.62" rx="9.03" ry="9.03"/>
    <path class="cls-4" d="M393.84,19.94c3.33,0,6.03,2.71,6.03,6.03v75.55c0,3.33-2.71,6.03-6.03,6.03h-75.55c-3.33,0-6.03-2.71-6.03-6.03V25.97c0-3.33,2.71-6.03,6.03-6.03h75.55M393.84,16.94h-75.55c-4.99,0-9.03,4.04-9.03,9.03v75.55c0,4.99,4.04,9.03,9.03,9.03h75.55c4.99,0,9.03-4.04,9.03-9.03V25.97c0-4.99-4.04-9.03-9.03-9.03h0Z"/>
  </g>
  <g>
    <path class="cls-2" d="M457.28,38.57c14.16,0,25.68,11.52,25.68,25.68s-11.52,25.68-25.68,25.68-25.68-11.52-25.68-25.68,11.52-25.68,25.68-25.68M457.28,28.57c-19.71,0-35.68,15.97-35.68,35.68s15.97,35.68,35.68,35.68,35.68-15.97,35.68-35.68-15.97-35.68-35.68-35.68h0Z"/>
    <polygon class="cls-2" points="471.47 55.05 466.6 50.18 456.74 60.04 446.88 50.18 442 55.05 451.86 64.91 442 74.77 446.88 79.64 456.74 69.78 466.6 79.64 471.47 74.77 461.61 64.91 471.47 55.05"/>
  </g>
  <g>
    <path class="cls-2" d="M76.96,30.94c-8.11,0-14.68,6.57-14.68,14.68s6.57,14.68,14.68,14.68,14.68-6.57,14.68-14.68-6.57-14.68-14.68-14.68ZM84.56,48.25h-5.46v5.46h-4.09v-5.46h-5.46v-4.09h5.46v-5.46h4.09v5.46h5.46v4.09Z"/>
    <g>
      <path class="cls-2" d="M43.33,58.78c3.64,2.7,7.31,5.47,11,8.3,2.33,1.79,4.63,3.58,6.91,5.36-5.94-10.57-11.87-21.15-17.81-31.72l-17.81,31.72c2.23-1.78,4.5-3.57,6.8-5.36,3.66-2.85,7.3-5.62,10.91-8.3Z"/>
      <path class="cls-2" d="M43.34,77.64c3.07,1.59,6.16,3.21,9.26,4.87,1.96,1.05,3.9,2.1,5.81,3.15-5-6.2-9.99-12.41-14.99-18.61l-14.99,18.61c1.88-1.05,3.79-2.1,5.72-3.15,3.08-1.67,6.15-3.3,9.18-4.87Z"/>
      <path class="cls-2" d="M43.37,92.29c2.02,1.04,4.06,2.11,6.1,3.21,1.29.69,2.57,1.38,3.83,2.07-3.29-4.09-6.59-8.18-9.88-12.26l-9.88,12.26c1.24-.69,2.49-1.38,3.77-2.07,2.03-1.1,4.05-2.17,6.05-3.21Z"/>
    </g>
  </g>
  <g>
    <path class="cls-2" d="M373.9,33.96c6.99,0,12.67,5.68,12.67,12.67s-5.68,12.67-12.67,12.67-12.67-5.68-12.67-12.67,5.68-12.67,12.67-12.67M373.9,30.96c-8.65,0-15.67,7.01-15.67,15.67s7.01,15.67,15.67,15.67,15.67-7.01,15.67-15.67-7.01-15.67-15.67-15.67h0Z"/>
    <polygon class="cls-2" points="382.52 44.13 365.28 44.13 365.28 49.13 382.52 49.13 382.52 44.13 382.52 44.13"/>
    <g>
      <path class="cls-2" d="M340.35,58.76c3.64,2.7,7.31,5.47,11,8.3,2.33,1.79,4.63,3.58,6.91,5.36-5.94-10.57-11.87-21.15-17.81-31.72l-17.81,31.72c2.23-1.78,4.5-3.57,6.8-5.36,3.66-2.85,7.3-5.62,10.91-8.3Z"/>
      <path class="cls-2" d="M340.36,77.61c3.07,1.59,6.16,3.21,9.26,4.87,1.96,1.05,3.9,2.1,5.81,3.15-5-6.2-9.99-12.41-14.99-18.61l-14.99,18.61c1.88-1.05,3.79-2.1,5.72-3.15,3.08-1.67,6.15-3.3,9.18-4.87Z"/>
      <path class="cls-2" d="M340.39,92.26c2.02,1.04,4.06,2.11,6.1,3.21,1.29.69,2.57,1.38,3.83,2.07-3.29-4.09-6.59-8.18-9.88-12.26l-9.88,12.26c1.24-.69,2.49-1.38,3.77-2.07,2.03-1.1,4.05-2.17,6.05-3.21Z"/>
    </g>
  </g>
  <g>
    <path class="cls-2" d="M248.57,33.7c12.19,0,22.11,9.92,22.11,22.11s-9.92,22.11-22.11,22.11-22.11-9.92-22.11-22.11,9.92-22.11,22.11-22.11M248.57,30.7c-13.87,0-25.11,11.24-25.11,25.11s11.24,25.11,25.11,25.11,25.11-11.24,25.11-25.11-11.24-25.11-25.11-25.11h0Z"/>
    <rect class="cls-2" x="275.72" y="72.79" width="5.62" height="27.32" rx=".7" ry=".7" transform="translate(20.45 222.27) rotate(-45)"/>
    <g>
      <path class="cls-2" d="M248.31,51.6c1.68,1.25,3.38,2.53,5.08,3.83,1.08.83,2.14,1.65,3.19,2.48-2.74-4.88-5.48-9.77-8.22-14.65l-8.22,14.65c1.03-.82,2.08-1.65,3.14-2.48,1.69-1.32,3.37-2.59,5.04-3.83Z"/>
      <path class="cls-2" d="M248.31,60.31c1.42.73,2.84,1.48,4.28,2.25.91.48,1.8.97,2.68,1.45-2.31-2.86-4.61-5.73-6.92-8.59l-6.92,8.59c.87-.48,1.75-.97,2.64-1.45,1.42-.77,2.84-1.52,4.24-2.25Z"/>
      <path class="cls-2" d="M248.33,67.07c.93.48,1.87.98,2.82,1.48.6.32,1.19.64,1.77.96-1.52-1.89-3.04-3.78-4.56-5.66l-4.56,5.66c.57-.32,1.15-.64,1.74-.96.94-.51,1.87-1,2.79-1.48Z"/>
    </g>
  </g>
  <g>
    <path class="cls-2" d="M151.47,33.08v24.81h-24.81v-24.81h24.81M153.47,31.08h-28.81v28.81h28.81v-28.81h0Z"/>
    <path class="cls-2" d="M188.37,33.08v24.81h-24.81v-24.81h24.81M190.37,31.08h-28.81v28.81h28.81v-28.81h0Z"/>
    <path class="cls-2" d="M188.37,70.62v24.81h-24.81v-24.81h24.81M190.37,68.62h-28.81v28.81h28.81v-28.81h0Z"/>
    <path class="cls-2" d="M151.47,70.62v24.81h-24.81v-24.81h24.81M153.47,68.62h-28.81v28.81h28.81v-28.81h0Z"/>
    <polygon class="cls-2" points="146.2 42.05 144.65 40.5 136.86 48.29 133.24 44.68 131.69 46.23 135.3 49.85 135.3 49.85 136.85 51.41 136.86 51.4 136.87 51.41 138.42 49.85 138.41 49.85 146.2 42.05"/>
    <polygon class="cls-2" points="183.22 42.05 181.66 40.5 173.87 48.29 170.26 44.68 168.7 46.23 172.32 49.85 172.31 49.85 173.86 51.41 173.87 51.4 173.88 51.41 175.43 49.85 175.43 49.85 183.22 42.05"/>
    <polygon class="cls-2" points="146.2 79.13 144.65 77.57 136.86 85.36 133.24 81.75 131.69 83.3 135.3 86.92 135.3 86.92 136.85 88.48 136.86 88.47 136.87 88.48 138.42 86.92 138.41 86.92 146.2 79.13"/>
    <polygon class="cls-2" points="183.22 79.13 181.66 77.57 173.87 85.36 170.26 81.75 168.7 83.3 172.32 86.92 172.31 86.92 173.86 88.48 173.87 88.47 173.88 88.48 175.43 86.92 175.43 86.92 183.22 79.13"/>
  </g>
</svg>