<?xml version="1.0" encoding="UTF-8"?>
<svg id="Layer_1" data-name="Layer 1" xmlns="http://www.w3.org/2000/svg" viewBox="0 0 512 260">
  <defs>
    <style>
      .cls-1 {
        fill: #fff;
      }
    </style>
  </defs>
  <rect id="bg" width="512" height="260" rx="52.37" ry="52.37"/>
  <circle class="cls-1" cx="160.21" cy="84.35" r="29.87"/>
  <g>
    <circle class="cls-1" cx="304.72" cy="78.73" r="13.02"/>
    <circle class="cls-1" cx="304.72" cy="134.39" r="13.02"/>
    <circle class="cls-1" cx="304.72" cy="190.05" r="13.02"/>
    <rect class="cls-1" x="348.38" y="72.86" width="125.11" height="9.19"/>
    <rect class="cls-1" x="348.38" y="129.8" width="125.11" height="9.19"/>
    <rect class="cls-1" x="348.38" y="185.46" width="125.11" height="9.19"/>
  </g>
  <path class="cls-1" d="M80.11,77.31c9.47,0,17.18,7.71,17.18,17.18s-7.71,17.18-17.18,17.18-17.18-7.71-17.18-17.18,7.71-17.18,17.18-17.18M80.11,70.31c-13.35,0-24.18,10.83-24.18,24.18s10.83,24.18,24.18,24.18,24.18-10.83,24.18-24.18-10.83-24.18-24.18-24.18h0Z"/>
  <path class="cls-1" d="M197.74,156.61c-14.94-16.74-33.55-21.05-39.83-22.21-6.16,1.44-25.48,6.81-40.34,25.28-.38.47-.74.95-1.1,1.42-1.66-2.74-3.63-5.47-5.99-8.12-12.09-13.55-27.16-17.04-32.24-17.98-4.98,1.17-20.63,5.51-32.65,20.46-14.15,17.6-13.15,37.29-12.81,41.75h69.3c-.79,6.74-.5,11.87-.33,14.04h113.36c.46-4.66,2.74-32.11-17.36-54.64ZM39.7,190.2c.4-7.85,2.68-19.57,11.35-30.36,9.06-11.26,20.52-15.85,27.37-17.67,6.65,1.45,17.78,5.3,26.85,15.47,2.87,3.21,5.08,6.57,6.8,9.93-4.74,7.87-7.39,15.74-8.85,22.64h-63.52Z"/>
</svg>