<?xml version="1.0" encoding="UTF-8"?>
<svg id="Layer_1" data-name="Layer 1" xmlns="http://www.w3.org/2000/svg" viewBox="0 0 512 512">
  <defs>
    <style>
      .cls-1 {
        fill: #fff;
      }
    </style>
  </defs>
  <rect id="bg" width="512" height="512"/>
  <g>
    <path class="cls-1" d="M255.22,194.88c33.82,0,61.34,27.52,61.34,61.34s-27.52,61.34-61.34,61.34-61.34-27.52-61.34-61.34,27.52-61.34,61.34-61.34M255.22,177.77c-43.33,0-78.46,35.13-78.46,78.46s35.13,78.46,78.46,78.46,78.46-35.13,78.46-78.46-35.13-78.46-78.46-78.46h0Z"/>
    <path class="cls-1" d="M431.35,247.17h-27.26c-4.5-75.12-64.6-135.25-139.71-139.8v-26.72c0-4.75-3.85-8.61-8.61-8.61s-8.61,3.85-8.61,8.61v26.65c-75.77,4.03-136.53,64.62-140.84,140.32h-25.68c-4.75,0-8.61,3.85-8.61,8.61s3.85,8.61,8.61,8.61h25.68c4.32,75.85,65.31,136.53,141.29,140.35v26.17c0,4.75,3.85,8.61,8.61,8.61s8.61-3.85,8.61-8.61v-26.3c75.2-4.78,135.25-65.28,139.32-140.67h27.21c4.75,0,8.61-3.85,8.61-8.61s-3.85-8.61-8.61-8.61ZM348.58,349.59c-22.66,22.66-52.11,36.07-83.75,38.33v-22.95c0-4.75-3.85-8.61-8.61-8.61s-8.61,3.85-8.61,8.61v23.08c-32.41-1.83-62.62-15.31-85.76-38.45-22.9-22.9-36.34-52.73-38.39-84.76h23.57c4.75,0,8.61-3.85,8.61-8.61s-3.85-8.61-8.61-8.61h-23.57c2.05-32.03,15.49-61.86,38.39-84.76,23.03-23.03,53.07-36.49,85.31-38.42v22.6c0,4.75,3.85,8.61,8.61,8.61s8.61-3.85,8.61-8.61v-22.53c31.82,2.17,61.44,15.59,84.2,38.35,22.79,22.79,36.22,52.45,38.36,84.31h-21.99c-4.75,0-8.61,3.85-8.61,8.61s3.85,8.61,8.61,8.61h22.04c-1.95,32.2-15.41,62.2-38.42,85.2Z"/>
  </g>
</svg>