<?xml version="1.0" encoding="UTF-8"?>
<svg id="Layer_1" data-name="Layer 1" xmlns="http://www.w3.org/2000/svg" viewBox="0 0 512 512">
  <defs>
    <style>
      .cls-1 {
        fill: #fff;
      }
    </style>
  </defs>
  <rect id="bg" width="512" height="512"/>
  <g>
    <path class="cls-1" d="M485.71,244.43h-35.71c-5.89-98.41-84.63-177.18-183.02-183.14V26.29c0-6.22-5.04-11.28-11.28-11.28s-11.28,5.04-11.28,11.28v34.91c-99.26,5.28-178.85,84.65-184.5,183.82H26.28c-6.22,0-11.28,5.04-11.28,11.28s5.04,11.28,11.28,11.28h33.64c5.66,99.36,85.56,178.85,185.09,183.86v34.28c0,6.22,5.04,11.28,11.28,11.28s11.28-5.04,11.28-11.28v-34.45c98.51-6.26,177.18-85.52,182.51-184.28h35.64c6.22,0,11.28-5.04,11.28-11.28s-5.04-11.28-11.28-11.28h-.01ZM377.28,378.6c-29.68,29.68-68.26,47.25-109.71,50.21v-30.06c0-6.22-5.04-11.28-11.28-11.28s-11.28,5.04-11.28,11.28v30.23c-42.46-2.4-82.03-20.06-112.35-50.37-30-30-47.61-69.08-50.29-111.04h30.88c6.22,0,11.28-5.04,11.28-11.28s-5.04-11.28-11.28-11.28h-30.88c2.69-41.96,20.29-81.04,50.29-111.04,30.17-30.17,69.52-47.8,111.76-50.33v29.61c0,6.22,5.04,11.28,11.28,11.28s11.28-5.04,11.28-11.28v-29.51c41.68,2.84,80.49,20.42,110.3,50.24,29.85,29.85,47.45,68.71,50.25,110.45h-28.81c-6.22,0-11.28,5.04-11.28,11.28s5.04,11.28,11.28,11.28h28.87c-2.55,42.18-20.19,81.48-50.33,111.61h.01Z"/>
    <path class="cls-1" d="M304.58,323.32c0,2.28-.12,4.21-.37,5.8-.24,1.59-.59,2.85-1.04,3.78-.45.94-.96,1.61-1.53,2.01-.57.41-1.22.61-1.95.61h-87.16c-.65,0-1.26-.2-1.83-.61-.57-.41-1.08-1.08-1.53-2.01-.45-.93-.79-2.2-1.04-3.78-.24-1.59-.37-3.52-.37-5.8s.1-4.33.31-5.92c.2-1.59.53-2.87.98-3.85.45-.98.96-1.69,1.53-2.14.57-.45,1.22-.67,1.95-.67h29.42v-102.78l-25.39,14.04c-1.87.9-3.4,1.45-4.58,1.65-1.18.2-2.12-.04-2.81-.73-.69-.69-1.16-1.89-1.4-3.6s-.37-4.11-.37-7.2c0-1.95.04-3.56.12-4.82.08-1.26.28-2.34.61-3.23.32-.89.77-1.63,1.34-2.2s1.34-1.18,2.32-1.83l33.94-21.97c.41-.32.92-.59,1.53-.79.61-.2,1.4-.37,2.38-.49s2.26-.2,3.85-.24c1.59-.04,3.64-.06,6.16-.06,3.09,0,5.59.06,7.51.18,1.91.12,3.36.33,4.33.61.98.29,1.63.67,1.95,1.16.32.49.49,1.1.49,1.83v130.49h25.76c.73,0,1.4.22,2.01.67.61.45,1.14,1.16,1.59,2.14.45.98.77,2.26.98,3.85.2,1.59.3,3.56.3,5.92Z"/>
  </g>
</svg>