<?xml version="1.0" encoding="UTF-8"?>
<svg id="Layer_1" data-name="Layer 1" xmlns="http://www.w3.org/2000/svg" viewBox="0 0 512 512">
  <defs>
    <style>
      .cls-1 {
        fill: #fff;
      }
    </style>
  </defs>
  <rect id="bg" width="512" height="512"/>
  <g>
    <path class="cls-1" d="M338.76,389.88c.11-.13.22-.25.33-.38.11-.14.22-.29.32-.43.1-.14.2-.28.29-.42.09-.14.18-.29.26-.43.09-.16.19-.32.27-.48.07-.13.13-.27.19-.4.09-.18.17-.37.25-.56.05-.12.09-.25.14-.37.07-.2.14-.41.2-.62.04-.12.07-.25.1-.38.05-.21.1-.42.14-.63.03-.15.05-.29.07-.44.03-.19.06-.38.07-.58.02-.19.02-.38.03-.57,0-.13.02-.25.02-.38,0-.03,0-.06,0-.09,0-.22-.02-.44-.03-.66,0-.14-.01-.27-.03-.41-.02-.21-.06-.41-.09-.62-.02-.14-.04-.29-.07-.43-.04-.17-.09-.33-.13-.5-.05-.17-.09-.35-.14-.52-.04-.12-.09-.24-.13-.37-.08-.21-.15-.42-.24-.63-.04-.1-.09-.19-.14-.28-.11-.23-.21-.45-.33-.67-.05-.09-.11-.18-.16-.27-.13-.22-.26-.43-.4-.63-.01-.02-.03-.04-.04-.07l-115.62-165.12c-3.4-4.85-10.08-6.03-14.93-2.63h0c-.72.5-1.35,1.08-1.9,1.72-.12.14-.24.28-.36.42-.05.06-.09.12-.14.18-.12.15-.24.3-.35.45l-35.86,51.21-13.68-19.54c-3.4-4.85-10.08-6.03-14.93-2.63-1.03.72-1.89,1.6-2.58,2.57-.3.34-.6.69-.86,1.07l-92.64,132.31c-3.4,4.85-2.22,11.54,2.63,14.93h0c2.15,1.51,4.67,2.11,7.1,1.89.31.03.61.05.93.05h274.43s.06,0,.09,0c.22,0,.43-.02.65-.03.14,0,.28-.01.42-.03.2-.02.39-.06.59-.09.15-.03.31-.04.46-.08.15-.03.3-.08.44-.11.2-.05.39-.09.58-.16.1-.03.19-.07.29-.11.24-.08.48-.17.71-.27.07-.03.14-.07.21-.1.25-.12.51-.24.75-.37.07-.04.14-.08.2-.12.24-.14.47-.28.7-.44.02-.01.04-.02.05-.03h0c.07-.05.14-.11.21-.17.19-.14.38-.28.56-.44.12-.1.23-.21.34-.31.14-.13.28-.26.41-.4.12-.13.24-.26.36-.39ZM147.82,268.1l13.87,19.81c3.4,4.85,10.08,6.03,14.93,2.63h0c1.68-1.18,2.91-2.75,3.67-4.51l34.79-49.68,95.03,135.72H75.02l72.8-103.97Z"/>
    <path class="cls-1" d="M466.36,329.33l-144.44-206.28c-2.02-2.88-5.2-4.46-8.47-4.56-.12,0-.25-.01-.37-.01-.12,0-.25,0-.37.01-3.27.1-6.45,1.67-8.47,4.56l-54.65,78.05c-3.4,4.85-2.22,11.54,2.63,14.93s11.54,2.22,14.93-2.63l45.93-65.59,123.9,176.95h-88.43c-5.92,0-10.72,4.8-10.72,10.72s4.8,10.72,10.72,10.72h106.72c.4,0,.8-.03,1.19-.07,2.48.26,5.07-.33,7.27-1.87,4.85-3.4,6.03-10.08,2.63-14.93Z"/>
  </g>
</svg>