<?xml version="1.0" encoding="UTF-8"?>
<svg id="Layer_1" data-name="Layer 1" xmlns="http://www.w3.org/2000/svg" xmlns:xlink="http://www.w3.org/1999/xlink" viewBox="0 0 512 512">
  <defs>
    <style>
      .cls-1 {
        fill: #585858;
      }

      .cls-2 {
        fill: #fff;
      }

      .cls-3 {
        fill: url(#linear-gradient);
      }
    </style>
    <linearGradient id="linear-gradient" x1="255" y1="478.61" x2="255" y2="33.39" gradientUnits="userSpaceOnUse">
      <stop offset="0" stop-color="#070808"/>
      <stop offset="1" stop-color="#30302f"/>
    </linearGradient>
  </defs>
  <g>
    <rect id="bg" width="512" height="512"/>
    <path id="gray_border" data-name="gray border" class="cls-1" d="M455.24,487.11H52.76c-16.74,0-30.37-13.62-30.37-30.37V54.26c0-16.74,13.62-30.37,30.37-30.37h402.48c16.74,0,30.37,13.62,30.37,30.37v402.48c0,16.74-13.62,30.37-30.37,30.37h0Z"/>
    <path id="gradient" class="cls-3" d="M53.76,33.39h402.48c11.79,0,21.37,9.57,21.37,21.37v402.48c0,11.79-9.57,21.37-21.37,21.37H53.76c-11.79,0-21.37-9.57-21.37-21.37V54.76c0-11.79,9.57-21.37,21.37-21.37Z"/>
  </g>
  <g>
    <g>
      <path class="cls-2" d="M315.55,174.1c-3.63-2.39-7.87-1.39-10.5,1.99-2.52,3.46-1.56,8,1.99,10.5,3.52,2.32,7.9,1.58,10.5-1.99,2.41-3.54,1.56-8-1.99-10.5Z"/>
      <path class="cls-2" d="M337.69,200.99c11.06-16.25,7.39-34.61-9.21-46-16.68-11.27-35.09-7.87-46.15,8.38-7.08,10.39-11.03,30.11-15.27,40.73l-21.85-14.72c-10.08-6.94-20.57-5.43-26.86,4.04l-8.2,12.05c-4.42,6.62-4.55,13.57-.73,19.49-2.57,1.16-4.91,3.05-7.21,5.61-12.89,14.77-32.43,28.97-54.52,38.36-5.18,2.14-8.77,5.03-11.02,8.35-5.04,7.41-2.66,16.39,5.2,21.83l89,60.59c12.71,8.66,24.94,6.62,33.2-5.63l35.19-51.44c2.5-3.56,4.1-7.81,4.35-12.09,8.2,3.16,16,.62,21.31-6.93l8.33-11.88c6.4-9.4,3.98-19.62-5.99-26.49l-21.83-15.11c8.24-7.82,25.15-18.64,32.3-29.14ZM289.05,291.08l-36.37,53.3c-3.24,4.75-8.09,5.58-13.39,1.97l-7.76-5.36c7.6-13.19,22.29-44.85,16.76-48.62-1.77-1.2-2.84.25-3.59,1.36-7.68,11.28-20.75,26.56-35.81,31.92l-17.72-12.09c7.88-14.64,19.72-41.4,14.66-44.84-1.77-1.2-2.84.25-3.59,1.36-6.85,10.07-18.01,23.32-31.04,29.86l-15.95-10.89c-2.53-1.64-2.45-3.77-1.15-5.56.68-.99,1.52-1.64,2.56-2.22,22.49-10.82,41.74-25.54,55.21-39.27,6.54-6.63,10.76-5.7,14.98-2.75l.08-.11,59.48,40.5.02.09c4.74,3.14,5.7,6.71,2.63,11.34ZM325.43,193.21c-5.4,8.05-27.57,24.1-35.95,32.72-3.73,4.17-4.33,8.14-.36,10.75l27.77,18.99c3.63,2.39,4.43,6.09,2.02,9.63l-5.25,7.35c-2.33,3.43-5.88,4-9.49,1.71l-77.7-52.82c-3.63-2.39-4.26-6.22-2.02-9.63l5.1-7.61c2.33-3.43,6.25-4.08,9.7-1.65l27.66,18.91c3.9,2.82,7.36.72,9.89-4.19,4.93-11.04,11.83-37.57,17.25-45.53,6.4-9.4,17.07-11.52,26.46-5.12,9.4,6.4,11.22,17.03,4.93,26.5Z"/>
    </g>
    <path class="cls-2" d="M256,94.9c43.03,0,83.49,16.76,113.91,47.18,30.43,30.43,47.18,70.88,47.18,113.91s-16.76,83.49-47.18,113.91c-30.43,30.43-70.88,47.18-113.91,47.18s-83.49-16.76-113.91-47.18c-30.43-30.43-47.18-70.88-47.18-113.91s16.76-83.49,47.18-113.91c30.43-30.43,70.88-47.18,113.91-47.18M256,79.9c-97.26,0-176.1,78.84-176.1,176.1s78.84,176.1,176.1,176.1,176.1-78.84,176.1-176.1-78.84-176.1-176.1-176.1h0Z"/>
  </g>
</svg>