<?xml version="1.0" encoding="UTF-8"?>
<svg id="Layer_1" data-name="Layer 1" xmlns="http://www.w3.org/2000/svg" xmlns:xlink="http://www.w3.org/1999/xlink" viewBox="0 0 512 512">
  <defs>
    <style>
      .cls-1 {
        fill: #585858;
      }

      .cls-2 {
        fill: #fff;
      }

      .cls-3 {
        fill: url(#linear-gradient);
      }
    </style>
    <linearGradient id="linear-gradient" x1="255" y1="478.61" x2="255" y2="33.39" gradientUnits="userSpaceOnUse">
      <stop offset="0" stop-color="#070808"/>
      <stop offset="1" stop-color="#30302f"/>
    </linearGradient>
  </defs>
  <g>
    <rect id="bg" width="512" height="512"/>
    <path id="gray_border" data-name="gray border" class="cls-1" d="M455.24,487.11H52.76c-16.74,0-30.37-13.62-30.37-30.37V54.26c0-16.74,13.62-30.37,30.37-30.37h402.48c16.74,0,30.37,13.62,30.37,30.37v402.48c0,16.74-13.62,30.37-30.37,30.37h0Z"/>
    <path id="gradient" class="cls-3" d="M53.76,33.39h402.48c11.79,0,21.37,9.57,21.37,21.37v402.48c0,11.79-9.57,21.37-21.37,21.37H53.76c-11.79,0-21.37-9.57-21.37-21.37V54.76c0-11.79,9.57-21.37,21.37-21.37Z"/>
  </g>
  <g>
    <g>
      <path class="cls-2" d="M408.43,378.9l-231.4-231.4c4.05-6.38,6.4-13.95,6.4-22.07,0-22.79-18.47-41.26-41.26-41.26s-41.26,18.47-41.26,41.26,18.47,41.26,41.26,41.26c8.12,0,15.68-2.35,22.07-6.4l231.4,231.4c3.53,3.53,9.26,3.53,12.79,0,3.53-3.53,3.53-9.26,0-12.79Z"/>
      <path class="cls-2" d="M103.57,378.9l231.4-231.4c-4.05-6.38-6.4-13.95-6.4-22.07,0-22.79,18.47-41.26,41.26-41.26s41.26,18.47,41.26,41.26-18.47,41.26-41.26,41.26c-8.12,0-15.68-2.35-22.07-6.4l-231.4,231.4c-3.53,3.53-9.26,3.53-12.79,0-3.53-3.53-3.53-9.26,0-12.79Z"/>
    </g>
    <path class="cls-2" d="M284.72,357.93c-5.83-5.65-12.9-9.23-20.3-10.76l-3.37-218.36c-.08-5-4.19-8.98-9.18-8.9h0c-4.99.08-8.98,4.19-8.9,9.18l3.37,218.36c-7.35,1.76-14.31,5.56-19.96,11.39-15.86,16.36-15.46,42.48.9,58.35,16.36,15.86,42.48,15.46,58.35-.9,15.86-16.36,15.46-42.48-.9-58.35Z"/>
    <g>
      <circle class="cls-2" cx="256" cy="239.26" r="38.18"/>
      <path d="M261.65,231.99v-17.93c0-3.12-2.53-5.65-5.65-5.65s-5.65,2.53-5.65,5.65v17.46c-5.53,7.5-11.05,15-16.58,22.51l2.02,16.1,11.11-10.18h16.81s1.3,0,1.3,0c3.73,3.39,7.47,6.79,11.2,10.18l2.02-16.1c-5.53-7.34-11.05-14.69-16.58-22.03Z"/>
    </g>
  </g>
</svg>