<?xml version="1.0" encoding="UTF-8"?>
<svg id="Layer_1" data-name="Layer 1" xmlns="http://www.w3.org/2000/svg" xmlns:xlink="http://www.w3.org/1999/xlink" viewBox="0 0 512 512">
  <defs>
    <style>
      .cls-1 {
        fill: #585858;
      }

      .cls-2 {
        fill: #fff;
      }

      .cls-3 {
        fill: #4ac55c;
      }

      .cls-4 {
        fill: url(#linear-gradient);
      }
    </style>
    <linearGradient id="linear-gradient" x1="255" y1="478.61" x2="255" y2="33.39" gradientUnits="userSpaceOnUse">
      <stop offset="0" stop-color="#070808"/>
      <stop offset="1" stop-color="#30302f"/>
    </linearGradient>
  </defs>
  <g>
    <rect id="bg" width="512" height="512"/>
    <path id="gray_border" data-name="gray border" class="cls-1" d="M455.24,487.11H52.76c-16.74,0-30.37-13.62-30.37-30.37V54.26c0-16.74,13.62-30.37,30.37-30.37h402.48c16.74,0,30.37,13.62,30.37,30.37v402.48c0,16.74-13.62,30.37-30.37,30.37h0Z"/>
    <path id="gradient" class="cls-4" d="M53.76,33.39h402.48c11.79,0,21.37,9.57,21.37,21.37v402.48c0,11.79-9.57,21.37-21.37,21.37H53.76c-11.79,0-21.37-9.57-21.37-21.37V54.76c0-11.79,9.57-21.37,21.37-21.37Z"/>
  </g>
  <g>
    <g>
      <path class="cls-2" d="M426.95,171.34c0-57.92-46.96-104.88-104.88-104.88s-104.88,46.96-104.88,104.88c0,12.67,2.25,24.82,6.37,36.06,0,0,0,0,0,0,.81,2.2,1.71,4.35,2.65,6.48.12.3.24.58.37.89,11.5,27.6,22.28,48.77,32.42,67.93,12.93,24.45,36.93,68.55,69.31,124.81,32.99-73.94,49.99-109.42,59.41-127.74,3.36-6.54,16.38-31.55,30.5-66.44.12-.29.22-.55.33-.83.65-1.52,1.26-3.05,1.84-4.61.1-.25.2-.51.29-.73h0c2.77-7.61,4.68-15.63,5.62-23.95.44-3.9.66-7.86.66-11.87ZM322.06,250.57c-39.02,0-70.65-31.63-70.65-70.65s31.63-70.65,70.65-70.65,70.65,31.63,70.65,70.65-31.63,70.65-70.65,70.65Z"/>
      <polygon class="cls-2" points="371.2 172.58 329.89 172.58 329.89 131.26 314.24 131.26 314.24 172.58 272.92 172.58 272.92 188.23 314.24 188.23 314.24 229.54 329.89 229.54 329.89 188.23 371.2 188.23 371.2 172.58"/>
    </g>
    <polygon class="cls-3" points="243.48 354.96 175.63 354.96 175.63 287.12 152.9 287.12 152.9 354.96 85.05 354.96 85.05 377.7 152.9 377.7 152.9 445.54 175.63 445.54 175.63 377.7 243.48 377.7 243.48 354.96"/>
  </g>
</svg>