<?xml version="1.0" encoding="UTF-8"?>
<svg id="Layer_1" data-name="Layer 1" xmlns="http://www.w3.org/2000/svg" viewBox="0 0 512 512">
  <defs>
    <style>
      .cls-1 {
        fill: #fff;
      }
    </style>
  </defs>
  <rect id="bg" width="512" height="512"/>
  <g>
    <path class="cls-1" d="M256,61.36c-107.5,0-194.64,87.14-194.64,194.64s87.14,194.64,194.64,194.64,194.64-87.14,194.64-194.64S363.5,61.36,256,61.36ZM386.57,375.42l-20.6-20.6c-3.29-3.29-8.63-3.29-11.93,0-3.29,3.29-3.29,8.63,0,11.93l20.57,20.57c-30.5,27.61-69.06,43.51-110.17,45.43v-28.88c0-4.66-3.78-8.43-8.43-8.43s-8.43,3.78-8.43,8.43v28.88c-41.11-1.92-79.68-17.82-110.17-45.43l20.57-20.57c3.29-3.29,3.29-8.63,0-11.93s-8.63-3.29-11.93,0l-20.6,20.6c-27.89-30.43-44.05-69.02-46.14-110.21h29.63c4.66,0,8.43-3.78,8.43-8.43h0c0-4.66-3.78-8.43-8.43-8.43h-29.7c1.75-41.41,17.67-80.27,45.46-110.96l21.35,21.35c3.29,3.29,8.63,3.29,11.93,0s3.29-8.63,0-11.93l-21.38-21.38c30.63-28.07,69.51-44.25,110.99-46.18v30.45c0,4.66,3.78,8.43,8.43,8.43s8.43-3.78,8.43-8.43v-30.45c41.48,1.93,80.36,18.11,110.99,46.18l-21.38,21.38c-3.29,3.29-3.29,8.63,0,11.93s8.63,3.29,11.93,0l21.35-21.35c27.79,30.69,43.71,69.55,45.46,110.96h-29.7c-4.66,0-8.43,3.78-8.43,8.43h0c0,4.66,3.78,8.43,8.43,8.43h29.63c-2.1,41.19-18.25,79.77-46.14,110.21Z"/>
    <path class="cls-1" d="M291.16,155.43c-.07,0-.13,0-.2.01-2.64-.03-5.28.98-7.26,3.02l-124.7,129.13c-3.81,3.95-3.7,10.24.25,14.05h0c2.39,2.3,5.63,3.17,8.66,2.62.56-.05,1.13-.14,1.69-.29l74.2-19.88,38.16,66.09c2.74,4.75,8.82,6.38,13.58,3.64h0c.09-.05.16-.11.25-.16,3.16-1.66,5.31-4.98,5.31-8.79v-179.51c0-5.49-4.45-9.94-9.94-9.94ZM257.21,267.57c-2.28-3.94-6.84-5.72-11.04-4.66-.12.03-.25.05-.37.08l-47.74,12.79,83.17-86.13v119.5l-24.01-41.59Z"/>
  </g>
</svg>