<?xml version="1.0" encoding="UTF-8"?>
<svg id="Layer_1" data-name="Layer 1" xmlns="http://www.w3.org/2000/svg" viewBox="0 0 512 512">
  <defs>
    <style>
      .cls-1 {
        fill: #fff;
      }
    </style>
  </defs>
  <rect id="bg" width="512" height="512"/>
  <g>
    <path class="cls-1" d="M378.13,134.59h0c-4.6-4.6-12.06-4.6-16.66,0l-181.23,181.23v-71.65c0-6.5-5.27-11.78-11.78-11.78h0c-6.5,0-11.78,5.27-11.78,11.78v103.23c0,6.5,5.27,11.78,11.78,11.78h103.23c6.5,0,11.78-5.27,11.78-11.78s-5.27-11.78-11.78-11.78h-77.95l184.38-184.38c4.6-4.6,4.6-12.06,0-16.66Z"/>
    <path class="cls-1" d="M449.23,314.5V76.19c0-6.5-5.27-11.78-11.78-11.78h0c-.26,0-.52.02-.78.04-.26-.02-.51-.04-.78-.04h-239.62c-.23,0-.45.02-.68.03-.23-.01-.45-.03-.68-.03h0c-6.5,0-11.78,5.27-11.78,11.78v89.18c0,6.5,5.27,11.78,11.78,11.78s11.78-5.27,11.78-11.78v-77.4s218.97,0,218.97,0v216.45s-79.34,0-79.34,0c-6.5,0-11.78,5.27-11.78,11.78s5.27,11.78,11.78,11.78h89.18c3.42,0,6.49-1.47,8.65-3.8,3.06-2.13,5.07-5.66,5.07-9.67Z"/>
    <path class="cls-1" d="M325.94,271.61c0-6.5-5.27-11.78-11.78-11.78h0c-6.5,0-11.78,5.27-11.78,11.78v152.43s-216.06,0-216.06,0v-216.91s154.98,0,154.98,0c6.5,0,11.78-5.27,11.78-11.78s-5.27-11.78-11.78-11.78H77.1c-2.96,0-5.66,1.1-7.73,2.9-3.91,1.92-6.61,5.92-6.61,10.57v238.31c0,6.22,4.83,11.3,10.94,11.73,1.08.32,2.22.5,3.4.5h232.21c.83,0,1.64-.09,2.42-.25.78.16,1.59.25,2.42.25,6.5,0,11.78-5.27,11.78-11.78v-164.2Z"/>
  </g>
</svg>