<?xml version="1.0" encoding="UTF-8"?>
<svg id="Layer_1" data-name="Layer 1" xmlns="http://www.w3.org/2000/svg" viewBox="0 0 512 512">
  <defs>
    <style>
      .cls-1 {
        fill: #fff;
      }
    </style>
  </defs>
  <rect id="bg" width="512" height="512"/>
  <g>
    <path class="cls-1" d="M256,90.35l199.95,342.42H56.05L256,90.35M256,54.23c-4.59,0-9.18,2.26-11.82,6.79L24.53,437.17c-5.33,9.13,1.25,20.6,11.82,20.6h439.29c10.57,0,17.16-11.47,11.82-20.6L267.82,61.02c-2.64-4.53-7.23-6.79-11.82-6.79h0Z"/>
    <circle class="cls-1" cx="256" cy="370.07" r="25.53"/>
    <path class="cls-1" d="M230.6,207.17c1.18-1.2,2.96-2.83,5.36-4.43,8.17-5.41,16.49-5.66,19.4-5.71,3.08-.05,12.5-.09,21.28,6.05,2.14,1.5,3.72,3,4.77,4.09-2.11,17.88-4.23,35.77-6.34,53.65-2.48,21.01-4.97,42.02-7.45,63.03-1.51,5.77-6.87,9.61-12.51,9.19-5.04-.37-9.41-4.07-10.72-9.19l-13.79-116.68Z"/>
  </g>
</svg>