<?xml version="1.0" encoding="UTF-8"?>
<svg id="Layer_1" data-name="Layer 1" xmlns="http://www.w3.org/2000/svg" viewBox="0 0 512 512">
  <defs>
    <style>
      .cls-1 {
        fill: #fff;
      }
    </style>
  </defs>
  <rect id="bg" width="512" height="512"/>
  <path class="cls-1" d="M458.78,305.62l-73.11-62.99v31.59h-35.46v-58.86c.23-15.23.45-30.47.68-45.7-33.05-29.83-66.11-59.65-99.16-89.48l-27.43-.1-.15-.09H53.22v352h297v-94.97h35.46v31.59l73.11-62.99ZM232.9,110c.1.09.2.18.3.27.38.33.75.66,1.13.98,0,0-.02,0-.02.01,22.14,19.89,44.29,39.77,66.43,59.66h-73.77v-55.98c0-3.36,0-6.73,0-10.09,1.97,1.72,3.95,3.44,5.92,5.15h0ZM320.22,274.22h-156.72v62.81h156.72v64.97H83.22V110h118.75v85.92h118.25v78.3Z"/>
</svg>