<?xml version="1.0" encoding="UTF-8"?>
<svg id="Layer_1" data-name="Layer 1" xmlns="http://www.w3.org/2000/svg" viewBox="0 0 512 512">
  <defs>
    <style>
      .cls-1 {
        fill: #fff;
      }
    </style>
  </defs>
  <rect width="512" height="512"/>
  <path class="cls-1" d="M469.04,222.19c-2.44-5.85-9.41-22.63-27.37-32.51-4.63-2.55-9.21-4.21-13.45-5.29-64.47-27.73-128.93-55.47-193.4-83.2-.48-.05-2.38-.22-5.31-.22-11.55,0-38.97,2.64-56.99,25.75-17.8,22.82-18.83,55.83-2.04,81.7,10.21,5.63,20.43,11.26,30.64,16.89-11.19,0-20.76-.02-28.22-.05-14.97-.05-18.92-.1-25.02.26-10.83.63-20.17,2.06-27.65,3.56-12.27,3.71-30.71,10.91-49.62,25.34-15.69,11.98-26.29,24.8-33.02,34.38,57.3,40.74,114.61,81.48,171.91,122.21,7.32-10.01,19.08-24.02,36.48-37.37,10.51-8.07,21.54-16.42,38.42-22.29,25.91-9.01,50.53-6.2,58.64-5.19,11.05,1.37,23,4.28,43.57,4.3,5.57,0,10.14-.2,13.15-.38,2.11-.15,5.09-.5,8.55-1.4,4.98-1.3,11.34-3.85,22.55-12.89,12.27-9.9,20.04-19.28,22.09-21.79,6.89-8.46,12.34-15.27,16.09-25.96.87-2.46,2.34-7.13,3.44-15.27,2-14.83,4.3-31.97-3.44-50.57ZM173.52,166.83c.31-11.52,4.05-22.2,10.82-30.88,14.06-18.03,36.27-19.98,45.16-19.98.68,0,1.28.01,1.79.03l142.49,60.96,18.63,7.97c-7.55,1.94-16.38,5.48-25.05,11.9-15.92,11.8-22.46,26.84-24.77,33.02-2.47,6.46-5.06,15.2-6.13,25.77-1.09,10.74-.28,20.13,1.02,27.54-29.4-16.02-58.8-32.04-88.2-48.05l-68.08-37.86c-5.33-9.36-7.98-19.8-7.7-30.41ZM462.39,267.66c-1.31,6.91-2.73,14.35-7.4,22.89-3.21,5.86-6.78,10.1-10.6,14.64-1.32,1.57-4.87,5.71-10,10.58-2.48,2.35-5.09,4.64-8.12,7.1-3.19,2.59-8.07,5.95-14.64,8.49-7.58,2.94-14.32,3.58-18.72,3.66-3.8.13-9.41.07-16.09-1.02-3.58-.58-5.63-1.16-9.19-2.04-7.01-1.73-17.09-4.22-26.04-5.11-4.67-.46-11.56-.74-20.17.45-12.05,1.49-27.56,4.6-44.68,11.3-13.64,5.33-24.87,11.59-33.62,17.3-6.59,4.73-14.04,10.86-21.53,18.7-5.07,5.3-9.31,10.51-12.85,15.34-50.61-34.72-101.22-69.45-151.83-104.17,7.44-7.23,17.36-15.53,30.04-23.17,8.23-4.96,16.07-8.7,23.06-11.55,10.65-4.33,19.67-6.16,25.96-7.51,2.47-.53,4.66-.7,8.53-1.64.99-.24,2.51-.63,4.66-.91,1.5-.2,2.48-.23,4.21-.32,5-.25,4.48-.33,7.47-.45,2.01-.08,4.74-.14,8.02-.06,2.95.06,5.9.11,8.85.17h6.81c5.36.27,10.81.61,16.34,1.02,12.47.93,24.48,2.19,35.99,3.69,38.23,21.08,76.45,42.16,114.68,63.24,8.55,8.03,17.76,11.31,23.04,12.7,0,0,0,0,0,0,0,0,0,0,0,0,.5.13.97.25,1.39.35,5,.91,11.88,1.64,20,.94,8.05-.7,14.66-2.58,19.4-4.32,5.1-2.72,13.23-7.87,20.68-16.87,7.81-9.44,11.36-18.86,13.02-24.49,1.98-4.35,6.07-14.91,4.09-28.36-1.45-9.84-5.53-16.98-8.13-20.81-2.77-3.38-9.89-11.15-22-15.19-3.56-1.19-15.52-4.73-29.62-.26-21.12,6.71-29.55,26.37-30.81,29.45-1.21,3.16-6.63,18.28.77,34.13,4.05,8.67,10.2,13.85,13.7,16.36,3.53,1.52,9.43,3.52,16.94,3.55,5.28.03,9.66-.93,12.77-1.87,2.55-.95,6.75-2.89,10.81-6.77,4.59-4.39,6.76-9.13,7.74-11.77.68-2.61,1.29-5.84,1.53-9.55.21-3.22.08-6.09-.17-8.51-.69-2.55-2.47-7.78-7.15-12.6-5.37-5.53-11.47-7.36-14.04-7.98-2.96-.81-6.08.29-7.74,2.7-1.44,2.08-1.59,4.84-.43,7.17,1.77.21,6.41,1.01,10.64,4.74,5.06,4.47,6.14,10.15,6.38,11.77.06,1.83-.06,6.13-2.64,10.7-2.62,4.63-6.31,6.96-7.91,7.85-1.98.72-7.5,2.4-14.04.49-4.53-1.33-7.57-3.8-9.11-5.26-2.15-2.64-5.94-8.04-7.4-15.85-.96-5.13-.58-9.49-.09-12.4,1.56-3.58,4.43-9.02,9.62-14.32,4.56-4.66,9.22-7.5,12.51-9.17,3.09-.99,8.99-2.39,16-.87,3.58.77,6.45,2.08,8.51,3.26,3.49,1.83,9.97,5.89,14.72,13.6,8.87,14.39,4.46,29.75,3.66,32.36-1.21,4.27-4.47,13.54-13.11,21.77-7.38,7.03-15.22,10-19.4,11.26-3.5,1.37-9.79,3.27-17.62,2.53-4.29-.4-7.84-1.48-10.47-2.53-3.79-1.4-11.19-4.7-17.87-12.02-6.71-7.35-9.34-15.05-10.38-18.96-1.1-5.01-4.61-23.51,4.13-41.23,5.32-10.78,14.09-19.08,18.58-22.65.98-.78,2.5-1.93,4.01-3.01,4.63-3.33,9.57-6.85,15.38-9.15,6.49-2.57,11.98-2.76,16.4-2.91,3.69-.13,10.94-.32,19.74,2.55,11.7,3.82,18.88,10.68,21.11,12.94,1.28,1.3,5.64,5.87,9.36,13.11,1.02,1.98,4.8,9.65,5.96,20.6.93,8.82-.32,15.37-1.62,22.21Z"/>
</svg>