<?xml version="1.0" encoding="UTF-8"?>
<svg id="Layer_1" data-name="Layer 1" xmlns="http://www.w3.org/2000/svg" viewBox="0 0 510.49 115">
  <defs>
    <style>
      .cls-1 {
        fill: #fff;
      }

      .cls-2 {
        fill: #989898;
      }
    </style>
  </defs>
  <rect id="bg" width="510.49" height="115"/>
  <g>
    <g id="multi-select">
      <path class="cls-1" d="M308.13,24.28v27.45h-27.45v-27.45h27.45M310.34,22.06h-31.88v31.88h31.88v-31.88h0Z"/>
      <path class="cls-1" d="M348.96,24.28v27.45h-27.45v-27.45h27.45M351.17,22.06h-31.88v31.88h31.88v-31.88h0Z"/>
      <path class="cls-1" d="M348.96,65.81v27.45h-27.45v-27.45h27.45M351.17,63.6h-31.88v31.88h31.88v-31.88h0Z"/>
      <path class="cls-1" d="M308.13,65.81v27.45h-27.45v-27.45h27.45M310.34,63.6h-31.88v31.88h31.88v-31.88h0Z"/>
      <polygon class="cls-1" points="302.3 34.2 300.58 32.49 291.97 41.1 287.96 37.11 286.25 38.82 290.24 42.83 290.24 42.83 291.95 44.56 291.97 44.55 291.98 44.56 293.69 42.83 293.68 42.83 302.3 34.2"/>
      <polygon class="cls-1" points="343.26 34.2 341.53 32.49 332.91 41.1 328.92 37.11 327.19 38.82 331.2 42.83 331.19 42.83 332.9 44.56 332.91 44.55 332.92 44.56 334.64 42.83 334.64 42.83 343.26 34.2"/>
      <polygon class="cls-1" points="302.3 75.23 300.58 73.5 291.97 82.12 287.96 78.12 286.25 79.84 290.24 83.85 290.24 83.85 291.95 85.57 291.97 85.56 291.98 85.57 293.69 83.85 293.68 83.85 302.3 75.23"/>
      <polygon class="cls-1" points="343.26 75.23 341.53 73.5 332.91 82.12 328.92 78.12 327.19 79.84 331.2 83.85 331.19 83.85 332.9 85.57 332.91 85.56 332.92 85.57 334.64 83.85 334.64 83.85 343.26 75.23"/>
    </g>
    <g id="AZ_Sort" data-name="AZ Sort">
      <polygon class="cls-1" points="225.24 75.88 225.24 28.99 205.09 28.99 205.09 75.88 193.93 75.88 215.16 96.63 236.4 75.88 225.24 75.88"/>
      <g>
        <path class="cls-1" d="M179.85,24.28l8.64,24.52h-6.95l-1.7-5.05h-8.92l-1.73,5.05h-5.67l8.84-24.52h7.48ZM172.47,39.22h5.85l-2.9-8.61-2.95,8.61Z"/>
        <path class="cls-1" d="M186.19,68.98l-13.94,15.61h14.38v4.69h-22.28v-4.17l13.91-15.72h-12.98v-4.64h20.9v4.22Z"/>
      </g>
    </g>
    <g id="Add">
      <polygon class="cls-1" points="110.84 52.8 96.19 52.8 96.19 38.15 93.86 38.15 93.86 52.8 79.2 52.8 79.2 55.13 93.86 55.13 93.86 69.79 96.19 69.79 96.19 55.13 110.84 55.13 110.84 52.8"/>
      <path class="cls-1" d="M94.78,21.69c17.68,0,32.07,14.39,32.07,32.07s-14.39,32.07-32.07,32.07-32.07-14.39-32.07-32.07,14.39-32.07,32.07-32.07M94.78,18.37c-19.54,0-35.39,15.84-35.39,35.39s15.84,35.39,35.39,35.39,35.39-15.84,35.39-35.39-15.84-35.39-35.39-35.39h0Z"/>
    </g>
    <path id="Magnifying_Glass" data-name="Magnifying Glass" class="cls-2" d="M450.03,75.62l-8.98-8.98c-1.34-1.34-3.45-1.4-4.89-.23l-3.84-3.84c2.28-3.04,3.66-6.8,3.66-10.89,0-10.02-8.13-18.15-18.15-18.15s-18.15,8.13-18.15,18.15,8.13,18.15,18.15,18.15c4.21,0,8.07-1.44,11.14-3.84l3.81,3.81c-1.21,1.43-1.16,3.57.19,4.92l8.98,8.98c1.43,1.43,3.74,1.43,5.16,0l2.92-2.92c1.43-1.43,1.43-3.74,0-5.16ZM403,51.68c0-8.18,6.65-14.83,14.83-14.83s14.83,6.65,14.83,14.83-6.65,14.83-14.83,14.83-14.83-6.65-14.83-14.83Z"/>
  </g>
</svg>