<?xml version="1.0" encoding="UTF-8"?>
<svg id="Layer_1" data-name="Layer 1" xmlns="http://www.w3.org/2000/svg" viewBox="0 0 512 512">
  <defs>
    <style>
      .cls-1 {
        fill: #fff;
      }
    </style>
  </defs>
  <rect id="bg" width="512" height="512"/>
  <path class="cls-1" d="M263.17,55.29c12.65,0,22.94,10.29,22.94,22.94v49.24h137.05v106.66h-34.44c-24.09,0-43.69,19.6-43.69,43.69s19.6,43.69,43.69,43.69h34.44v103.03h-116.75v-30.31c0-24.09-19.6-43.69-43.69-43.69s-43.69,19.6-43.69,43.69v30.31h-92.94v-125.59h-48.01c-12.65,0-22.94-10.29-22.94-22.94s10.29-22.94,22.94-22.94h48.01v-125.59h114.14v-49.24c0-12.65,10.29-22.94,22.94-22.94M263.17,35.17h0c-23.78,0-43.06,19.28-43.06,43.06v29.12h-114.14v125.59h-27.89c-23.78,0-43.06,19.28-43.06,43.06h0c0,23.78,19.28,43.06,43.06,43.06h27.89v125.59h133.18v-50.43c0-13.02,10.55-23.57,23.57-23.57s23.57,10.55,23.57,23.57v50.43h156.99v-143.27h-54.56c-13.02,0-23.57-10.55-23.57-23.57h0c0-13.02,10.55-23.57,23.57-23.57h54.56V107.35h-137.05v-29.12c0-23.78-19.28-43.06-43.06-43.06h0Z"/>
</svg>