<?xml version="1.0" encoding="UTF-8"?>
<svg id="Layer_1" data-name="Layer 1" xmlns="http://www.w3.org/2000/svg" viewBox="0 0 512 512">
  <defs>
    <style>
      .cls-1 {
        fill: #fff;
      }
    </style>
  </defs>
  <rect id="bg" width="512" height="512"/>
  <path class="cls-1" d="M407,103.69h0c-26.91-26.91-70.55-26.91-97.46,0l-180.46,180.46c-8.28,8.28-14.01,18.16-17.19,28.63,0,0,0,0,0,0,0,0-.01.05-.03.13-.71,2.36-1.3,4.75-1.75,7.17-2.39,9.84-6.31,26.15-6.02,26.15h0c-6.36,25.21-12.72,50.42-19.08,75.62-1.01,3.99,2.7,7.57,6.66,6.43,19.53-5.66,39.06-11.33,58.6-16.99h0c.95.24,28.92-7.4,42.47-11.13,2.37-.52,4.71-1.17,7.02-1.94.13-.04.21-.06.21-.06h0c9.72-3.3,18.85-8.8,26.59-16.54l180.46-180.46c26.91-26.91,26.91-70.55,0-97.46Z"/>
</svg>