<?xml version="1.0" encoding="UTF-8"?>
<svg id="Layer_1" data-name="Layer 1" xmlns="http://www.w3.org/2000/svg" viewBox="0 0 512 512">
  <defs>
    <style>
      .cls-1 {
        fill: #fff;
      }
    </style>
  </defs>
  <rect id="bg" width="512" height="512"/>
  <g>
    <path class="cls-1" d="M342.94,105.55c3.49,9.66-.39,18.56-1.53,21.19-4.74,10.88-13.98,15.62-16.6,16.85-54.89.18-109.79.37-164.68.55.34,72.85.68,145.7,1.02,218.55h158.3c1.59.43,9.12,2.66,13.66,10.34,5.13,8.67,2.37,17.4,1.91,18.77-3.97,11.87-16.1,15.13-16.97,15.35H122.1c-8.95,0-16.21-8.76-16.21-19.57V107.04c0-10.81,7.26-19.57,16.21-19.57h195.95c11.61,1.42,21.36,8.31,24.89,18.09Z"/>
    <rect class="cls-1" x="202.9" y="214.46" width="30.45" height="74.61" rx="15.23" ry="15.23"/>
    <path class="cls-1" d="M333.94,196.62v19.88h-72.99c-4.84,0-8.76,3.92-8.76,8.76v52.91c0,4.84,3.92,8.76,8.76,8.76h72.99v19.88c0,5.45,6.04,8.72,10.61,5.75l84.5-55.09c4.15-2.71,4.15-8.79,0-11.5l-84.5-55.09c-4.56-2.98-10.61.3-10.61,5.75Z"/>
  </g>
</svg>