<?xml version="1.0" encoding="UTF-8"?>
<svg id="Layer_1" data-name="Layer 1" xmlns="http://www.w3.org/2000/svg" viewBox="0 0 512 512">
  <defs>
    <style>
      .cls-1 {
        fill: #fff;
      }
    </style>
  </defs>
  <rect id="bg" width="512" height="512"/>
  <g>
    <path class="cls-1" d="M406.88,132.06c-11.62,0-21.05,9.42-21.05,21.05v219.71H126.17v-219.71c0-11.62-9.42-21.05-21.05-21.05s-21.05,9.42-21.05,21.05v254.5c0,11.62,9.42,21.05,21.05,21.05h301.76c11.62,0,21.05-9.42,21.05-21.05v-254.5c0-11.62-9.42-21.05-21.05-21.05Z"/>
    <rect class="cls-1" x="216.4" y="83.34" width="80.25" height="32.76" rx="16.38" ry="16.38"/>
    <path class="cls-1" d="M315.84,224.29h-21.39v-78.51c0-5.2-4.22-9.42-9.42-9.42h-56.91c-5.2,0-9.42,4.22-9.42,9.42v78.51h-21.39c-5.86,0-9.38,6.5-6.18,11.41l59.26,90.89c2.91,4.47,9.45,4.47,12.36,0l59.26-90.89c3.2-4.91-.32-11.41-6.18-11.41Z"/>
  </g>
</svg>