<?xml version="1.0" encoding="UTF-8"?>
<svg id="Layer_1" data-name="Layer 1" xmlns="http://www.w3.org/2000/svg" viewBox="0 0 512.29 512">
  <defs>
    <style>
      .cls-1 {
        fill: #fd9e9c;
      }

      .cls-2 {
        fill: #7f7f7f;
      }
    </style>
  </defs>
  <rect id="bg" width="512" height="512"/>
  <g>
    <path class="cls-1" d="M328.09,64.34h184.19v191.66h-124.19c-33.11,0-60-26.89-60-60V64.34h0Z"/>
    <rect x="357.71" y="151.69" width="134.43" height="7.49" rx="3.75" ry="3.75" transform="translate(14.54 345.99) rotate(-45)"/>
    <g>
      <path d="M407.34,178.32c-5.16-4.54-8.42-11.19-8.42-18.6,0-13.68,11.09-24.77,24.77-24.77,7.41,0,14.06,3.26,18.6,8.42l8.45-8.45c-7.54-3.27-16.49-5.62-26.77-5.76-34.43-.46-54.73,24.25-57.06,27.19-.23.3-.99,1.38-.93,2.93.05,1.33.68,2.24.93,2.56,1.64,2.15,13.14,16.62,33.17,23.75l7.28-7.28Z"/>
      <path d="M423.68,179.49c10.9,0,19.77-8.87,19.77-19.77,0-2.08-.33-4.09-.93-5.98l-24.82,24.82c1.89.6,3.9.93,5.98.93Z"/>
      <path d="M479.11,156.36c-1.47-1.85-8.78-10.77-21.31-17.9l-11.4,11.4c1.31,3.02,2.05,6.36,2.05,9.86,0,13.68-11.09,24.77-24.77,24.77-3.51,0-6.84-.73-9.86-2.05l-5.52,5.52c4.61,1.01,9.58,1.6,14.9,1.59,34.06-.09,53.68-24.79,55.91-27.7.25-.38.83-1.4.81-2.83-.02-1.33-.56-2.27-.81-2.66Z"/>
      <path d="M423.68,139.96c-10.9,0-19.77,8.87-19.77,19.77,0,6.02,2.72,11.42,6.98,15.04l27.83-27.83c-3.63-4.26-9.02-6.98-15.04-6.98Z"/>
    </g>
  </g>
  <g>
    <path class="cls-2" d="M202.91,192.4l115.41,197.64H87.5l115.41-197.64M202.91,171.55c-2.65,0-5.3,1.3-6.82,3.92l-126.78,217.11c-3.08,5.27.72,11.89,6.82,11.89h253.55c6.1,0,9.9-6.62,6.82-11.89l-126.77-217.11c-1.52-2.61-4.17-3.92-6.82-3.92h0Z"/>
    <circle class="cls-2" cx="202.91" cy="353.85" r="14.74"/>
    <path class="cls-2" d="M188.25,259.83c.68-.69,1.71-1.63,3.09-2.56,4.72-3.12,9.52-3.27,11.2-3.3,1.78-.03,7.21-.05,12.28,3.49,1.24.87,2.15,1.73,2.75,2.36-1.22,10.32-2.44,20.65-3.66,30.97-1.43,12.13-2.87,24.25-4.3,36.38-.87,3.33-3.97,5.55-7.22,5.3-2.91-.21-5.43-2.35-6.19-5.3l-7.96-67.35h0Z"/>
  </g>
</svg>