<?xml version="1.0" encoding="UTF-8"?>
<svg id="Layer_1" data-name="Layer 1" xmlns="http://www.w3.org/2000/svg" viewBox="0 0 512 512">
  <defs>
    <style>
      .cls-1 {
        fill: #7f7f7f;
        fill-rule: evenodd;
      }

      .cls-2 {
        fill: #dad4bc;
      }
    </style>
  </defs>
  <rect id="bg" width="512" height="512"/>
  <path class="cls-2" d="M327.81,58.21h184.19v191.66h-124.19c-33.11,0-60-26.89-60-60V58.21h0Z"/>
  <path d="M465.17,118h-20.43s0-.06,0-.09v-8.85c0-2.59-2.1-4.68-4.68-4.68h-33.19c-2.59,0-4.68,2.1-4.68,4.68v8.85s0,.06,0,.09h-20.94c-3.29,0-5.96,2.67-5.96,5.96v.68c0,3.29,2.67,5.96,5.96,5.96h3.37c-.31,3.12.76,8.14,1.96,19.9,1.36,13.38,4.39,26.57,5.52,39.97.09,1.02.3,3.94,2.33,6.52,1.04,1.33,2.25,2.16,3.16,2.67,7.66-.03,13.89-.04,18.13-.04,12.21-.01,18.32-.02,19.83,0,1.97.03,6.46.1,12.55.01,1.91-.03,3.48-.06,4.5-.09.53-.73,1.11-1.66,1.6-2.8.99-2.31,1.16-4.42,1.16-5.79,1.36-19.36,3.26-34.56,4.76-44.92.92-6.38,1.75-11.45,1.16-15.44h3.9c3.29,0,5.96-2.67,5.96-5.96v-.68c0-3.29-2.67-5.96-5.96-5.96ZM411.18,188.52c0,1.97-1.59,3.56-3.56,3.56s-3.56-1.59-3.56-3.56v-46.33c0-1.97,1.59-3.56,3.56-3.56s3.56,1.59,3.56,3.56v46.33ZM427.02,188.52c0,1.97-1.59,3.56-3.56,3.56s-3.56-1.59-3.56-3.56v-46.33c0-1.97,1.59-3.56,3.56-3.56s3.56,1.59,3.56,3.56v46.33ZM442.51,188.52c0,1.97-1.59,3.56-3.56,3.56s-3.56-1.59-3.56-3.56v-46.33c0-1.97,1.59-3.56,3.56-3.56s3.56,1.59,3.56,3.56v46.33Z"/>
  <path class="cls-1" d="M53.08,285.04c0-72.4,58.69-131.1,131.09-131.1s131.1,58.7,131.1,131.1-58.69,131.1-131.1,131.1-131.09-58.7-131.09-131.1ZM303.71,285.04c0-66.02-53.52-119.54-119.54-119.54s-119.53,53.52-119.53,119.54,53.52,119.54,119.53,119.54c23.72,0,45.82-6.91,64.41-18.82l-2.36-2.65c-2.12-2.39-1.9-6.04.48-8.16,2.17-1.93,5.38-1.92,7.54-.11l.61.6,3.19,3.59c20.92-16.46,36.2-39.76,42.49-66.52l-41.06-36.79-45.98-51.59c-.14-.19-.34-.33-.56-.4l-.35-.05h-46.68c-.33,0-.64.15-.85.39l-.17.28-13.16,29.93c-1.88,4.24-5.89,7.09-10.45,7.51l-1.15.05h-26.63s-14.08,24.11-14.08,24.11l-.67-.39,6.38,15.86c.51,1.27,1.64,2.17,2.96,2.4l.67.06h42.21c2.57,0,6.12,1.45,12.31,4.57l3.19,1.63,3.61,1.91,6.82,3.74c2.78,1.57,3.76,5.09,2.19,7.87-1.57,2.78-5.09,3.76-7.87,2.19l-3.06-1.7-3.52-1.91-5-2.62-3.03-1.51-5.63-2.61h-42.21c-5.89,0-11.23-3.34-13.84-8.55l-.52-1.14-16.04-39.89c-2.86-7.14,2.05-14.88,9.53-15.52l.99-.04h51.24c.33,0,.64-.15.85-.39l.17-.28,13.15-29.92c1.87-4.25,5.89-7.11,10.46-7.52l1.15-.05h46.68c3.63,0,7.06,1.55,9.21,3.92l.67.82,45.18,50.72,35.24,31.54c.54-4.61.82-9.31.82-14.07ZM100.11,261.82h-10.92s4.45,11.07,4.45,11.07l6.46-11.07ZM243.24,264.24c-.74-2.75-3.41-4.6-6.31-4.23-3.16.41-5.4,3.3-5,6.47l11.86,92.51v.32c0,.12-.02.22-.04.28-.02.08-.03.12,0,.12h-52.87l.03-.04s0-.02,0-.04v-.04c-.04-.11-.08-.3-.05-.58l18.06-91.18.1-.78c.17-2.84-1.78-5.44-4.65-6.01-3.13-.62-6.17,1.42-6.79,4.55l-18.14,91.71-.08,1.13c-.21,7.08,4.84,12.85,11.52,12.85h52.87l1.06-.05c6.61-.61,11.3-6.9,10.44-13.69l-11.87-92.52-.15-.77ZM177.43,236.81c3.19,0,5.78,2.59,5.78,5.78,0,2.93-2.17,5.34-4.99,5.73l-.78.05h-7.23c-3.19,0-5.78-2.59-5.78-5.78,0-2.93,2.17-5.34,4.99-5.73l.78-.05h7.23Z"/>
</svg>