<?xml version="1.0" encoding="UTF-8"?>
<svg id="Layer_1" data-name="Layer 1" xmlns="http://www.w3.org/2000/svg" viewBox="0 0 512 512">
  <defs>
    <style>
      .cls-1 {
        fill: #fff;
      }
    </style>
  </defs>
  <rect id="bg" width="512" height="512"/>
  <g>
    <path class="cls-1" d="M423.72,96.89c0-3.51-2.85-6.36-6.36-6.36h-39.94c-3.51,0-6.36,2.85-6.36,6.36v4.27h-213.64l-17.05-14.66-52.09,40.7v298.3h335.3V153.82c.09-.43.14-.87.14-1.33v-55.6Z"/>
    <rect x="162.14" y="116.99" width="177.52" height="98.69"/>
    <rect x="140.51" y="266.56" width="230.55" height="143.43"/>
    <g>
      <rect class="cls-1" x="247.72" y="188.73" width="17.84" height="212.34" rx="8" ry="8" transform="translate(-38.26 551.54) rotate(-90)"/>
      <rect class="cls-1" x="247.72" y="216.06" width="17.84" height="212.34" rx="8" ry="8" transform="translate(-65.58 578.87) rotate(-90)"/>
      <rect class="cls-1" x="247.72" y="243.38" width="17.84" height="212.34" rx="8" ry="8" transform="translate(-92.91 606.19) rotate(-90)"/>
      <rect class="cls-1" x="247.72" y="270.71" width="17.84" height="212.34" rx="8" ry="8" transform="translate(-120.23 633.52) rotate(-90)"/>
    </g>
    <rect class="cls-1" x="192.83" y="121.65" width="25.85" height="88.81" rx="10.98" ry="10.98"/>
  </g>
</svg>