<?xml version="1.0" encoding="UTF-8"?>
<svg id="Layer_1" data-name="Layer 1" xmlns="http://www.w3.org/2000/svg" viewBox="0 0 512 512">
  <defs>
    <style>
      .cls-1 {
        fill: #fff;
      }
    </style>
  </defs>
  <rect id="bg" width="512" height="512"/>
  <path class="cls-1" d="M423.74,210.04h-25.02c-.07,0-.13,0-.19,0-1.52-5.02-3.3-9.98-5.36-14.86-1.12-2.64-2.32-5.24-3.58-7.8l17.52-17.52c5.98-5.98,5.98-15.68,0-21.66l-43.33-43.33c-5.98-5.98-15.68-5.98-21.66,0l-16.9,16.9c-3.36-1.73-6.78-3.35-10.29-4.83-4.27-1.8-8.59-3.39-12.97-4.78v-23.92c0-8.46-6.86-15.32-15.32-15.32h-61.28c-8.46,0-15.32,6.86-15.32,15.32v25c-3.26,1.12-6.5,2.35-9.7,3.7-4.26,1.8-8.42,3.8-12.46,5.97-.11-.11-.2-.23-.31-.35l-17.69-17.69c-5.98-5.98-15.68-5.98-21.66,0l-43.33,43.33c-5.98,5.98-5.98,15.68,0,21.66l17.69,17.69c.67.67,1.4,1.26,2.15,1.78-.91,1.93-1.79,3.87-2.63,5.84-2.11,5-3.93,10.08-5.47,15.23-1.08-.24-2.2-.38-3.36-.38h-25.02c-8.46,0-15.32,6.86-15.32,15.32v61.28c0,8.46,6.86,15.32,15.32,15.32h25.02c1.92,0,3.74-.37,5.43-1.01,1.04,2.97,2.16,5.92,3.4,8.83,1.64,3.87,3.44,7.66,5.39,11.35-1.78.75-3.46,1.84-4.91,3.29l-17.69,17.69c-5.98,5.98-5.98,15.68,0,21.66l43.33,43.33c5.98,5.98,15.68,5.98,21.66,0l17.69-17.69c1.65-1.65,2.83-3.6,3.57-5.67,3.01,1.52,6.07,2.95,9.2,4.27,3.68,1.56,7.4,2.95,11.16,4.19-.93,1.98-1.47,4.18-1.47,6.51v25.02c0,8.46,6.86,15.32,15.32,15.32h61.28c8.46,0,15.32-6.86,15.32-15.32v-25.02c0-1.97-.39-3.85-1.07-5.58,4.74-1.46,9.43-3.17,14.04-5.12,2.19-.92,4.35-1.9,6.48-2.92.73,1.56,1.73,3.03,3.02,4.32l17.69,17.69c5.98,5.98,15.68,5.98,21.66,0l43.33-43.33c5.98-5.98,5.98-15.68,0-21.66l-17.69-17.69c-.73-.73-1.52-1.37-2.35-1.93,2.23-4.12,4.27-8.36,6.11-12.72,1.12-2.66,2.16-5.34,3.12-8.04.79.13,1.6.21,2.43.21h25.02c8.46,0,15.32-6.86,15.32-15.32v-61.28c0-8.46-6.86-15.32-15.32-15.32ZM257.64,321.62c-38.18,0-69.13-30.95-69.13-69.13s30.95-69.13,69.13-69.13,69.13,30.95,69.13,69.13-30.95,69.13-69.13,69.13Z"/>
</svg>