<?xml version="1.0" encoding="UTF-8"?>
<svg id="Layer_1" data-name="Layer 1" xmlns="http://www.w3.org/2000/svg" viewBox="0 0 512 512">
  <defs>
    <style>
      .cls-1 {
        fill: #fff;
      }

      .cls-2 {
        fill: #dad4bc;
      }
    </style>
  </defs>
  <rect id="bg" width="512" height="512"/>
  <g>
    <g>
      <path class="cls-1" d="M200.13,242.38c26.78,0,48.57,21.79,48.57,48.57s-21.79,48.57-48.57,48.57-48.57-21.79-48.57-48.57,21.79-48.57,48.57-48.57M200.13,225.38c-36.22,0-65.57,29.36-65.57,65.57s29.36,65.57,65.57,65.57,65.57-29.36,65.57-65.57-29.36-65.57-65.57-65.57h0Z"/>
      <g>
        <path class="cls-1" d="M199.38,153.89c-4.89,0-8.85,3.96-8.85,8.85v40.51c0,4.89,3.96,8.85,8.85,8.85s8.85-3.96,8.85-8.85v-40.51c0-4.89-3.96-8.85-8.85-8.85h0Z"/>
        <path class="cls-1" d="M199.38,369.81c-4.89,0-8.85,3.96-8.85,8.85v40.51c0,4.89,3.96,8.85,8.85,8.85s8.85-3.96,8.85-8.85v-40.51c0-4.89-3.96-8.85-8.85-8.85h0Z"/>
      </g>
      <g>
        <path class="cls-1" d="M111.68,282.11h-40.51c-4.89,0-8.85,3.96-8.85,8.85s3.96,8.85,8.85,8.85h40.51c4.89,0,8.85-3.96,8.85-8.85s-3.96-8.85-8.85-8.85h0Z"/>
        <path class="cls-1" d="M327.6,282.11h-40.51c-4.89,0-8.85,3.96-8.85,8.85s3.96,8.85,8.85,8.85h40.51c4.89,0,8.85-3.96,8.85-8.85s-3.96-8.85-8.85-8.85h0Z"/>
      </g>
      <g>
        <path class="cls-1" d="M108.72,191.45c-2.27,0-4.53.86-6.26,2.59h0c-3.46,3.46-3.46,9.06,0,12.52l28.65,28.65c1.73,1.73,3.99,2.59,6.26,2.59s4.53-.86,6.26-2.59h0c3.46-3.46,3.46-9.06,0-12.52l-28.65-28.65c-1.73-1.73-3.99-2.59-6.26-2.59h0Z"/>
        <path class="cls-1" d="M261.4,344.12c-2.27,0-4.53.86-6.26,2.59-3.46,3.46-3.46,9.06,0,12.52l28.65,28.65c1.73,1.73,3.99,2.59,6.26,2.59s4.53-.86,6.26-2.59h0c3.46-3.46,3.46-9.06,0-12.52l-28.65-28.65c-1.73-1.73-3.99-2.59-6.26-2.59h0Z"/>
      </g>
      <g>
        <path class="cls-1" d="M290.04,191.45c-2.27,0-4.53.86-6.26,2.59l-28.65,28.65c-3.46,3.46-3.46,9.06,0,12.52h0c1.73,1.73,3.99,2.59,6.26,2.59s4.53-.86,6.26-2.59l28.65-28.65c3.46-3.46,3.46-9.06,0-12.52h0c-1.73-1.73-3.99-2.59-6.26-2.59h0Z"/>
        <path class="cls-1" d="M137.37,344.12c-2.27,0-4.53.86-6.26,2.59l-28.65,28.65c-3.46,3.46-3.46,9.06,0,12.52h0c1.73,1.73,3.99,2.59,6.26,2.59s4.53-.86,6.26-2.59l28.65-28.65c3.46-3.46,3.46-9.06,0-12.52h0c-1.73-1.73-3.99-2.59-6.26-2.59h0Z"/>
      </g>
    </g>
    <path class="cls-2" d="M327.81,68.19h184.19v191.66h-124.19c-33.11,0-60-26.89-60-60V68.19h0Z"/>
    <path d="M480.11,166.7c-2.23,2.92-21.86,27.61-55.91,27.7-34.29.09-54.1-24.83-56.3-27.7-.25-.33-.87-1.24-.93-2.56-.06-1.55.7-2.62.93-2.93,2.33-2.94,22.63-27.65,57.06-27.19,33.28.44,52.66,24.05,55.15,27.19.25.38.79,1.33.81,2.66.02,1.43-.56,2.45-.81,2.83Z"/>
    <path class="cls-2" d="M424.68,144.81c10.9,0,19.77,8.87,19.77,19.77s-8.87,19.77-19.77,19.77-19.77-8.87-19.77-19.77,8.87-19.77,19.77-19.77M424.68,139.81c-13.68,0-24.77,11.09-24.77,24.77s11.09,24.77,24.77,24.77,24.77-11.09,24.77-24.77-11.09-24.77-24.77-24.77h0Z"/>
  </g>
</svg>