<?xml version="1.0" encoding="UTF-8"?>
<svg id="Layer_1" data-name="Layer 1" xmlns="http://www.w3.org/2000/svg" viewBox="0 0 512 512">
  <defs>
    <style>
      .cls-1 {
        fill: #fff;
      }
    </style>
  </defs>
  <rect id="bg" width="512" height="512"/>
  <g>
    <path class="cls-1" d="M399.17,117.47h-28.19s0-.01,0-.02v-40.13c0-9.98-8.12-18.11-18.11-18.11h-198.85c-9.98,0-18.11,8.12-18.11,18.11v40.13s0,.01,0,.02h-22.24c-9.98,0-18.11,8.12-18.11,18.11v24.3c0,9.98,8.12,18.11,18.11,18.11h20.98s0,.01,0,.02v257.57c0,9.98,8.12,18.11,18.11,18.11h205.21c9.98,0,18.11-8.12,18.11-18.11V178s0-.01,0-.02h23.09c9.98,0,18.11-8.12,18.11-18.11v-24.3c0-9.98-8.12-18.11-18.11-18.11ZM153.91,117.45v-40.13c0-.06.05-.11.11-.11h198.85c.06,0,.11.05.11.11v40.13s0,.01,0,.02h-199.05s0-.01,0-.02ZM358.09,178v257.57c0,.06-.05.11-.11.11h-205.21c-.06,0-.11-.05-.11-.11V178s0-.01,0-.02h205.41s0,.01,0,.02ZM399.28,159.87c0,.06-.05.11-.11.11H113.68c-.06,0-.11-.05-.11-.11v-24.3c0-.06.05-.11.11-.11h285.49c.06,0,.11.05.11.11v24.3Z"/>
    <g>
      <rect class="cls-1" x="206.64" y="225.77" width="17.87" height="164.94" rx="8.94" ry="8.94"/>
      <rect class="cls-1" x="288.34" y="225.77" width="17.87" height="164.94" rx="8.94" ry="8.94"/>
    </g>
  </g>
</svg>